<?xml version="1.0" encoding="UTF-8" standalone="no"?>
<!DOCTYPE svg PUBLIC "-//W3C//DTD SVG 1.1//EN"
 "http://www.w3.org/Graphics/SVG/1.1/DTD/svg11.dtd">
<!-- Generated by graphviz version 2.43.0 (0)
 -->
<!-- Title: api.h Pages: 1 -->
<svg width="766pt" height="151pt"
 viewBox="0.00 0.00 766.00 151.00" xmlns="http://www.w3.org/2000/svg" xmlns:xlink="http://www.w3.org/1999/xlink">
<g id="graph0" class="graph" transform="scale(1 1) rotate(0) translate(4 147)">
<title>api.h</title>
<polygon fill="white" stroke="transparent" points="-4,4 -4,-147 762,-147 762,4 -4,4"/>
<!-- Node1 -->
<g id="node1" class="node">
<title>Node1</title>
<g id="a_node1"><a xlink:title=" ">
<polygon fill="#bfbfbf" stroke="black" points="352.5,-123.5 352.5,-142.5 393.5,-142.5 393.5,-123.5 352.5,-123.5"/>
<text text-anchor="middle" x="373" y="-130.5" font-family="Helvetica,sans-Serif" font-size="10.00">api.h</text>
</a>
</g>
</g>
<!-- Node2 -->
<g id="node2" class="node">
<title>Node2</title>
<g id="a_node2"><a xlink:href="ccsds__ldpc__decoder_8h.html" target="_top" xlink:title=" ">
<polygon fill="white" stroke="black" points="0,-67.5 0,-86.5 122,-86.5 122,-67.5 0,-67.5"/>
<text text-anchor="middle" x="61" y="-74.5" font-family="Helvetica,sans-Serif" font-size="10.00">ccsds_ldpc_decoder.h</text>
</a>
</g>
</g>
<!-- Node1&#45;&gt;Node2 -->
<g id="edge1" class="edge">
<title>Node1&#45;&gt;Node2</title>
<path fill="none" stroke="midnightblue" d="M342.01,-126.64C287.79,-117.25 175.31,-97.78 110.3,-86.53"/>
<polygon fill="midnightblue" stroke="midnightblue" points="341.59,-130.12 352.04,-128.37 342.79,-123.22 341.59,-130.12"/>
</g>
<!-- Node4 -->
<g id="node4" class="node">
<title>Node4</title>
<g id="a_node4"><a xlink:href="CCSDS__Pseudo__Randomizer_8h.html" target="_top" xlink:title=" ">
<polygon fill="white" stroke="black" points="140.5,-67.5 140.5,-86.5 303.5,-86.5 303.5,-67.5 140.5,-67.5"/>
<text text-anchor="middle" x="222" y="-74.5" font-family="Helvetica,sans-Serif" font-size="10.00">CCSDS_Pseudo_Randomizer.h</text>
</a>
</g>
</g>
<!-- Node1&#45;&gt;Node4 -->
<g id="edge3" class="edge">
<title>Node1&#45;&gt;Node4</title>
<path fill="none" stroke="midnightblue" d="M342.86,-121.22C314.36,-111.03 272.16,-95.94 245.91,-86.55"/>
<polygon fill="midnightblue" stroke="midnightblue" points="341.73,-124.53 352.32,-124.6 344.08,-117.94 341.73,-124.53"/>
</g>
<!-- Node6 -->
<g id="node6" class="node">
<title>Node6</title>
<g id="a_node6"><a xlink:href="Frame__Extract2_8h.html" target="_top" xlink:title=" ">
<polygon fill="white" stroke="black" points="322,-67.5 322,-86.5 424,-86.5 424,-67.5 322,-67.5"/>
<text text-anchor="middle" x="373" y="-74.5" font-family="Helvetica,sans-Serif" font-size="10.00">Frame_Extract2.h</text>
</a>
</g>
</g>
<!-- Node1&#45;&gt;Node6 -->
<g id="edge5" class="edge">
<title>Node1&#45;&gt;Node6</title>
<path fill="none" stroke="midnightblue" d="M373,-112.8C373,-103.91 373,-93.78 373,-86.75"/>
<polygon fill="midnightblue" stroke="midnightblue" points="369.5,-113.08 373,-123.08 376.5,-113.08 369.5,-113.08"/>
</g>
<!-- Node8 -->
<g id="node8" class="node">
<title>Node8</title>
<g id="a_node8"><a xlink:href="Resolve__Phase2_8h.html" target="_top" xlink:title=" ">
<polygon fill="white" stroke="black" points="455.5,-67.5 455.5,-86.5 560.5,-86.5 560.5,-67.5 455.5,-67.5"/>
<text text-anchor="middle" x="508" y="-74.5" font-family="Helvetica,sans-Serif" font-size="10.00">Resolve_Phase2.h</text>
</a>
</g>
</g>
<!-- Node1&#45;&gt;Node8 -->
<g id="edge7" class="edge">
<title>Node1&#45;&gt;Node8</title>
<path fill="none" stroke="midnightblue" d="M402.97,-120.01C428.26,-109.9 463.84,-95.66 486.41,-86.64"/>
<polygon fill="midnightblue" stroke="midnightblue" points="401.49,-116.83 393.5,-123.8 404.09,-123.33 401.49,-116.83"/>
</g>
<!-- Node10 -->
<g id="node10" class="node">
<title>Node10</title>
<g id="a_node10"><a xlink:href="Tag__FrameASM64__ff_8h.html" target="_top" xlink:title=" ">
<polygon fill="white" stroke="black" points="599,-67.5 599,-86.5 723,-86.5 723,-67.5 599,-67.5"/>
<text text-anchor="middle" x="661" y="-74.5" font-family="Helvetica,sans-Serif" font-size="10.00">Tag_FrameASM64_ff.h</text>
</a>
</g>
</g>
<!-- Node1&#45;&gt;Node10 -->
<g id="edge9" class="edge">
<title>Node1&#45;&gt;Node10</title>
<path fill="none" stroke="midnightblue" d="M403.75,-126.23C454.58,-116.7 556.38,-97.62 615.53,-86.52"/>
<polygon fill="midnightblue" stroke="midnightblue" points="402.9,-122.83 393.71,-128.12 404.19,-129.71 402.9,-122.83"/>
</g>
<!-- Node3 -->
<g id="node3" class="node">
<title>Node3</title>
<g id="a_node3"><a xlink:href="ccsds__ldpc__decoder__impl_8h.html" target="_top" xlink:title=" ">
<polygon fill="white" stroke="black" points="4.5,-0.5 4.5,-30.5 117.5,-30.5 117.5,-0.5 4.5,-0.5"/>
<text text-anchor="start" x="12.5" y="-18.5" font-family="Helvetica,sans-Serif" font-size="10.00">ccsds_ldpc_decoder</text>
<text text-anchor="middle" x="61" y="-7.5" font-family="Helvetica,sans-Serif" font-size="10.00">_impl.h</text>
</a>
</g>
</g>
<!-- Node2&#45;&gt;Node3 -->
<g id="edge2" class="edge">
<title>Node2&#45;&gt;Node3</title>
<path fill="none" stroke="midnightblue" d="M61,-57.23C61,-48.59 61,-38.5 61,-30.52"/>
<polygon fill="midnightblue" stroke="midnightblue" points="57.5,-57.48 61,-67.48 64.5,-57.48 57.5,-57.48"/>
</g>
<!-- Node5 -->
<g id="node5" class="node">
<title>Node5</title>
<g id="a_node5"><a xlink:href="CCSDS__Pseudo__Randomizer__impl_8h.html" target="_top" xlink:title=" ">
<polygon fill="white" stroke="black" points="136,-0.5 136,-30.5 290,-30.5 290,-0.5 136,-0.5"/>
<text text-anchor="start" x="144" y="-18.5" font-family="Helvetica,sans-Serif" font-size="10.00">CCSDS_Pseudo_Randomizer</text>
<text text-anchor="middle" x="213" y="-7.5" font-family="Helvetica,sans-Serif" font-size="10.00">_impl.h</text>
</a>
</g>
</g>
<!-- Node4&#45;&gt;Node5 -->
<g id="edge4" class="edge">
<title>Node4&#45;&gt;Node5</title>
<path fill="none" stroke="midnightblue" d="M219.21,-57.53C217.89,-48.81 216.34,-38.59 215.12,-30.52"/>
<polygon fill="midnightblue" stroke="midnightblue" points="215.75,-58.11 220.71,-67.48 222.68,-57.06 215.75,-58.11"/>
</g>
<!-- Node7 -->
<g id="node7" class="node">
<title>Node7</title>
<g id="a_node7"><a xlink:href="Frame__Extract2__impl_8h.html" target="_top" xlink:title=" ">
<polygon fill="white" stroke="black" points="308.5,-6 308.5,-25 437.5,-25 437.5,-6 308.5,-6"/>
<text text-anchor="middle" x="373" y="-13" font-family="Helvetica,sans-Serif" font-size="10.00">Frame_Extract2_impl.h</text>
</a>
</g>
</g>
<!-- Node6&#45;&gt;Node7 -->
<g id="edge6" class="edge">
<title>Node6&#45;&gt;Node7</title>
<path fill="none" stroke="midnightblue" d="M373,-57.32C373,-46.5 373,-33.4 373,-25.01"/>
<polygon fill="midnightblue" stroke="midnightblue" points="369.5,-57.48 373,-67.48 376.5,-57.48 369.5,-57.48"/>
</g>
<!-- Node9 -->
<g id="node9" class="node">
<title>Node9</title>
<g id="a_node9"><a xlink:href="Resolve__Phase2__impl_8h.html" target="_top" xlink:title=" ">
<polygon fill="white" stroke="black" points="456,-6 456,-25 588,-25 588,-6 456,-6"/>
<text text-anchor="middle" x="522" y="-13" font-family="Helvetica,sans-Serif" font-size="10.00">Resolve_Phase2_impl.h</text>
</a>
</g>
</g>
<!-- Node8&#45;&gt;Node9 -->
<g id="edge8" class="edge">
<title>Node8&#45;&gt;Node9</title>
<path fill="none" stroke="midnightblue" d="M512.32,-57.66C514.88,-46.77 518,-33.49 520,-25.01"/>
<polygon fill="midnightblue" stroke="midnightblue" points="508.89,-56.94 510.01,-67.48 515.7,-58.54 508.89,-56.94"/>
</g>
<!-- Node11 -->
<g id="node11" class="node">
<title>Node11</title>
<g id="a_node11"><a xlink:href="Tag__FrameASM64__ff__impl_8h.html" target="_top" xlink:title=" ">
<polygon fill="white" stroke="black" points="606,-6 606,-25 758,-25 758,-6 606,-6"/>
<text text-anchor="middle" x="682" y="-13" font-family="Helvetica,sans-Serif" font-size="10.00">Tag_FrameASM64_ff_impl.h</text>
</a>
</g>
</g>
<!-- Node10&#45;&gt;Node11 -->
<g id="edge10" class="edge">
<title>Node10&#45;&gt;Node11</title>
<path fill="none" stroke="midnightblue" d="M667.35,-58C671.22,-47.05 675.97,-33.57 679,-25.01"/>
<polygon fill="midnightblue" stroke="midnightblue" points="664.04,-56.88 664.01,-67.48 670.64,-59.21 664.04,-56.88"/>
</g>
</g>
</svg>
