<?xml version="1.0" encoding="UTF-8" standalone="no"?>
<!DOCTYPE svg PUBLIC "-//W3C//DTD SVG 1.1//EN"
 "http://www.w3.org/Graphics/SVG/1.1/DTD/svg11.dtd">
<!-- Generated by graphviz version 2.43.0 (0)
 -->
<!-- Title: api.h Pages: 1 -->
<svg width="901pt" height="151pt"
 viewBox="0.00 0.00 901.00 151.00" xmlns="http://www.w3.org/2000/svg" xmlns:xlink="http://www.w3.org/1999/xlink">
<g id="graph0" class="graph" transform="scale(1 1) rotate(0) translate(4 147)">
<title>api.h</title>
<polygon fill="white" stroke="transparent" points="-4,4 -4,-147 897,-147 897,4 -4,4"/>
<!-- Node1 -->
<g id="node1" class="node">
<title>Node1</title>
<g id="a_node1"><a xlink:title=" ">
<polygon fill="#bfbfbf" stroke="black" points="422.5,-123.5 422.5,-142.5 463.5,-142.5 463.5,-123.5 422.5,-123.5"/>
<text text-anchor="middle" x="443" y="-130.5" font-family="Helvetica,sans-Serif" font-size="10.00">api.h</text>
</a>
</g>
</g>
<!-- Node2 -->
<g id="node2" class="node">
<title>Node2</title>
<g id="a_node2"><a xlink:href="ccsds__ldpc__decoder_8h.html" target="_top" xlink:title=" ">
<polygon fill="white" stroke="black" points="0,-67.5 0,-86.5 122,-86.5 122,-67.5 0,-67.5"/>
<text text-anchor="middle" x="61" y="-74.5" font-family="Helvetica,sans-Serif" font-size="10.00">ccsds_ldpc_decoder.h</text>
</a>
</g>
</g>
<!-- Node1&#45;&gt;Node2 -->
<g id="edge1" class="edge">
<title>Node1&#45;&gt;Node2</title>
<path fill="none" stroke="midnightblue" d="M412.38,-127.67C349.35,-118.76 204.12,-98.23 121.45,-86.55"/>
<polygon fill="midnightblue" stroke="midnightblue" points="412.07,-131.16 422.46,-129.1 413.05,-124.23 412.07,-131.16"/>
</g>
<!-- Node4 -->
<g id="node4" class="node">
<title>Node4</title>
<g id="a_node4"><a xlink:href="CCSDS__Pseudo__Randomizer_8h.html" target="_top" xlink:title=" ">
<polygon fill="white" stroke="black" points="142.5,-67.5 142.5,-86.5 305.5,-86.5 305.5,-67.5 142.5,-67.5"/>
<text text-anchor="middle" x="224" y="-74.5" font-family="Helvetica,sans-Serif" font-size="10.00">CCSDS_Pseudo_Randomizer.h</text>
</a>
</g>
</g>
<!-- Node1&#45;&gt;Node4 -->
<g id="edge3" class="edge">
<title>Node1&#45;&gt;Node4</title>
<path fill="none" stroke="midnightblue" d="M412.59,-124.5C372.2,-114.54 301.05,-97 258.64,-86.54"/>
<polygon fill="midnightblue" stroke="midnightblue" points="411.85,-127.92 422.4,-126.92 413.53,-121.13 411.85,-127.92"/>
</g>
<!-- Node6 -->
<g id="node6" class="node">
<title>Node6</title>
<g id="a_node6"><a xlink:href="Frame__Extract2_8h.html" target="_top" xlink:title=" ">
<polygon fill="white" stroke="black" points="325,-67.5 325,-86.5 427,-86.5 427,-67.5 325,-67.5"/>
<text text-anchor="middle" x="376" y="-74.5" font-family="Helvetica,sans-Serif" font-size="10.00">Frame_Extract2.h</text>
</a>
</g>
</g>
<!-- Node1&#45;&gt;Node6 -->
<g id="edge5" class="edge">
<title>Node1&#45;&gt;Node6</title>
<path fill="none" stroke="midnightblue" d="M424.17,-116.82C412.16,-107.15 397.03,-94.95 386.96,-86.83"/>
<polygon fill="midnightblue" stroke="midnightblue" points="422.25,-119.77 432.24,-123.32 426.65,-114.32 422.25,-119.77"/>
</g>
<!-- Node8 -->
<g id="node8" class="node">
<title>Node8</title>
<g id="a_node8"><a xlink:href="Frame__ExtractOQPSK_8h.html" target="_top" xlink:title=" ">
<polygon fill="white" stroke="black" points="446,-67.5 446,-86.5 576,-86.5 576,-67.5 446,-67.5"/>
<text text-anchor="middle" x="511" y="-74.5" font-family="Helvetica,sans-Serif" font-size="10.00">Frame_ExtractOQPSK.h</text>
</a>
</g>
</g>
<!-- Node1&#45;&gt;Node8 -->
<g id="edge7" class="edge">
<title>Node1&#45;&gt;Node8</title>
<path fill="none" stroke="midnightblue" d="M461.76,-117.1C474,-107.38 489.56,-95.03 499.88,-86.83"/>
<polygon fill="midnightblue" stroke="midnightblue" points="459.58,-114.36 453.93,-123.32 463.93,-119.85 459.58,-114.36"/>
</g>
<!-- Node10 -->
<g id="node10" class="node">
<title>Node10</title>
<g id="a_node10"><a xlink:href="Resolve__Phase2_8h.html" target="_top" xlink:title=" ">
<polygon fill="white" stroke="black" points="599.5,-67.5 599.5,-86.5 704.5,-86.5 704.5,-67.5 599.5,-67.5"/>
<text text-anchor="middle" x="652" y="-74.5" font-family="Helvetica,sans-Serif" font-size="10.00">Resolve_Phase2.h</text>
</a>
</g>
</g>
<!-- Node1&#45;&gt;Node10 -->
<g id="edge9" class="edge">
<title>Node1&#45;&gt;Node10</title>
<path fill="none" stroke="midnightblue" d="M473.5,-124.12C512.29,-114.1 579.04,-96.85 619,-86.53"/>
<polygon fill="midnightblue" stroke="midnightblue" points="472.61,-120.73 463.8,-126.62 474.36,-127.51 472.61,-120.73"/>
</g>
<!-- Node12 -->
<g id="node12" class="node">
<title>Node12</title>
<g id="a_node12"><a xlink:href="Tag__FrameASM64__ff_8h.html" target="_top" xlink:title=" ">
<polygon fill="white" stroke="black" points="739,-67.5 739,-86.5 863,-86.5 863,-67.5 739,-67.5"/>
<text text-anchor="middle" x="801" y="-74.5" font-family="Helvetica,sans-Serif" font-size="10.00">Tag_FrameASM64_ff.h</text>
</a>
</g>
</g>
<!-- Node1&#45;&gt;Node12 -->
<g id="edge11" class="edge">
<title>Node1&#45;&gt;Node12</title>
<path fill="none" stroke="midnightblue" d="M473.52,-127.4C533.59,-118.34 667.94,-98.07 744.59,-86.51"/>
<polygon fill="midnightblue" stroke="midnightblue" points="472.9,-123.95 463.53,-128.9 473.94,-130.87 472.9,-123.95"/>
</g>
<!-- Node3 -->
<g id="node3" class="node">
<title>Node3</title>
<g id="a_node3"><a xlink:href="ccsds__ldpc__decoder__impl_8h.html" target="_top" xlink:title=" ">
<polygon fill="white" stroke="black" points="0.5,-0.5 0.5,-30.5 113.5,-30.5 113.5,-0.5 0.5,-0.5"/>
<text text-anchor="start" x="8.5" y="-18.5" font-family="Helvetica,sans-Serif" font-size="10.00">ccsds_ldpc_decoder</text>
<text text-anchor="middle" x="57" y="-7.5" font-family="Helvetica,sans-Serif" font-size="10.00">_impl.h</text>
</a>
</g>
</g>
<!-- Node2&#45;&gt;Node3 -->
<g id="edge2" class="edge">
<title>Node2&#45;&gt;Node3</title>
<path fill="none" stroke="midnightblue" d="M59.74,-57.23C59.16,-48.59 58.48,-38.5 57.94,-30.52"/>
<polygon fill="midnightblue" stroke="midnightblue" points="56.26,-57.73 60.43,-67.48 63.25,-57.26 56.26,-57.73"/>
</g>
<!-- Node5 -->
<g id="node5" class="node">
<title>Node5</title>
<g id="a_node5"><a xlink:href="CCSDS__Pseudo__Randomizer__impl_8h.html" target="_top" xlink:title=" ">
<polygon fill="white" stroke="black" points="132,-0.5 132,-30.5 286,-30.5 286,-0.5 132,-0.5"/>
<text text-anchor="start" x="140" y="-18.5" font-family="Helvetica,sans-Serif" font-size="10.00">CCSDS_Pseudo_Randomizer</text>
<text text-anchor="middle" x="209" y="-7.5" font-family="Helvetica,sans-Serif" font-size="10.00">_impl.h</text>
</a>
</g>
</g>
<!-- Node4&#45;&gt;Node5 -->
<g id="edge4" class="edge">
<title>Node4&#45;&gt;Node5</title>
<path fill="none" stroke="midnightblue" d="M219.34,-57.53C217.15,-48.81 214.57,-38.59 212.54,-30.52"/>
<polygon fill="midnightblue" stroke="midnightblue" points="216.01,-58.63 221.85,-67.48 222.8,-56.92 216.01,-58.63"/>
</g>
<!-- Node7 -->
<g id="node7" class="node">
<title>Node7</title>
<g id="a_node7"><a xlink:href="Frame__Extract2__impl_8h.html" target="_top" xlink:title=" ">
<polygon fill="white" stroke="black" points="304.5,-6 304.5,-25 433.5,-25 433.5,-6 304.5,-6"/>
<text text-anchor="middle" x="369" y="-13" font-family="Helvetica,sans-Serif" font-size="10.00">Frame_Extract2_impl.h</text>
</a>
</g>
</g>
<!-- Node6&#45;&gt;Node7 -->
<g id="edge6" class="edge">
<title>Node6&#45;&gt;Node7</title>
<path fill="none" stroke="midnightblue" d="M373.8,-57.32C372.53,-46.5 370.99,-33.4 370,-25.01"/>
<polygon fill="midnightblue" stroke="midnightblue" points="370.35,-57.95 375,-67.48 377.3,-57.13 370.35,-57.95"/>
</g>
<!-- Node9 -->
<g id="node9" class="node">
<title>Node9</title>
<g id="a_node9"><a xlink:href="Frame__ExtractOQPSK__impl_8h.html" target="_top" xlink:title=" ">
<polygon fill="white" stroke="black" points="451.5,-0.5 451.5,-30.5 572.5,-30.5 572.5,-0.5 451.5,-0.5"/>
<text text-anchor="start" x="459.5" y="-18.5" font-family="Helvetica,sans-Serif" font-size="10.00">Frame_ExtractOQPSK</text>
<text text-anchor="middle" x="512" y="-7.5" font-family="Helvetica,sans-Serif" font-size="10.00">_impl.h</text>
</a>
</g>
</g>
<!-- Node8&#45;&gt;Node9 -->
<g id="edge8" class="edge">
<title>Node8&#45;&gt;Node9</title>
<path fill="none" stroke="midnightblue" d="M511.32,-57.23C511.46,-48.59 511.63,-38.5 511.76,-30.52"/>
<polygon fill="midnightblue" stroke="midnightblue" points="507.81,-57.42 511.14,-67.48 514.81,-57.54 507.81,-57.42"/>
</g>
<!-- Node11 -->
<g id="node11" class="node">
<title>Node11</title>
<g id="a_node11"><a xlink:href="Resolve__Phase2__impl_8h.html" target="_top" xlink:title=" ">
<polygon fill="white" stroke="black" points="591,-6 591,-25 723,-25 723,-6 591,-6"/>
<text text-anchor="middle" x="657" y="-13" font-family="Helvetica,sans-Serif" font-size="10.00">Resolve_Phase2_impl.h</text>
</a>
</g>
</g>
<!-- Node10&#45;&gt;Node11 -->
<g id="edge10" class="edge">
<title>Node10&#45;&gt;Node11</title>
<path fill="none" stroke="midnightblue" d="M653.57,-57.32C654.48,-46.5 655.58,-33.4 656.28,-25.01"/>
<polygon fill="midnightblue" stroke="midnightblue" points="650.07,-57.22 652.72,-67.48 657.04,-57.8 650.07,-57.22"/>
</g>
<!-- Node13 -->
<g id="node13" class="node">
<title>Node13</title>
<g id="a_node13"><a xlink:href="Tag__FrameASM64__ff__impl_8h.html" target="_top" xlink:title=" ">
<polygon fill="white" stroke="black" points="741,-6 741,-25 893,-25 893,-6 741,-6"/>
<text text-anchor="middle" x="817" y="-13" font-family="Helvetica,sans-Serif" font-size="10.00">Tag_FrameASM64_ff_impl.h</text>
</a>
</g>
</g>
<!-- Node12&#45;&gt;Node13 -->
<g id="edge12" class="edge">
<title>Node12&#45;&gt;Node13</title>
<path fill="none" stroke="midnightblue" d="M805.93,-57.66C808.86,-46.77 812.43,-33.49 814.71,-25.01"/>
<polygon fill="midnightblue" stroke="midnightblue" points="802.51,-56.91 803.29,-67.48 809.27,-58.73 802.51,-56.91"/>
</g>
</g>
</svg>
