<?xml version="1.0" encoding="UTF-8" standalone="no"?>
<!DOCTYPE svg PUBLIC "-//W3C//DTD SVG 1.1//EN"
 "http://www.w3.org/Graphics/SVG/1.1/DTD/svg11.dtd">
<!-- Generated by graphviz version 2.43.0 (0)
 -->
<!-- Title: ccsds_ldpc_decoder_impl.h Pages: 1 -->
<svg width="702pt" height="229pt"
 viewBox="0.00 0.00 701.50 229.00" xmlns="http://www.w3.org/2000/svg" xmlns:xlink="http://www.w3.org/1999/xlink">
<g id="graph0" class="graph" transform="scale(1 1) rotate(0) translate(4 225)">
<title>ccsds_ldpc_decoder_impl.h</title>
<polygon fill="white" stroke="transparent" points="-4,4 -4,-225 697.5,-225 697.5,4 -4,4"/>
<!-- Node1 -->
<g id="node1" class="node">
<title>Node1</title>
<g id="a_node1"><a xlink:title=" ">
<polygon fill="#bfbfbf" stroke="black" points="357,-190.5 357,-220.5 470,-220.5 470,-190.5 357,-190.5"/>
<text text-anchor="start" x="365" y="-208.5" font-family="Helvetica,sans-Serif" font-size="10.00">ccsds_ldpc_decoder</text>
<text text-anchor="middle" x="413.5" y="-197.5" font-family="Helvetica,sans-Serif" font-size="10.00">_impl.h</text>
</a>
</g>
</g>
<!-- Node2 -->
<g id="node2" class="node">
<title>Node2</title>
<g id="a_node2"><a xlink:href="ccsds__ldpc__decoder_8h.html" target="_top" xlink:title=" ">
<polygon fill="white" stroke="black" points="65,-123.5 65,-153.5 190,-153.5 190,-123.5 65,-123.5"/>
<text text-anchor="start" x="73" y="-141.5" font-family="Helvetica,sans-Serif" font-size="10.00">gnuradio/aff3ct_codes</text>
<text text-anchor="middle" x="127.5" y="-130.5" font-family="Helvetica,sans-Serif" font-size="10.00">/ccsds_ldpc_decoder.h</text>
</a>
</g>
</g>
<!-- Node1&#45;&gt;Node2 -->
<g id="edge1" class="edge">
<title>Node1&#45;&gt;Node2</title>
<path fill="none" stroke="midnightblue" d="M357,-191.66C311.76,-181.38 248.04,-166.89 199.21,-155.8"/>
<polygon fill="midnightblue" stroke="midnightblue" points="199.87,-152.36 189.34,-153.55 198.32,-159.18 199.87,-152.36"/>
</g>
<!-- Node6 -->
<g id="node6" class="node">
<title>Node6</title>
<g id="a_node6"><a xlink:title=" ">
<polygon fill="white" stroke="#bfbfbf" points="208.5,-129 208.5,-148 254.5,-148 254.5,-129 208.5,-129"/>
<text text-anchor="middle" x="231.5" y="-136" font-family="Helvetica,sans-Serif" font-size="10.00">cstdio</text>
</a>
</g>
</g>
<!-- Node1&#45;&gt;Node6 -->
<g id="edge5" class="edge">
<title>Node1&#45;&gt;Node6</title>
<path fill="none" stroke="midnightblue" d="M367.78,-190.43C337.84,-180.89 298.02,-167.59 263.5,-154 262.08,-153.44 260.63,-152.85 259.18,-152.25"/>
<polygon fill="midnightblue" stroke="midnightblue" points="260.21,-148.88 249.64,-148.1 257.42,-155.3 260.21,-148.88"/>
</g>
<!-- Node7 -->
<g id="node7" class="node">
<title>Node7</title>
<g id="a_node7"><a xlink:title=" ">
<polygon fill="white" stroke="#bfbfbf" points="272.5,-129 272.5,-148 332.5,-148 332.5,-129 272.5,-129"/>
<text text-anchor="middle" x="302.5" y="-136" font-family="Helvetica,sans-Serif" font-size="10.00">iostream</text>
</a>
</g>
</g>
<!-- Node1&#45;&gt;Node7 -->
<g id="edge6" class="edge">
<title>Node1&#45;&gt;Node7</title>
<path fill="none" stroke="midnightblue" d="M389.41,-190.4C370.54,-179.34 344.44,-164.06 325.78,-153.13"/>
<polygon fill="midnightblue" stroke="midnightblue" points="327.43,-150.04 317.03,-148.01 323.89,-156.08 327.43,-150.04"/>
</g>
<!-- Node8 -->
<g id="node8" class="node">
<title>Node8</title>
<g id="a_node8"><a xlink:title=" ">
<polygon fill="white" stroke="#bfbfbf" points="350.5,-129 350.5,-148 408.5,-148 408.5,-129 350.5,-129"/>
<text text-anchor="middle" x="379.5" y="-136" font-family="Helvetica,sans-Serif" font-size="10.00">memory</text>
</a>
</g>
</g>
<!-- Node1&#45;&gt;Node8 -->
<g id="edge7" class="edge">
<title>Node1&#45;&gt;Node8</title>
<path fill="none" stroke="midnightblue" d="M406.12,-190.4C401.03,-180.66 394.22,-167.65 388.77,-157.21"/>
<polygon fill="midnightblue" stroke="midnightblue" points="391.78,-155.43 384.05,-148.19 385.58,-158.68 391.78,-155.43"/>
</g>
<!-- Node9 -->
<g id="node9" class="node">
<title>Node9</title>
<g id="a_node9"><a xlink:title=" ">
<polygon fill="white" stroke="#bfbfbf" points="426.5,-129 426.5,-148 470.5,-148 470.5,-129 426.5,-129"/>
<text text-anchor="middle" x="448.5" y="-136" font-family="Helvetica,sans-Serif" font-size="10.00">string</text>
</a>
</g>
</g>
<!-- Node1&#45;&gt;Node9 -->
<g id="edge8" class="edge">
<title>Node1&#45;&gt;Node9</title>
<path fill="none" stroke="midnightblue" d="M421.09,-190.4C426.34,-180.66 433.34,-167.65 438.96,-157.21"/>
<polygon fill="midnightblue" stroke="midnightblue" points="442.16,-158.66 443.82,-148.19 436,-155.34 442.16,-158.66"/>
</g>
<!-- Node10 -->
<g id="node10" class="node">
<title>Node10</title>
<g id="a_node10"><a xlink:title=" ">
<polygon fill="white" stroke="#bfbfbf" points="489,-129 489,-148 536,-148 536,-129 489,-129"/>
<text text-anchor="middle" x="512.5" y="-136" font-family="Helvetica,sans-Serif" font-size="10.00">vector</text>
</a>
</g>
</g>
<!-- Node1&#45;&gt;Node10 -->
<g id="edge9" class="edge">
<title>Node1&#45;&gt;Node10</title>
<path fill="none" stroke="midnightblue" d="M434.98,-190.4C451.58,-179.5 474.46,-164.48 491.05,-153.58"/>
<polygon fill="midnightblue" stroke="midnightblue" points="493.1,-156.42 499.54,-148.01 489.26,-150.57 493.1,-156.42"/>
</g>
<!-- Node11 -->
<g id="node11" class="node">
<title>Node11</title>
<g id="a_node11"><a xlink:title=" ">
<polygon fill="white" stroke="#bfbfbf" points="554,-129 554,-148 609,-148 609,-129 554,-129"/>
<text text-anchor="middle" x="581.5" y="-136" font-family="Helvetica,sans-Serif" font-size="10.00">fstream</text>
</a>
</g>
</g>
<!-- Node1&#45;&gt;Node11 -->
<g id="edge10" class="edge">
<title>Node1&#45;&gt;Node11</title>
<path fill="none" stroke="midnightblue" d="M450.83,-190.42C477.31,-180.38 513.64,-166.51 545.5,-154 547.14,-153.36 548.82,-152.69 550.51,-152.02"/>
<polygon fill="midnightblue" stroke="midnightblue" points="552.22,-155.11 560.2,-148.15 549.62,-148.61 552.22,-155.11"/>
</g>
<!-- Node12 -->
<g id="node12" class="node">
<title>Node12</title>
<g id="a_node12"><a xlink:title=" ">
<polygon fill="white" stroke="#bfbfbf" points="627.5,-129 627.5,-148 693.5,-148 693.5,-129 627.5,-129"/>
<text text-anchor="middle" x="660.5" y="-136" font-family="Helvetica,sans-Serif" font-size="10.00">aff3ct.hpp</text>
</a>
</g>
</g>
<!-- Node1&#45;&gt;Node12 -->
<g id="edge11" class="edge">
<title>Node1&#45;&gt;Node12</title>
<path fill="none" stroke="midnightblue" d="M470.43,-191.94C511.78,-182.46 568.93,-168.63 618.5,-154 621.44,-153.13 624.48,-152.19 627.51,-151.2"/>
<polygon fill="midnightblue" stroke="midnightblue" points="628.7,-154.5 637.08,-148.01 626.48,-147.86 628.7,-154.5"/>
</g>
<!-- Node3 -->
<g id="node3" class="node">
<title>Node3</title>
<g id="a_node3"><a xlink:href="api_8h.html" target="_top" xlink:title=" ">
<polygon fill="white" stroke="black" points="0,-56.5 0,-86.5 125,-86.5 125,-56.5 0,-56.5"/>
<text text-anchor="start" x="8" y="-74.5" font-family="Helvetica,sans-Serif" font-size="10.00">gnuradio/aff3ct_codes</text>
<text text-anchor="middle" x="62.5" y="-63.5" font-family="Helvetica,sans-Serif" font-size="10.00">/api.h</text>
</a>
</g>
</g>
<!-- Node2&#45;&gt;Node3 -->
<g id="edge2" class="edge">
<title>Node2&#45;&gt;Node3</title>
<path fill="none" stroke="midnightblue" d="M113.4,-123.4C104.71,-114.71 93.4,-103.4 83.66,-93.66"/>
<polygon fill="midnightblue" stroke="midnightblue" points="86.12,-91.17 76.58,-86.58 81.17,-96.12 86.12,-91.17"/>
</g>
<!-- Node5 -->
<g id="node5" class="node">
<title>Node5</title>
<g id="a_node5"><a xlink:title=" ">
<polygon fill="white" stroke="#bfbfbf" points="143.5,-62 143.5,-81 241.5,-81 241.5,-62 143.5,-62"/>
<text text-anchor="middle" x="192.5" y="-69" font-family="Helvetica,sans-Serif" font-size="10.00">gnuradio/block.h</text>
</a>
</g>
</g>
<!-- Node2&#45;&gt;Node5 -->
<g id="edge4" class="edge">
<title>Node2&#45;&gt;Node5</title>
<path fill="none" stroke="midnightblue" d="M141.6,-123.4C151.94,-113.06 165.98,-99.02 176.69,-88.31"/>
<polygon fill="midnightblue" stroke="midnightblue" points="179.21,-90.74 183.81,-81.19 174.26,-85.79 179.21,-90.74"/>
</g>
<!-- Node4 -->
<g id="node4" class="node">
<title>Node4</title>
<g id="a_node4"><a xlink:title=" ">
<polygon fill="white" stroke="#bfbfbf" points="3,-0.5 3,-19.5 122,-19.5 122,-0.5 3,-0.5"/>
<text text-anchor="middle" x="62.5" y="-7.5" font-family="Helvetica,sans-Serif" font-size="10.00">gnuradio/attributes.h</text>
</a>
</g>
</g>
<!-- Node3&#45;&gt;Node4 -->
<g id="edge3" class="edge">
<title>Node3&#45;&gt;Node4</title>
<path fill="none" stroke="midnightblue" d="M62.5,-56.4C62.5,-48.47 62.5,-38.46 62.5,-29.86"/>
<polygon fill="midnightblue" stroke="midnightblue" points="66,-29.66 62.5,-19.66 59,-29.66 66,-29.66"/>
</g>
</g>
</svg>
