<?xml version="1.0" encoding="UTF-8" standalone="no"?>
<!DOCTYPE svg PUBLIC "-//W3C//DTD SVG 1.1//EN"
 "http://www.w3.org/Graphics/SVG/1.1/DTD/svg11.dtd">
<!-- Generated by graphviz version 2.43.0 (0)
 -->
<!-- Title: CCSDS_Pseudo_Randomizer_impl.h Pages: 1 -->
<svg width="358pt" height="229pt"
 viewBox="0.00 0.00 358.00 229.00" xmlns="http://www.w3.org/2000/svg" xmlns:xlink="http://www.w3.org/1999/xlink">
<g id="graph0" class="graph" transform="scale(1 1) rotate(0) translate(4 225)">
<title>CCSDS_Pseudo_Randomizer_impl.h</title>
<polygon fill="white" stroke="transparent" points="-4,4 -4,-225 354,-225 354,4 -4,4"/>
<!-- Node1 -->
<g id="node1" class="node">
<title>Node1</title>
<g id="a_node1"><a xlink:title=" ">
<polygon fill="#bfbfbf" stroke="black" points="131.5,-190.5 131.5,-220.5 285.5,-220.5 285.5,-190.5 131.5,-190.5"/>
<text text-anchor="start" x="139.5" y="-208.5" font-family="Helvetica,sans-Serif" font-size="10.00">CCSDS_Pseudo_Randomizer</text>
<text text-anchor="middle" x="208.5" y="-197.5" font-family="Helvetica,sans-Serif" font-size="10.00">_impl.h</text>
</a>
</g>
</g>
<!-- Node2 -->
<g id="node2" class="node">
<title>Node2</title>
<g id="a_node2"><a xlink:href="CCSDS__Pseudo__Randomizer_8h.html" target="_top" xlink:title=" ">
<polygon fill="white" stroke="black" points="44.5,-123.5 44.5,-153.5 210.5,-153.5 210.5,-123.5 44.5,-123.5"/>
<text text-anchor="start" x="52.5" y="-141.5" font-family="Helvetica,sans-Serif" font-size="10.00">gnuradio/aff3ct_codes</text>
<text text-anchor="middle" x="127.5" y="-130.5" font-family="Helvetica,sans-Serif" font-size="10.00">/CCSDS_Pseudo_Randomizer.h</text>
</a>
</g>
</g>
<!-- Node1&#45;&gt;Node2 -->
<g id="edge1" class="edge">
<title>Node1&#45;&gt;Node2</title>
<path fill="none" stroke="midnightblue" d="M190.92,-190.4C179.89,-181.54 165.46,-169.96 153.15,-160.09"/>
<polygon fill="midnightblue" stroke="midnightblue" points="155.03,-157.11 145.04,-153.58 150.65,-162.56 155.03,-157.11"/>
</g>
<!-- Node6 -->
<g id="node6" class="node">
<title>Node6</title>
<g id="a_node6"><a xlink:title=" ">
<polygon fill="white" stroke="#bfbfbf" points="229,-129 229,-148 350,-148 350,-129 229,-129"/>
<text text-anchor="middle" x="289.5" y="-136" font-family="Helvetica,sans-Serif" font-size="10.00">gnuradio/digital/lfsr.h</text>
</a>
</g>
</g>
<!-- Node1&#45;&gt;Node6 -->
<g id="edge5" class="edge">
<title>Node1&#45;&gt;Node6</title>
<path fill="none" stroke="midnightblue" d="M226.08,-190.4C239.21,-179.86 257.13,-165.48 270.57,-154.69"/>
<polygon fill="midnightblue" stroke="midnightblue" points="273.06,-157.18 278.67,-148.19 268.68,-151.72 273.06,-157.18"/>
</g>
<!-- Node3 -->
<g id="node3" class="node">
<title>Node3</title>
<g id="a_node3"><a xlink:href="api_8h.html" target="_top" xlink:title=" ">
<polygon fill="white" stroke="black" points="0,-56.5 0,-86.5 125,-86.5 125,-56.5 0,-56.5"/>
<text text-anchor="start" x="8" y="-74.5" font-family="Helvetica,sans-Serif" font-size="10.00">gnuradio/aff3ct_codes</text>
<text text-anchor="middle" x="62.5" y="-63.5" font-family="Helvetica,sans-Serif" font-size="10.00">/api.h</text>
</a>
</g>
</g>
<!-- Node2&#45;&gt;Node3 -->
<g id="edge2" class="edge">
<title>Node2&#45;&gt;Node3</title>
<path fill="none" stroke="midnightblue" d="M113.4,-123.4C104.71,-114.71 93.4,-103.4 83.66,-93.66"/>
<polygon fill="midnightblue" stroke="midnightblue" points="86.12,-91.17 76.58,-86.58 81.17,-96.12 86.12,-91.17"/>
</g>
<!-- Node5 -->
<g id="node5" class="node">
<title>Node5</title>
<g id="a_node5"><a xlink:title=" ">
<polygon fill="white" stroke="#bfbfbf" points="143.5,-62 143.5,-81 241.5,-81 241.5,-62 143.5,-62"/>
<text text-anchor="middle" x="192.5" y="-69" font-family="Helvetica,sans-Serif" font-size="10.00">gnuradio/block.h</text>
</a>
</g>
</g>
<!-- Node2&#45;&gt;Node5 -->
<g id="edge4" class="edge">
<title>Node2&#45;&gt;Node5</title>
<path fill="none" stroke="midnightblue" d="M141.6,-123.4C151.94,-113.06 165.98,-99.02 176.69,-88.31"/>
<polygon fill="midnightblue" stroke="midnightblue" points="179.21,-90.74 183.81,-81.19 174.26,-85.79 179.21,-90.74"/>
</g>
<!-- Node4 -->
<g id="node4" class="node">
<title>Node4</title>
<g id="a_node4"><a xlink:title=" ">
<polygon fill="white" stroke="#bfbfbf" points="3,-0.5 3,-19.5 122,-19.5 122,-0.5 3,-0.5"/>
<text text-anchor="middle" x="62.5" y="-7.5" font-family="Helvetica,sans-Serif" font-size="10.00">gnuradio/attributes.h</text>
</a>
</g>
</g>
<!-- Node3&#45;&gt;Node4 -->
<g id="edge3" class="edge">
<title>Node3&#45;&gt;Node4</title>
<path fill="none" stroke="midnightblue" d="M62.5,-56.4C62.5,-48.47 62.5,-38.46 62.5,-29.86"/>
<polygon fill="midnightblue" stroke="midnightblue" points="66,-29.66 62.5,-19.66 59,-29.66 66,-29.66"/>
</g>
</g>
</svg>
