<?xml version="1.0" encoding="UTF-8" standalone="no"?>
<!DOCTYPE svg PUBLIC "-//W3C//DTD SVG 1.1//EN"
 "http://www.w3.org/Graphics/SVG/1.1/DTD/svg11.dtd">
<!-- Generated by graphviz version 2.43.0 (0)
 -->
<!-- Title: chrono_io.h Pages: 1 -->
<svg width="1581pt" height="140pt"
 viewBox="0.00 0.00 1580.50 140.00" xmlns="http://www.w3.org/2000/svg" xmlns:xlink="http://www.w3.org/1999/xlink">
<g id="graph0" class="graph" transform="scale(1 1) rotate(0) translate(4 136)">
<title>chrono_io.h</title>
<polygon fill="white" stroke="transparent" points="-4,4 -4,-136 1576.5,-136 1576.5,4 -4,4"/>
<!-- Node1 -->
<g id="node1" class="node">
<title>Node1</title>
<g id="a_node1"><a xlink:title=" ">
<polygon fill="#bfbfbf" stroke="black" points="731.5,-112.5 731.5,-131.5 804.5,-131.5 804.5,-112.5 731.5,-112.5"/>
<text text-anchor="middle" x="768" y="-119.5" font-family="Helvetica,sans-Serif" font-size="10.00">chrono_io.h</text>
</a>
</g>
</g>
<!-- Node2 -->
<g id="node2" class="node">
<title>Node2</title>
<g id="a_node2"><a xlink:href="date_8h.html" target="_top" xlink:title=" ">
<polygon fill="white" stroke="black" points="744.5,-56.5 744.5,-75.5 791.5,-75.5 791.5,-56.5 744.5,-56.5"/>
<text text-anchor="middle" x="768" y="-63.5" font-family="Helvetica,sans-Serif" font-size="10.00">date.h</text>
</a>
</g>
</g>
<!-- Node1&#45;&gt;Node2 -->
<g id="edge1" class="edge">
<title>Node1&#45;&gt;Node2</title>
<path fill="none" stroke="midnightblue" d="M768,-112.08C768,-105.01 768,-94.86 768,-85.99"/>
<polygon fill="midnightblue" stroke="midnightblue" points="771.5,-85.75 768,-75.75 764.5,-85.75 771.5,-85.75"/>
</g>
<!-- Node3 -->
<g id="node3" class="node">
<title>Node3</title>
<g id="a_node3"><a xlink:title=" ">
<polygon fill="white" stroke="#bfbfbf" points="0,-0.5 0,-19.5 52,-19.5 52,-0.5 0,-0.5"/>
<text text-anchor="middle" x="26" y="-7.5" font-family="Helvetica,sans-Serif" font-size="10.00">cassert</text>
</a>
</g>
</g>
<!-- Node2&#45;&gt;Node3 -->
<g id="edge2" class="edge">
<title>Node2&#45;&gt;Node3</title>
<path fill="none" stroke="midnightblue" d="M744.33,-65.1C655.64,-65.15 334.68,-62.3 62.34,-19.91"/>
<polygon fill="midnightblue" stroke="midnightblue" points="62.69,-16.42 52.26,-18.32 61.59,-23.33 62.69,-16.42"/>
</g>
<!-- Node4 -->
<g id="node4" class="node">
<title>Node4</title>
<g id="a_node4"><a xlink:title=" ">
<polygon fill="white" stroke="#bfbfbf" points="70,-0.5 70,-19.5 134,-19.5 134,-0.5 70,-0.5"/>
<text text-anchor="middle" x="102" y="-7.5" font-family="Helvetica,sans-Serif" font-size="10.00">algorithm</text>
</a>
</g>
</g>
<!-- Node2&#45;&gt;Node4 -->
<g id="edge3" class="edge">
<title>Node2&#45;&gt;Node4</title>
<path fill="none" stroke="midnightblue" d="M744.31,-64.52C662.41,-62.62 383.59,-54 144.08,-19.95"/>
<polygon fill="midnightblue" stroke="midnightblue" points="144.55,-16.48 134.15,-18.52 143.55,-23.41 144.55,-16.48"/>
</g>
<!-- Node5 -->
<g id="node5" class="node">
<title>Node5</title>
<g id="a_node5"><a xlink:title=" ">
<polygon fill="white" stroke="#bfbfbf" points="152.5,-0.5 152.5,-19.5 201.5,-19.5 201.5,-0.5 152.5,-0.5"/>
<text text-anchor="middle" x="177" y="-7.5" font-family="Helvetica,sans-Serif" font-size="10.00">cctype</text>
</a>
</g>
</g>
<!-- Node2&#45;&gt;Node5 -->
<g id="edge4" class="edge">
<title>Node2&#45;&gt;Node5</title>
<path fill="none" stroke="midnightblue" d="M744.47,-64.59C668.58,-62.98 423.46,-55.31 211.82,-19.81"/>
<polygon fill="midnightblue" stroke="midnightblue" points="212.22,-16.33 201.77,-18.1 211.04,-23.23 212.22,-16.33"/>
</g>
<!-- Node6 -->
<g id="node6" class="node">
<title>Node6</title>
<g id="a_node6"><a xlink:title=" ">
<polygon fill="white" stroke="#bfbfbf" points="220,-0.5 220,-19.5 270,-19.5 270,-0.5 220,-0.5"/>
<text text-anchor="middle" x="245" y="-7.5" font-family="Helvetica,sans-Serif" font-size="10.00">chrono</text>
</a>
</g>
</g>
<!-- Node2&#45;&gt;Node6 -->
<g id="edge5" class="edge">
<title>Node2&#45;&gt;Node6</title>
<path fill="none" stroke="midnightblue" d="M744.4,-64.23C674.75,-61.65 463.94,-51.73 280.26,-19.93"/>
<polygon fill="midnightblue" stroke="midnightblue" points="280.6,-16.44 270.15,-18.16 279.39,-23.34 280.6,-16.44"/>
</g>
<!-- Node7 -->
<g id="node7" class="node">
<title>Node7</title>
<g id="a_node7"><a xlink:title=" ">
<polygon fill="white" stroke="#bfbfbf" points="288,-0.5 288,-19.5 338,-19.5 338,-0.5 288,-0.5"/>
<text text-anchor="middle" x="313" y="-7.5" font-family="Helvetica,sans-Serif" font-size="10.00">climits</text>
</a>
</g>
</g>
<!-- Node2&#45;&gt;Node7 -->
<g id="edge6" class="edge">
<title>Node2&#45;&gt;Node7</title>
<path fill="none" stroke="midnightblue" d="M744.08,-63.72C680.93,-60.08 504.43,-48.16 348.4,-19.99"/>
<polygon fill="midnightblue" stroke="midnightblue" points="348.62,-16.48 338.15,-18.12 347.36,-23.36 348.62,-16.48"/>
</g>
<!-- Node8 -->
<g id="node8" class="node">
<title>Node8</title>
<g id="a_node8"><a xlink:title=" ">
<polygon fill="white" stroke="#bfbfbf" points="356.5,-0.5 356.5,-19.5 403.5,-19.5 403.5,-0.5 356.5,-0.5"/>
<text text-anchor="middle" x="380" y="-7.5" font-family="Helvetica,sans-Serif" font-size="10.00">cmath</text>
</a>
</g>
</g>
<!-- Node2&#45;&gt;Node8 -->
<g id="edge7" class="edge">
<title>Node2&#45;&gt;Node8</title>
<path fill="none" stroke="midnightblue" d="M744.48,-63.24C688.63,-58.81 543.56,-45.8 413.78,-20.11"/>
<polygon fill="midnightblue" stroke="midnightblue" points="414.16,-16.62 403.67,-18.08 412.78,-23.48 414.16,-16.62"/>
</g>
<!-- Node9 -->
<g id="node9" class="node">
<title>Node9</title>
<g id="a_node9"><a xlink:title=" ">
<polygon fill="white" stroke="#bfbfbf" points="421.5,-0.5 421.5,-19.5 474.5,-19.5 474.5,-0.5 421.5,-0.5"/>
<text text-anchor="middle" x="448" y="-7.5" font-family="Helvetica,sans-Serif" font-size="10.00">cstddef</text>
</a>
</g>
</g>
<!-- Node2&#45;&gt;Node9 -->
<g id="edge8" class="edge">
<title>Node2&#45;&gt;Node9</title>
<path fill="none" stroke="midnightblue" d="M744.31,-61.96C696.94,-55.74 587.03,-40.53 484.57,-19.95"/>
<polygon fill="midnightblue" stroke="midnightblue" points="485.17,-16.51 474.68,-17.95 483.78,-23.37 485.17,-16.51"/>
</g>
<!-- Node10 -->
<g id="node10" class="node">
<title>Node10</title>
<g id="a_node10"><a xlink:title=" ">
<polygon fill="white" stroke="#bfbfbf" points="493,-0.5 493,-19.5 543,-19.5 543,-0.5 493,-0.5"/>
<text text-anchor="middle" x="518" y="-7.5" font-family="Helvetica,sans-Serif" font-size="10.00">cstdint</text>
</a>
</g>
</g>
<!-- Node2&#45;&gt;Node10 -->
<g id="edge9" class="edge">
<title>Node2&#45;&gt;Node10</title>
<path fill="none" stroke="midnightblue" d="M744.26,-60.48C706.1,-53.13 628.57,-37.82 553.33,-20.22"/>
<polygon fill="midnightblue" stroke="midnightblue" points="553.75,-16.72 543.21,-17.83 552.14,-23.54 553.75,-16.72"/>
</g>
<!-- Node11 -->
<g id="node11" class="node">
<title>Node11</title>
<g id="a_node11"><a xlink:title=" ">
<polygon fill="white" stroke="#bfbfbf" points="561.5,-0.5 561.5,-19.5 610.5,-19.5 610.5,-0.5 561.5,-0.5"/>
<text text-anchor="middle" x="586" y="-7.5" font-family="Helvetica,sans-Serif" font-size="10.00">cstdlib</text>
</a>
</g>
</g>
<!-- Node2&#45;&gt;Node11 -->
<g id="edge10" class="edge">
<title>Node2&#45;&gt;Node11</title>
<path fill="none" stroke="midnightblue" d="M744.21,-57.94C712.59,-48.56 656.51,-31.92 620.32,-21.18"/>
<polygon fill="midnightblue" stroke="midnightblue" points="621.26,-17.81 610.67,-18.32 619.26,-24.52 621.26,-17.81"/>
</g>
<!-- Node12 -->
<g id="node12" class="node">
<title>Node12</title>
<g id="a_node12"><a xlink:title=" ">
<polygon fill="white" stroke="#bfbfbf" points="629,-0.5 629,-19.5 673,-19.5 673,-0.5 629,-0.5"/>
<text text-anchor="middle" x="651" y="-7.5" font-family="Helvetica,sans-Serif" font-size="10.00">ctime</text>
</a>
</g>
</g>
<!-- Node2&#45;&gt;Node12 -->
<g id="edge11" class="edge">
<title>Node2&#45;&gt;Node12</title>
<path fill="none" stroke="midnightblue" d="M749.46,-56.44C730.38,-47.64 700.43,-33.81 678.56,-23.72"/>
<polygon fill="midnightblue" stroke="midnightblue" points="680,-20.53 669.45,-19.52 677.07,-26.88 680,-20.53"/>
</g>
<!-- Node13 -->
<g id="node13" class="node">
<title>Node13</title>
<g id="a_node13"><a xlink:title=" ">
<polygon fill="white" stroke="#bfbfbf" points="691.5,-0.5 691.5,-19.5 722.5,-19.5 722.5,-0.5 691.5,-0.5"/>
<text text-anchor="middle" x="707" y="-7.5" font-family="Helvetica,sans-Serif" font-size="10.00">ios</text>
</a>
</g>
</g>
<!-- Node2&#45;&gt;Node13 -->
<g id="edge12" class="edge">
<title>Node2&#45;&gt;Node13</title>
<path fill="none" stroke="midnightblue" d="M758.2,-56.32C749.18,-48.34 735.59,-36.31 724.68,-26.65"/>
<polygon fill="midnightblue" stroke="midnightblue" points="726.79,-23.84 716.98,-19.83 722.15,-29.08 726.79,-23.84"/>
</g>
<!-- Node14 -->
<g id="node14" class="node">
<title>Node14</title>
<g id="a_node14"><a xlink:title=" ">
<polygon fill="white" stroke="#bfbfbf" points="741,-0.5 741,-19.5 795,-19.5 795,-0.5 741,-0.5"/>
<text text-anchor="middle" x="768" y="-7.5" font-family="Helvetica,sans-Serif" font-size="10.00">istream</text>
</a>
</g>
</g>
<!-- Node2&#45;&gt;Node14 -->
<g id="edge13" class="edge">
<title>Node2&#45;&gt;Node14</title>
<path fill="none" stroke="midnightblue" d="M768,-56.08C768,-49.01 768,-38.86 768,-29.99"/>
<polygon fill="midnightblue" stroke="midnightblue" points="771.5,-29.75 768,-19.75 764.5,-29.75 771.5,-29.75"/>
</g>
<!-- Node15 -->
<g id="node15" class="node">
<title>Node15</title>
<g id="a_node15"><a xlink:title=" ">
<polygon fill="white" stroke="#bfbfbf" points="813.5,-0.5 813.5,-19.5 866.5,-19.5 866.5,-0.5 813.5,-0.5"/>
<text text-anchor="middle" x="840" y="-7.5" font-family="Helvetica,sans-Serif" font-size="10.00">iterator</text>
</a>
</g>
</g>
<!-- Node2&#45;&gt;Node15 -->
<g id="edge14" class="edge">
<title>Node2&#45;&gt;Node15</title>
<path fill="none" stroke="midnightblue" d="M779.57,-56.32C790.42,-48.18 806.88,-35.84 819.88,-26.09"/>
<polygon fill="midnightblue" stroke="midnightblue" points="822.32,-28.63 828.22,-19.83 818.12,-23.03 822.32,-28.63"/>
</g>
<!-- Node16 -->
<g id="node16" class="node">
<title>Node16</title>
<g id="a_node16"><a xlink:title=" ">
<polygon fill="white" stroke="#bfbfbf" points="885,-0.5 885,-19.5 929,-19.5 929,-0.5 885,-0.5"/>
<text text-anchor="middle" x="907" y="-7.5" font-family="Helvetica,sans-Serif" font-size="10.00">limits</text>
</a>
</g>
</g>
<!-- Node2&#45;&gt;Node16 -->
<g id="edge15" class="edge">
<title>Node2&#45;&gt;Node16</title>
<path fill="none" stroke="midnightblue" d="M790.02,-56.44C813.1,-47.48 849.56,-33.31 875.64,-23.18"/>
<polygon fill="midnightblue" stroke="midnightblue" points="877.02,-26.4 885.08,-19.52 874.49,-19.88 877.02,-26.4"/>
</g>
<!-- Node17 -->
<g id="node17" class="node">
<title>Node17</title>
<g id="a_node17"><a xlink:title=" ">
<polygon fill="white" stroke="#bfbfbf" points="947,-0.5 947,-19.5 993,-19.5 993,-0.5 947,-0.5"/>
<text text-anchor="middle" x="970" y="-7.5" font-family="Helvetica,sans-Serif" font-size="10.00">locale</text>
</a>
</g>
</g>
<!-- Node2&#45;&gt;Node17 -->
<g id="edge16" class="edge">
<title>Node2&#45;&gt;Node17</title>
<path fill="none" stroke="midnightblue" d="M791.68,-58.85C822.82,-50.75 879.48,-35.9 937.28,-20.17"/>
<polygon fill="midnightblue" stroke="midnightblue" points="938.21,-23.54 946.94,-17.53 936.37,-16.79 938.21,-23.54"/>
</g>
<!-- Node18 -->
<g id="node18" class="node">
<title>Node18</title>
<g id="a_node18"><a xlink:title=" ">
<polygon fill="white" stroke="#bfbfbf" points="1011,-0.5 1011,-19.5 1069,-19.5 1069,-0.5 1011,-0.5"/>
<text text-anchor="middle" x="1040" y="-7.5" font-family="Helvetica,sans-Serif" font-size="10.00">memory</text>
</a>
</g>
</g>
<!-- Node2&#45;&gt;Node18 -->
<g id="edge17" class="edge">
<title>Node2&#45;&gt;Node18</title>
<path fill="none" stroke="midnightblue" d="M791.65,-60.8C832.35,-53.49 918.46,-37.7 1001.18,-20.11"/>
<polygon fill="midnightblue" stroke="midnightblue" points="1001.94,-23.52 1010.98,-18.01 1000.47,-16.68 1001.94,-23.52"/>
</g>
<!-- Node19 -->
<g id="node19" class="node">
<title>Node19</title>
<g id="a_node19"><a xlink:title=" ">
<polygon fill="white" stroke="#bfbfbf" points="1087.5,-0.5 1087.5,-19.5 1144.5,-19.5 1144.5,-0.5 1087.5,-0.5"/>
<text text-anchor="middle" x="1116" y="-7.5" font-family="Helvetica,sans-Serif" font-size="10.00">ostream</text>
</a>
</g>
</g>
<!-- Node2&#45;&gt;Node19 -->
<g id="edge18" class="edge">
<title>Node2&#45;&gt;Node19</title>
<path fill="none" stroke="midnightblue" d="M791.84,-62.27C842.51,-56.31 964.77,-41.11 1077.59,-19.92"/>
<polygon fill="midnightblue" stroke="midnightblue" points="1078.25,-23.36 1087.42,-18.05 1076.95,-16.48 1078.25,-23.36"/>
</g>
<!-- Node20 -->
<g id="node20" class="node">
<title>Node20</title>
<g id="a_node20"><a xlink:title=" ">
<polygon fill="white" stroke="#bfbfbf" points="1162.5,-0.5 1162.5,-19.5 1201.5,-19.5 1201.5,-0.5 1162.5,-0.5"/>
<text text-anchor="middle" x="1182" y="-7.5" font-family="Helvetica,sans-Serif" font-size="10.00">ratio</text>
</a>
</g>
</g>
<!-- Node2&#45;&gt;Node20 -->
<g id="edge19" class="edge">
<title>Node2&#45;&gt;Node20</title>
<path fill="none" stroke="midnightblue" d="M791.76,-63.84C851.19,-60.61 1011.1,-49.83 1152.13,-20.05"/>
<polygon fill="midnightblue" stroke="midnightblue" points="1153.2,-23.4 1162.25,-17.88 1151.73,-16.56 1153.2,-23.4"/>
</g>
<!-- Node21 -->
<g id="node21" class="node">
<title>Node21</title>
<g id="a_node21"><a xlink:title=" ">
<polygon fill="white" stroke="#bfbfbf" points="1220,-0.5 1220,-19.5 1276,-19.5 1276,-0.5 1220,-0.5"/>
<text text-anchor="middle" x="1248" y="-7.5" font-family="Helvetica,sans-Serif" font-size="10.00">sstream</text>
</a>
</g>
</g>
<!-- Node2&#45;&gt;Node21 -->
<g id="edge20" class="edge">
<title>Node2&#45;&gt;Node21</title>
<path fill="none" stroke="midnightblue" d="M791.69,-63.74C856.83,-60.04 1044.24,-47.77 1209.45,-20.04"/>
<polygon fill="midnightblue" stroke="midnightblue" points="1210.53,-23.41 1219.8,-18.28 1209.36,-16.51 1210.53,-23.41"/>
</g>
<!-- Node22 -->
<g id="node22" class="node">
<title>Node22</title>
<g id="a_node22"><a xlink:title=" ">
<polygon fill="white" stroke="#bfbfbf" points="1294.5,-0.5 1294.5,-19.5 1359.5,-19.5 1359.5,-0.5 1294.5,-0.5"/>
<text text-anchor="middle" x="1327" y="-7.5" font-family="Helvetica,sans-Serif" font-size="10.00">stdexcept</text>
</a>
</g>
</g>
<!-- Node2&#45;&gt;Node22 -->
<g id="edge21" class="edge">
<title>Node2&#45;&gt;Node22</title>
<path fill="none" stroke="midnightblue" d="M791.57,-63.99C863.75,-60.69 1088.26,-48.78 1284.16,-19.94"/>
<polygon fill="midnightblue" stroke="midnightblue" points="1284.68,-23.4 1294.06,-18.46 1283.65,-16.48 1284.68,-23.4"/>
</g>
<!-- Node23 -->
<g id="node23" class="node">
<title>Node23</title>
<g id="a_node23"><a xlink:title=" ">
<polygon fill="white" stroke="#bfbfbf" points="1378,-0.5 1378,-19.5 1422,-19.5 1422,-0.5 1378,-0.5"/>
<text text-anchor="middle" x="1400" y="-7.5" font-family="Helvetica,sans-Serif" font-size="10.00">string</text>
</a>
</g>
</g>
<!-- Node2&#45;&gt;Node23 -->
<g id="edge22" class="edge">
<title>Node2&#45;&gt;Node23</title>
<path fill="none" stroke="midnightblue" d="M791.71,-64.99C871.72,-64.57 1139.11,-60.2 1367.62,-19.87"/>
<polygon fill="midnightblue" stroke="midnightblue" points="1368.56,-23.26 1377.78,-18.05 1367.32,-16.37 1368.56,-23.26"/>
</g>
<!-- Node24 -->
<g id="node24" class="node">
<title>Node24</title>
<g id="a_node24"><a xlink:title=" ">
<polygon fill="white" stroke="#bfbfbf" points="1440.5,-0.5 1440.5,-19.5 1485.5,-19.5 1485.5,-0.5 1440.5,-0.5"/>
<text text-anchor="middle" x="1463" y="-7.5" font-family="Helvetica,sans-Serif" font-size="10.00">utility</text>
</a>
</g>
</g>
<!-- Node2&#45;&gt;Node24 -->
<g id="edge23" class="edge">
<title>Node2&#45;&gt;Node24</title>
<path fill="none" stroke="midnightblue" d="M791.7,-65.15C876.91,-65.32 1175.71,-62.76 1430.23,-19.72"/>
<polygon fill="midnightblue" stroke="midnightblue" points="1431.14,-23.12 1440.41,-17.98 1429.96,-16.22 1431.14,-23.12"/>
</g>
<!-- Node25 -->
<g id="node25" class="node">
<title>Node25</title>
<g id="a_node25"><a xlink:title=" ">
<polygon fill="white" stroke="#bfbfbf" points="1503.5,-0.5 1503.5,-19.5 1572.5,-19.5 1572.5,-0.5 1503.5,-0.5"/>
<text text-anchor="middle" x="1538" y="-7.5" font-family="Helvetica,sans-Serif" font-size="10.00">type_traits</text>
</a>
</g>
</g>
<!-- Node2&#45;&gt;Node25 -->
<g id="edge24" class="edge">
<title>Node2&#45;&gt;Node25</title>
<path fill="none" stroke="midnightblue" d="M791.66,-64.78C881.79,-63.66 1212.36,-57.21 1493.37,-20.04"/>
<polygon fill="midnightblue" stroke="midnightblue" points="1493.89,-23.5 1503.34,-18.7 1492.96,-16.56 1493.89,-23.5"/>
</g>
</g>
</svg>
