<?xml version="1.0" encoding="UTF-8" standalone="no"?>
<!DOCTYPE svg PUBLIC "-//W3C//DTD SVG 1.1//EN"
 "http://www.w3.org/Graphics/SVG/1.1/DTD/svg11.dtd">
<!-- Generated by graphviz version 2.43.0 (0)
 -->
<!-- Title: gr::aff3ct_codes::Tag_FrameASM64_ff Pages: 1 -->
<svg width="134pt" height="162pt"
 viewBox="0.00 0.00 134.00 162.00" xmlns="http://www.w3.org/2000/svg" xmlns:xlink="http://www.w3.org/1999/xlink">
<g id="graph0" class="graph" transform="scale(1 1) rotate(0) translate(4 158)">
<title>gr::aff3ct_codes::Tag_FrameASM64_ff</title>
<polygon fill="white" stroke="transparent" points="-4,4 -4,-158 130,-158 130,4 -4,4"/>
<!-- Node1 -->
<g id="node1" class="node">
<title>Node1</title>
<g id="a_node1"><a xlink:title="&lt;+description of block+&gt;">
<polygon fill="#bfbfbf" stroke="black" points="4.5,-67.5 4.5,-97.5 121.5,-97.5 121.5,-67.5 4.5,-67.5"/>
<text text-anchor="start" x="12.5" y="-85.5" font-family="Helvetica,sans-Serif" font-size="10.00">gr::aff3ct_codes::Tag</text>
<text text-anchor="middle" x="63" y="-74.5" font-family="Helvetica,sans-Serif" font-size="10.00">_FrameASM64_ff</text>
</a>
</g>
</g>
<!-- Node3 -->
<g id="node3" class="node">
<title>Node3</title>
<g id="a_node3"><a xlink:href="classgr_1_1aff3ct__codes_1_1Tag__FrameASM64__ff__impl.html" target="_top" xlink:title=" ">
<polygon fill="white" stroke="black" points="0,-0.5 0,-30.5 126,-30.5 126,-0.5 0,-0.5"/>
<text text-anchor="start" x="8" y="-18.5" font-family="Helvetica,sans-Serif" font-size="10.00">gr::aff3ct_codes::Tag</text>
<text text-anchor="middle" x="63" y="-7.5" font-family="Helvetica,sans-Serif" font-size="10.00">_FrameASM64_ff_impl</text>
</a>
</g>
</g>
<!-- Node1&#45;&gt;Node3 -->
<g id="edge2" class="edge">
<title>Node1&#45;&gt;Node3</title>
<path fill="none" stroke="midnightblue" d="M63,-57.11C63,-48.15 63,-38.32 63,-30.58"/>
<polygon fill="midnightblue" stroke="midnightblue" points="59.5,-57.4 63,-67.4 66.5,-57.4 59.5,-57.4"/>
</g>
<!-- Node2 -->
<g id="node2" class="node">
<title>Node2</title>
<g id="a_node2"><a xlink:title=" ">
<polygon fill="white" stroke="#bfbfbf" points="20,-134.5 20,-153.5 106,-153.5 106,-134.5 20,-134.5"/>
<text text-anchor="middle" x="63" y="-141.5" font-family="Helvetica,sans-Serif" font-size="10.00">gr::sync_block</text>
</a>
</g>
</g>
<!-- Node2&#45;&gt;Node1 -->
<g id="edge1" class="edge">
<title>Node2&#45;&gt;Node1</title>
<path fill="none" stroke="midnightblue" d="M63,-124.23C63,-115.59 63,-105.5 63,-97.52"/>
<polygon fill="midnightblue" stroke="midnightblue" points="59.5,-124.48 63,-134.48 66.5,-124.48 59.5,-124.48"/>
</g>
</g>
</svg>
