<?xml version="1.0" encoding="UTF-8" standalone="no"?>
<!DOCTYPE svg PUBLIC "-//W3C//DTD SVG 1.1//EN"
 "http://www.w3.org/Graphics/SVG/1.1/DTD/svg11.dtd">
<!-- Generated by graphviz version 2.43.0 (0)
 -->
<!-- Title: date::detail::time_of_day_storage&lt; std::chrono::duration&lt; Rep, Period &gt;, detail::classify::minute &gt; Pages: 1 -->
<svg width="147pt" height="139pt"
 viewBox="0.00 0.00 147.00 139.00" xmlns="http://www.w3.org/2000/svg" xmlns:xlink="http://www.w3.org/1999/xlink">
<g id="graph0" class="graph" transform="scale(1 1) rotate(0) translate(4 135)">
<title>date::detail::time_of_day_storage&lt; std::chrono::duration&lt; Rep, Period &gt;, detail::classify::minute &gt;</title>
<polygon fill="white" stroke="transparent" points="-4,4 -4,-135 143,-135 143,4 -4,4"/>
<!-- Node1 -->
<g id="node1" class="node">
<title>Node1</title>
<g id="a_node1"><a xlink:title=" ">
<polygon fill="#bfbfbf" stroke="black" points="0,-0.5 0,-63.5 139,-63.5 139,-0.5 0,-0.5"/>
<text text-anchor="start" x="8" y="-51.5" font-family="Helvetica,sans-Serif" font-size="10.00">date::detail::time</text>
<text text-anchor="start" x="8" y="-40.5" font-family="Helvetica,sans-Serif" font-size="10.00">_of_day_storage&lt; std</text>
<text text-anchor="start" x="8" y="-29.5" font-family="Helvetica,sans-Serif" font-size="10.00">::chrono::duration&lt; Rep,</text>
<text text-anchor="start" x="8" y="-18.5" font-family="Helvetica,sans-Serif" font-size="10.00"> Period &gt;, detail::classify</text>
<text text-anchor="middle" x="69.5" y="-7.5" font-family="Helvetica,sans-Serif" font-size="10.00">::minute &gt;</text>
</a>
</g>
</g>
<!-- Node2 -->
<g id="node2" class="node">
<title>Node2</title>
<g id="a_node2"><a xlink:href="classdate_1_1detail_1_1time__of__day__base.html" target="_top" xlink:title=" ">
<polygon fill="white" stroke="black" points="19,-100.5 19,-130.5 120,-130.5 120,-100.5 19,-100.5"/>
<text text-anchor="start" x="27" y="-118.5" font-family="Helvetica,sans-Serif" font-size="10.00">date::detail::time</text>
<text text-anchor="middle" x="69.5" y="-107.5" font-family="Helvetica,sans-Serif" font-size="10.00">_of_day_base</text>
</a>
</g>
</g>
<!-- Node2&#45;&gt;Node1 -->
<g id="edge1" class="edge">
<title>Node2&#45;&gt;Node1</title>
<path fill="none" stroke="#8b1a1a" d="M69.5,-90.12C69.5,-81.78 69.5,-72.34 69.5,-63.57"/>
<polygon fill="#8b1a1a" stroke="#8b1a1a" points="66,-90.3 69.5,-100.3 73,-90.3 66,-90.3"/>
</g>
</g>
</svg>
