<?xml version="1.0" encoding="UTF-8" standalone="no"?>
<!DOCTYPE svg PUBLIC "-//W3C//DTD SVG 1.1//EN"
 "http://www.w3.org/Graphics/SVG/1.1/DTD/svg11.dtd">
<!-- Generated by graphviz version 2.43.0 (0)
 -->
<!-- Title: decoder_polar_functions.h Pages: 1 -->
<svg width="1110pt" height="95pt"
 viewBox="0.00 0.00 1109.50 95.00" xmlns="http://www.w3.org/2000/svg" xmlns:xlink="http://www.w3.org/1999/xlink">
<g id="graph0" class="graph" transform="scale(1 1) rotate(0) translate(4 91)">
<title>decoder_polar_functions.h</title>
<polygon fill="white" stroke="transparent" points="-4,4 -4,-91 1105.5,-91 1105.5,4 -4,4"/>
<!-- Node1 -->
<g id="node1" class="node">
<title>Node1</title>
<g id="a_node1"><a xlink:title="Functions for Polar decoders.">
<polygon fill="#bfbfbf" stroke="black" points="483.5,-67.5 483.5,-86.5 628.5,-86.5 628.5,-67.5 483.5,-67.5"/>
<text text-anchor="middle" x="556" y="-74.5" font-family="Helvetica,sans-Serif" font-size="10.00">decoder_polar_functions.h</text>
</a>
</g>
</g>
<!-- Node2 -->
<g id="node2" class="node">
<title>Node2</title>
<g id="a_node2"><a xlink:href="functions__polar__inter_8h.html" target="_top" xlink:title="Functions for the Polar API in inter&#45;SIMD.">
<polygon fill="white" stroke="black" points="0,-6 0,-25 128,-25 128,-6 0,-6"/>
<text text-anchor="middle" x="64" y="-13" font-family="Helvetica,sans-Serif" font-size="10.00">functions_polar_inter.h</text>
</a>
</g>
</g>
<!-- Node1&#45;&gt;Node2 -->
<g id="edge1" class="edge">
<title>Node1&#45;&gt;Node2</title>
<path fill="none" stroke="midnightblue" d="M473.38,-69.32C388.67,-61.95 253.24,-48.75 137,-31 126.14,-29.34 114.45,-27.19 103.67,-25.05"/>
<polygon fill="midnightblue" stroke="midnightblue" points="473.19,-72.81 483.46,-70.18 473.79,-65.84 473.19,-72.81"/>
</g>
<!-- Node3 -->
<g id="node3" class="node">
<title>Node3</title>
<g id="a_node3"><a xlink:href="functions__polar__inter__8bit__bitpacking_8h.html" target="_top" xlink:title="Functions for the Polar API in inter&#45;SIMD (8&#45;bit).">
<polygon fill="white" stroke="black" points="146.5,-0.5 146.5,-30.5 265.5,-30.5 265.5,-0.5 146.5,-0.5"/>
<text text-anchor="start" x="154.5" y="-18.5" font-family="Helvetica,sans-Serif" font-size="10.00">functions_polar_inter</text>
<text text-anchor="middle" x="206" y="-7.5" font-family="Helvetica,sans-Serif" font-size="10.00">_8bit_bitpacking.h</text>
</a>
</g>
</g>
<!-- Node1&#45;&gt;Node3 -->
<g id="edge2" class="edge">
<title>Node1&#45;&gt;Node3</title>
<path fill="none" stroke="midnightblue" d="M486.96,-66C429.77,-57.48 346.42,-44.49 274,-31 271.27,-30.49 268.48,-29.96 265.67,-29.41"/>
<polygon fill="midnightblue" stroke="midnightblue" points="486.57,-69.48 496.97,-67.49 487.6,-62.56 486.57,-69.48"/>
</g>
<!-- Node4 -->
<g id="node4" class="node">
<title>Node4</title>
<g id="a_node4"><a xlink:href="functions__polar__inter__intra_8h.html" target="_top" xlink:title="Functions for the Polar API in inter/intra&#45;SIMD.">
<polygon fill="white" stroke="black" points="283.5,-0.5 283.5,-30.5 402.5,-30.5 402.5,-0.5 283.5,-0.5"/>
<text text-anchor="start" x="291.5" y="-18.5" font-family="Helvetica,sans-Serif" font-size="10.00">functions_polar_inter</text>
<text text-anchor="middle" x="343" y="-7.5" font-family="Helvetica,sans-Serif" font-size="10.00">_intra.h</text>
</a>
</g>
</g>
<!-- Node1&#45;&gt;Node4 -->
<g id="edge3" class="edge">
<title>Node1&#45;&gt;Node4</title>
<path fill="none" stroke="midnightblue" d="M515.67,-64.73C480.91,-55.02 430.57,-40.96 393.2,-30.52"/>
<polygon fill="midnightblue" stroke="midnightblue" points="514.91,-68.16 525.48,-67.48 516.79,-61.41 514.91,-68.16"/>
</g>
<!-- Node5 -->
<g id="node5" class="node">
<title>Node5</title>
<g id="a_node5"><a xlink:href="functions__polar__intra_8h.html" target="_top" xlink:title="Functions for the Polar API in intra&#45;SIMD.">
<polygon fill="white" stroke="black" points="421,-6 421,-25 549,-25 549,-6 421,-6"/>
<text text-anchor="middle" x="485" y="-13" font-family="Helvetica,sans-Serif" font-size="10.00">functions_polar_intra.h</text>
</a>
</g>
</g>
<!-- Node1&#45;&gt;Node5 -->
<g id="edge4" class="edge">
<title>Node1&#45;&gt;Node5</title>
<path fill="none" stroke="midnightblue" d="M538.07,-60.97C524.49,-49.59 506.32,-34.37 495.15,-25.01"/>
<polygon fill="midnightblue" stroke="midnightblue" points="535.91,-63.73 545.83,-67.48 540.41,-58.37 535.91,-63.73"/>
</g>
<!-- Node6 -->
<g id="node6" class="node">
<title>Node6</title>
<g id="a_node6"><a xlink:href="functions__polar__intra__16bit_8h.html" target="_top" xlink:title="Functions for the Polar API in intra&#45;SIMD (16&#45;bit).">
<polygon fill="white" stroke="black" points="567.5,-0.5 567.5,-30.5 686.5,-30.5 686.5,-0.5 567.5,-0.5"/>
<text text-anchor="start" x="575.5" y="-18.5" font-family="Helvetica,sans-Serif" font-size="10.00">functions_polar_intra</text>
<text text-anchor="middle" x="627" y="-7.5" font-family="Helvetica,sans-Serif" font-size="10.00">_16bit.h</text>
</a>
</g>
</g>
<!-- Node1&#45;&gt;Node6 -->
<g id="edge5" class="edge">
<title>Node1&#45;&gt;Node6</title>
<path fill="none" stroke="midnightblue" d="M573.99,-60.92C585.14,-51.58 599.36,-39.66 610.27,-30.52"/>
<polygon fill="midnightblue" stroke="midnightblue" points="571.59,-58.37 566.17,-67.48 576.09,-63.73 571.59,-58.37"/>
</g>
<!-- Node7 -->
<g id="node7" class="node">
<title>Node7</title>
<g id="a_node7"><a xlink:href="functions__polar__intra__32bit_8h.html" target="_top" xlink:title="Functions for the Polar API in intra&#45;SIMD (32&#45;bit).">
<polygon fill="white" stroke="black" points="704.5,-0.5 704.5,-30.5 823.5,-30.5 823.5,-0.5 704.5,-0.5"/>
<text text-anchor="start" x="712.5" y="-18.5" font-family="Helvetica,sans-Serif" font-size="10.00">functions_polar_intra</text>
<text text-anchor="middle" x="764" y="-7.5" font-family="Helvetica,sans-Serif" font-size="10.00">_32bit.h</text>
</a>
</g>
</g>
<!-- Node1&#45;&gt;Node7 -->
<g id="edge6" class="edge">
<title>Node1&#45;&gt;Node7</title>
<path fill="none" stroke="midnightblue" d="M595.82,-64.61C629.75,-54.9 678.65,-40.92 714.98,-30.52"/>
<polygon fill="midnightblue" stroke="midnightblue" points="594.45,-61.36 585.8,-67.48 596.38,-68.09 594.45,-61.36"/>
</g>
<!-- Node8 -->
<g id="node8" class="node">
<title>Node8</title>
<g id="a_node8"><a xlink:href="functions__polar__intra__8bit_8h.html" target="_top" xlink:title="Functions for the Polar API in intra&#45;SIMD (8&#45;bit).">
<polygon fill="white" stroke="black" points="841.5,-0.5 841.5,-30.5 960.5,-30.5 960.5,-0.5 841.5,-0.5"/>
<text text-anchor="start" x="849.5" y="-18.5" font-family="Helvetica,sans-Serif" font-size="10.00">functions_polar_intra</text>
<text text-anchor="middle" x="901" y="-7.5" font-family="Helvetica,sans-Serif" font-size="10.00">_8bit.h</text>
</a>
</g>
</g>
<!-- Node1&#45;&gt;Node8 -->
<g id="edge7" class="edge">
<title>Node1&#45;&gt;Node8</title>
<path fill="none" stroke="midnightblue" d="M623.89,-65.92C680.06,-57.35 761.89,-44.35 833,-31 835.73,-30.49 838.52,-29.95 841.33,-29.4"/>
<polygon fill="midnightblue" stroke="midnightblue" points="623.07,-62.51 613.71,-67.47 624.12,-69.43 623.07,-62.51"/>
</g>
<!-- Node9 -->
<g id="node9" class="node">
<title>Node9</title>
<g id="a_node9"><a xlink:href="functions__polar__seq_8h.html" target="_top" xlink:title="Functions for the Polar API in sequential.">
<polygon fill="white" stroke="black" points="978.5,-6 978.5,-25 1101.5,-25 1101.5,-6 978.5,-6"/>
<text text-anchor="middle" x="1040" y="-13" font-family="Helvetica,sans-Serif" font-size="10.00">functions_polar_seq.h</text>
</a>
</g>
</g>
<!-- Node1&#45;&gt;Node9 -->
<g id="edge8" class="edge">
<title>Node1&#45;&gt;Node9</title>
<path fill="none" stroke="midnightblue" d="M638.79,-69.36C722.59,-62.08 855.73,-49 970,-31 980.42,-29.36 991.64,-27.21 1001.98,-25.07"/>
<polygon fill="midnightblue" stroke="midnightblue" points="638.48,-65.87 628.82,-70.21 639.09,-72.84 638.48,-65.87"/>
</g>
</g>
</svg>
