<?xml version="1.0" encoding="UTF-8" standalone="no"?>
<!DOCTYPE svg PUBLIC "-//W3C//DTD SVG 1.1//EN"
 "http://www.w3.org/Graphics/SVG/1.1/DTD/svg11.dtd">
<!-- Generated by graphviz version 2.43.0 (0)
 -->
<!-- Title: decoder_polar_functions.h Pages: 1 -->
<svg width="1196pt" height="207pt"
 viewBox="0.00 0.00 1196.00 207.00" xmlns="http://www.w3.org/2000/svg" xmlns:xlink="http://www.w3.org/1999/xlink">
<g id="graph0" class="graph" transform="scale(1 1) rotate(0) translate(4 203)">
<title>decoder_polar_functions.h</title>
<polygon fill="white" stroke="transparent" points="-4,4 -4,-203 1192,-203 1192,4 -4,4"/>
<!-- Node1 -->
<g id="node1" class="node">
<title>Node1</title>
<g id="a_node1"><a xlink:title="Functions for Polar decoders.">
<polygon fill="#bfbfbf" stroke="black" points="661.5,-179.5 661.5,-198.5 806.5,-198.5 806.5,-179.5 661.5,-179.5"/>
<text text-anchor="middle" x="734" y="-186.5" font-family="Helvetica,sans-Serif" font-size="10.00">decoder_polar_functions.h</text>
</a>
</g>
</g>
<!-- Node2 -->
<g id="node2" class="node">
<title>Node2</title>
<g id="a_node2"><a xlink:href="mipp_8h.html" target="_top" xlink:title=" ">
<polygon fill="white" stroke="black" points="633,-118 633,-137 683,-137 683,-118 633,-118"/>
<text text-anchor="middle" x="658" y="-125" font-family="Helvetica,sans-Serif" font-size="10.00">mipp.h</text>
</a>
</g>
</g>
<!-- Node1&#45;&gt;Node2 -->
<g id="edge1" class="edge">
<title>Node1&#45;&gt;Node2</title>
<path fill="none" stroke="midnightblue" d="M723.11,-179.48C711.03,-170.02 691.33,-154.6 676.76,-143.19"/>
<polygon fill="midnightblue" stroke="midnightblue" points="678.9,-140.42 668.87,-137.01 674.59,-145.93 678.9,-140.42"/>
</g>
<!-- Node19 -->
<g id="node19" class="node">
<title>Node19</title>
<g id="a_node19"><a xlink:title=" ">
<polygon fill="white" stroke="#bfbfbf" points="701.5,-118 701.5,-137 766.5,-137 766.5,-118 701.5,-118"/>
<text text-anchor="middle" x="734" y="-125" font-family="Helvetica,sans-Serif" font-size="10.00">functional</text>
</a>
</g>
</g>
<!-- Node1&#45;&gt;Node19 -->
<g id="edge18" class="edge">
<title>Node1&#45;&gt;Node19</title>
<path fill="none" stroke="midnightblue" d="M734,-179.48C734,-171.08 734,-157.98 734,-147.16"/>
<polygon fill="midnightblue" stroke="midnightblue" points="737.5,-147.01 734,-137.01 730.5,-147.01 737.5,-147.01"/>
</g>
<!-- Node20 -->
<g id="node20" class="node">
<title>Node20</title>
<g id="a_node20"><a xlink:title=" ">
<polygon fill="white" stroke="#bfbfbf" points="784.5,-112.5 784.5,-142.5 923.5,-142.5 923.5,-112.5 784.5,-112.5"/>
<text text-anchor="start" x="792.5" y="-130.5" font-family="Helvetica,sans-Serif" font-size="10.00">Tools/Code/Polar/decoder</text>
<text text-anchor="middle" x="854" y="-119.5" font-family="Helvetica,sans-Serif" font-size="10.00">_polar_functions.hxx</text>
</a>
</g>
</g>
<!-- Node1&#45;&gt;Node20 -->
<g id="edge19" class="edge">
<title>Node1&#45;&gt;Node20</title>
<path fill="none" stroke="midnightblue" d="M751.19,-179.48C768.2,-171.04 794.8,-157.86 816.67,-147.01"/>
<polygon fill="midnightblue" stroke="midnightblue" points="818.31,-150.1 825.72,-142.52 815.2,-143.83 818.31,-150.1"/>
</g>
<!-- Node3 -->
<g id="node3" class="node">
<title>Node3</title>
<g id="a_node3"><a xlink:href="mipp__scalar__op_8h.html" target="_top" xlink:title=" ">
<polygon fill="white" stroke="black" points="6,-56.5 6,-75.5 108,-75.5 108,-56.5 6,-56.5"/>
<text text-anchor="middle" x="57" y="-63.5" font-family="Helvetica,sans-Serif" font-size="10.00">mipp_scalar_op.h</text>
</a>
</g>
</g>
<!-- Node2&#45;&gt;Node3 -->
<g id="edge2" class="edge">
<title>Node2&#45;&gt;Node3</title>
<path fill="none" stroke="midnightblue" d="M632.92,-124.63C557.13,-118.89 323.64,-100.45 118.29,-75.97"/>
<polygon fill="midnightblue" stroke="midnightblue" points="118.57,-72.48 108.23,-74.76 117.74,-79.43 118.57,-72.48"/>
</g>
<!-- Node5 -->
<g id="node5" class="node">
<title>Node5</title>
<g id="a_node5"><a xlink:title=" ">
<polygon fill="white" stroke="#bfbfbf" points="126.5,-56.5 126.5,-75.5 219.5,-75.5 219.5,-56.5 126.5,-56.5"/>
<text text-anchor="middle" x="173" y="-63.5" font-family="Helvetica,sans-Serif" font-size="10.00">unordered_map</text>
</a>
</g>
</g>
<!-- Node2&#45;&gt;Node5 -->
<g id="edge4" class="edge">
<title>Node2&#45;&gt;Node5</title>
<path fill="none" stroke="midnightblue" d="M632.81,-123.91C567.92,-117.16 389.53,-98.1 229.74,-76.05"/>
<polygon fill="midnightblue" stroke="midnightblue" points="230.11,-72.57 219.73,-74.66 229.15,-79.5 230.11,-72.57"/>
</g>
<!-- Node6 -->
<g id="node6" class="node">
<title>Node6</title>
<g id="a_node6"><a xlink:title=" ">
<polygon fill="white" stroke="#bfbfbf" points="237.5,-56.5 237.5,-75.5 302.5,-75.5 302.5,-56.5 237.5,-56.5"/>
<text text-anchor="middle" x="270" y="-63.5" font-family="Helvetica,sans-Serif" font-size="10.00">typeindex</text>
</a>
</g>
</g>
<!-- Node2&#45;&gt;Node6 -->
<g id="edge5" class="edge">
<title>Node2&#45;&gt;Node6</title>
<path fill="none" stroke="midnightblue" d="M632.73,-123.39C576.91,-116.41 438.75,-98.44 312.37,-75.96"/>
<polygon fill="midnightblue" stroke="midnightblue" points="312.98,-72.51 302.52,-74.19 311.74,-79.4 312.98,-72.51"/>
</g>
<!-- Node7 -->
<g id="node7" class="node">
<title>Node7</title>
<g id="a_node7"><a xlink:title=" ">
<polygon fill="white" stroke="#bfbfbf" points="320.5,-56.5 320.5,-75.5 385.5,-75.5 385.5,-56.5 320.5,-56.5"/>
<text text-anchor="middle" x="353" y="-63.5" font-family="Helvetica,sans-Serif" font-size="10.00">stdexcept</text>
</a>
</g>
</g>
<!-- Node2&#45;&gt;Node7 -->
<g id="edge6" class="edge">
<title>Node2&#45;&gt;Node7</title>
<path fill="none" stroke="midnightblue" d="M632.94,-121.87C587.74,-113.49 489.29,-95.04 395.48,-76.06"/>
<polygon fill="midnightblue" stroke="midnightblue" points="396.04,-72.6 385.54,-74.05 394.65,-79.46 396.04,-72.6"/>
</g>
<!-- Node8 -->
<g id="node8" class="node">
<title>Node8</title>
<g id="a_node8"><a xlink:title=" ">
<polygon fill="white" stroke="#bfbfbf" points="403.5,-56.5 403.5,-75.5 460.5,-75.5 460.5,-56.5 403.5,-56.5"/>
<text text-anchor="middle" x="432" y="-63.5" font-family="Helvetica,sans-Serif" font-size="10.00">typeinfo</text>
</a>
</g>
</g>
<!-- Node2&#45;&gt;Node8 -->
<g id="edge7" class="edge">
<title>Node2&#45;&gt;Node8</title>
<path fill="none" stroke="midnightblue" d="M632.95,-119.91C593.55,-109.53 516.81,-89.33 470.41,-77.11"/>
<polygon fill="midnightblue" stroke="midnightblue" points="471.27,-73.72 460.71,-74.56 469.49,-80.49 471.27,-73.72"/>
</g>
<!-- Node9 -->
<g id="node9" class="node">
<title>Node9</title>
<g id="a_node9"><a xlink:title=" ">
<polygon fill="white" stroke="#bfbfbf" points="479,-56.5 479,-75.5 539,-75.5 539,-56.5 479,-56.5"/>
<text text-anchor="middle" x="509" y="-63.5" font-family="Helvetica,sans-Serif" font-size="10.00">iostream</text>
</a>
</g>
</g>
<!-- Node2&#45;&gt;Node9 -->
<g id="edge8" class="edge">
<title>Node2&#45;&gt;Node9</title>
<path fill="none" stroke="midnightblue" d="M636.65,-117.98C611.31,-107.86 568.86,-90.9 539.93,-79.35"/>
<polygon fill="midnightblue" stroke="midnightblue" points="540.89,-75.97 530.31,-75.51 538.3,-82.47 540.89,-75.97"/>
</g>
<!-- Node10 -->
<g id="node10" class="node">
<title>Node10</title>
<g id="a_node10"><a xlink:title=" ">
<polygon fill="white" stroke="#bfbfbf" points="557,-56.5 557,-75.5 613,-75.5 613,-56.5 557,-56.5"/>
<text text-anchor="middle" x="585" y="-63.5" font-family="Helvetica,sans-Serif" font-size="10.00">iomanip</text>
</a>
</g>
</g>
<!-- Node2&#45;&gt;Node10 -->
<g id="edge9" class="edge">
<title>Node2&#45;&gt;Node10</title>
<path fill="none" stroke="midnightblue" d="M647.54,-117.98C636.05,-108.61 617.37,-93.38 603.41,-82.01"/>
<polygon fill="midnightblue" stroke="midnightblue" points="605.4,-79.11 595.44,-75.51 600.98,-84.54 605.4,-79.11"/>
</g>
<!-- Node11 -->
<g id="node11" class="node">
<title>Node11</title>
<g id="a_node11"><a xlink:title=" ">
<polygon fill="white" stroke="#bfbfbf" points="631.5,-56.5 631.5,-75.5 684.5,-75.5 684.5,-56.5 631.5,-56.5"/>
<text text-anchor="middle" x="658" y="-63.5" font-family="Helvetica,sans-Serif" font-size="10.00">cstddef</text>
</a>
</g>
</g>
<!-- Node2&#45;&gt;Node11 -->
<g id="edge10" class="edge">
<title>Node2&#45;&gt;Node11</title>
<path fill="none" stroke="midnightblue" d="M658,-117.98C658,-109.58 658,-96.48 658,-85.66"/>
<polygon fill="midnightblue" stroke="midnightblue" points="661.5,-85.51 658,-75.51 654.5,-85.51 661.5,-85.51"/>
</g>
<!-- Node12 -->
<g id="node12" class="node">
<title>Node12</title>
<g id="a_node12"><a xlink:title=" ">
<polygon fill="white" stroke="#bfbfbf" points="703,-56.5 703,-75.5 755,-75.5 755,-56.5 703,-56.5"/>
<text text-anchor="middle" x="729" y="-63.5" font-family="Helvetica,sans-Serif" font-size="10.00">cassert</text>
</a>
</g>
</g>
<!-- Node2&#45;&gt;Node12 -->
<g id="edge11" class="edge">
<title>Node2&#45;&gt;Node12</title>
<path fill="none" stroke="midnightblue" d="M668.17,-117.98C679.35,-108.61 697.52,-93.38 711.09,-82.01"/>
<polygon fill="midnightblue" stroke="midnightblue" points="713.43,-84.61 718.85,-75.51 708.93,-79.25 713.43,-84.61"/>
</g>
<!-- Node13 -->
<g id="node13" class="node">
<title>Node13</title>
<g id="a_node13"><a xlink:title=" ">
<polygon fill="white" stroke="#bfbfbf" points="773,-56.5 773,-75.5 823,-75.5 823,-56.5 773,-56.5"/>
<text text-anchor="middle" x="798" y="-63.5" font-family="Helvetica,sans-Serif" font-size="10.00">cstdint</text>
</a>
</g>
</g>
<!-- Node2&#45;&gt;Node13 -->
<g id="edge12" class="edge">
<title>Node2&#45;&gt;Node13</title>
<path fill="none" stroke="midnightblue" d="M678.06,-117.98C701.76,-107.9 741.41,-91.05 768.58,-79.5"/>
<polygon fill="midnightblue" stroke="midnightblue" points="770.14,-82.64 777.98,-75.51 767.41,-76.2 770.14,-82.64"/>
</g>
<!-- Node14 -->
<g id="node14" class="node">
<title>Node14</title>
<g id="a_node14"><a xlink:title=" ">
<polygon fill="white" stroke="#bfbfbf" points="841,-56.5 841,-75.5 885,-75.5 885,-56.5 841,-56.5"/>
<text text-anchor="middle" x="863" y="-63.5" font-family="Helvetica,sans-Serif" font-size="10.00">string</text>
</a>
</g>
</g>
<!-- Node2&#45;&gt;Node14 -->
<g id="edge13" class="edge">
<title>Node2&#45;&gt;Node14</title>
<path fill="none" stroke="midnightblue" d="M677.44,-117.88C682.46,-115.82 687.89,-113.71 693,-112 750.56,-92.73 768.7,-92.84 830.76,-76.26"/>
<polygon fill="midnightblue" stroke="midnightblue" points="831.94,-79.56 840.67,-73.57 830.1,-72.81 831.94,-79.56"/>
</g>
<!-- Node15 -->
<g id="node15" class="node">
<title>Node15</title>
<g id="a_node15"><a xlink:title=" ">
<polygon fill="white" stroke="#bfbfbf" points="903.5,-56.5 903.5,-75.5 950.5,-75.5 950.5,-56.5 903.5,-56.5"/>
<text text-anchor="middle" x="927" y="-63.5" font-family="Helvetica,sans-Serif" font-size="10.00">vector</text>
</a>
</g>
</g>
<!-- Node2&#45;&gt;Node15 -->
<g id="edge14" class="edge">
<title>Node2&#45;&gt;Node15</title>
<path fill="none" stroke="midnightblue" d="M676.62,-117.91C681.84,-115.75 687.57,-113.59 693,-112 777.12,-87.36 803.66,-95.35 893.49,-75.91"/>
<polygon fill="midnightblue" stroke="midnightblue" points="894.27,-79.33 903.27,-73.74 892.75,-72.49 894.27,-79.33"/>
</g>
<!-- Node16 -->
<g id="node16" class="node">
<title>Node16</title>
<g id="a_node16"><a xlink:title=" ">
<polygon fill="white" stroke="#bfbfbf" points="968.5,-56.5 968.5,-75.5 1015.5,-75.5 1015.5,-56.5 968.5,-56.5"/>
<text text-anchor="middle" x="992" y="-63.5" font-family="Helvetica,sans-Serif" font-size="10.00">cmath</text>
</a>
</g>
</g>
<!-- Node2&#45;&gt;Node16 -->
<g id="edge15" class="edge">
<title>Node2&#45;&gt;Node16</title>
<path fill="none" stroke="midnightblue" d="M676.22,-117.91C681.53,-115.69 687.41,-113.51 693,-112 805.45,-81.68 840.82,-99.24 958.23,-76.11"/>
<polygon fill="midnightblue" stroke="midnightblue" points="959.22,-79.48 968.33,-74.06 957.83,-72.62 959.22,-79.48"/>
</g>
<!-- Node17 -->
<g id="node17" class="node">
<title>Node17</title>
<g id="a_node17"><a xlink:title=" ">
<polygon fill="white" stroke="#bfbfbf" points="1034,-56.5 1034,-75.5 1072,-75.5 1072,-56.5 1034,-56.5"/>
<text text-anchor="middle" x="1053" y="-63.5" font-family="Helvetica,sans-Serif" font-size="10.00">map</text>
</a>
</g>
</g>
<!-- Node2&#45;&gt;Node17 -->
<g id="edge16" class="edge">
<title>Node2&#45;&gt;Node17</title>
<path fill="none" stroke="midnightblue" d="M675.83,-117.97C681.24,-115.69 687.27,-113.47 693,-112 833.56,-76.05 877.84,-105.48 1023.65,-75.86"/>
<polygon fill="midnightblue" stroke="midnightblue" points="1024.79,-79.19 1033.86,-73.72 1023.35,-72.34 1024.79,-79.19"/>
</g>
<!-- Node18 -->
<g id="node18" class="node">
<title>Node18</title>
<g id="a_node18"><a xlink:title=" ">
<polygon fill="white" stroke="#bfbfbf" points="1090,-56.5 1090,-75.5 1188,-75.5 1188,-56.5 1090,-56.5"/>
<text text-anchor="middle" x="1139" y="-63.5" font-family="Helvetica,sans-Serif" font-size="10.00">mipp_object.hxx</text>
</a>
</g>
</g>
<!-- Node2&#45;&gt;Node18 -->
<g id="edge17" class="edge">
<title>Node2&#45;&gt;Node18</title>
<path fill="none" stroke="midnightblue" d="M675.82,-117.91C681.22,-115.64 687.25,-113.42 693,-112 857.99,-71.16 907.31,-96.31 1080.05,-76.02"/>
<polygon fill="midnightblue" stroke="midnightblue" points="1080.47,-79.5 1089.98,-74.82 1079.63,-72.55 1080.47,-79.5"/>
</g>
<!-- Node4 -->
<g id="node4" class="node">
<title>Node4</title>
<g id="a_node4"><a xlink:title=" ">
<polygon fill="white" stroke="#bfbfbf" points="0,-0.5 0,-19.5 114,-19.5 114,-0.5 0,-0.5"/>
<text text-anchor="middle" x="57" y="-7.5" font-family="Helvetica,sans-Serif" font-size="10.00">mipp_scalar_op.hxx</text>
</a>
</g>
</g>
<!-- Node3&#45;&gt;Node4 -->
<g id="edge3" class="edge">
<title>Node3&#45;&gt;Node4</title>
<path fill="none" stroke="midnightblue" d="M57,-56.08C57,-49.01 57,-38.86 57,-29.99"/>
<polygon fill="midnightblue" stroke="midnightblue" points="60.5,-29.75 57,-19.75 53.5,-29.75 60.5,-29.75"/>
</g>
</g>
</svg>
