<?xml version="1.0" encoding="UTF-8" standalone="no"?>
<!DOCTYPE svg PUBLIC "-//W3C//DTD SVG 1.1//EN"
 "http://www.w3.org/Graphics/SVG/1.1/DTD/svg11.dtd">
<!-- Generated by graphviz version 2.43.0 (0)
 -->
<!-- Title: Tools Pages: 1 -->
<svg width="542pt" height="111pt"
 viewBox="0.00 0.00 542.00 111.00" xmlns="http://www.w3.org/2000/svg" xmlns:xlink="http://www.w3.org/1999/xlink">
<g id="graph0" class="graph" transform="scale(1 1) rotate(0) translate(4 107)">
<title>Tools</title>
<polygon fill="white" stroke="transparent" points="-4,4 -4,-107 538,-107 538,4 -4,4"/>
<g id="clust1" class="cluster">
<title>clusterdir_80998a12656989faa9360c1c5bb077b4</title>
<g id="a_clust1"><a xlink:href="dir_80998a12656989faa9360c1c5bb077b4.html" target="_top" xlink:title="aff3ct&#45;3.0.2_Library_Header_Files">
<polygon fill="#ddddee" stroke="black" points="8,-8 8,-95 526,-95 526,-8 8,-8"/>
<text text-anchor="middle" x="267" y="-83" font-family="Helvetica,sans-Serif" font-size="10.00">aff3ct&#45;3.0.2_Library_Header_Files</text>
</a>
</g>
</g>
<g id="clust2" class="cluster">
<title>clusterdir_45a5cfb1a6c7cc9cd38b1ab59ce1fcc3</title>
<g id="a_clust2"><a xlink:href="dir_45a5cfb1a6c7cc9cd38b1ab59ce1fcc3.html" target="_top">
<polygon fill="#eeeeff" stroke="black" points="16,-16 16,-68 518,-68 518,-16 16,-16"/>
</a>
</g>
</g>
<!-- dir_45a5cfb1a6c7cc9cd38b1ab59ce1fcc3 -->
<g id="node1" class="node">
<title>dir_45a5cfb1a6c7cc9cd38b1ab59ce1fcc3</title>
<text text-anchor="middle" x="483" y="-39.5" font-family="Helvetica,sans-Serif" font-size="10.00">Tools</text>
</g>
<!-- dir_4eb86bc0da992a8d952a92e3a7332b7d -->
<g id="node2" class="node">
<title>dir_4eb86bc0da992a8d952a92e3a7332b7d</title>
<g id="a_node2"><a xlink:href="dir_4eb86bc0da992a8d952a92e3a7332b7d.html" target="_top" xlink:title="Algo">
<polygon fill="white" stroke="red" points="438,-60 384,-60 384,-24 438,-24 438,-60"/>
<text text-anchor="middle" x="411" y="-39.5" font-family="Helvetica,sans-Serif" font-size="10.00">Algo</text>
</a>
</g>
</g>
<!-- dir_75f8f24413952de7849c07d953fc7a99 -->
<g id="node3" class="node">
<title>dir_75f8f24413952de7849c07d953fc7a99</title>
<g id="a_node3"><a xlink:href="dir_75f8f24413952de7849c07d953fc7a99.html" target="_top" xlink:title="Code">
<polygon fill="white" stroke="red" points="366,-60 312,-60 312,-24 366,-24 366,-60"/>
<text text-anchor="middle" x="339" y="-39.5" font-family="Helvetica,sans-Serif" font-size="10.00">Code</text>
</a>
</g>
</g>
<!-- dir_47a48b5bfe4a329652667dfd78787509 -->
<g id="node4" class="node">
<title>dir_47a48b5bfe4a329652667dfd78787509</title>
<g id="a_node4"><a xlink:href="dir_47a48b5bfe4a329652667dfd78787509.html" target="_top" xlink:title="Display">
<polygon fill="white" stroke="red" points="294,-60 240,-60 240,-24 294,-24 294,-60"/>
<text text-anchor="middle" x="267" y="-39.5" font-family="Helvetica,sans-Serif" font-size="10.00">Display</text>
</a>
</g>
</g>
<!-- dir_df6c23ede9f572c8d0cf6c413edbb71f -->
<g id="node5" class="node">
<title>dir_df6c23ede9f572c8d0cf6c413edbb71f</title>
<g id="a_node5"><a xlink:href="dir_df6c23ede9f572c8d0cf6c413edbb71f.html" target="_top" xlink:title="Math">
<polygon fill="white" stroke="black" points="222,-60 168,-60 168,-24 222,-24 222,-60"/>
<text text-anchor="middle" x="195" y="-39.5" font-family="Helvetica,sans-Serif" font-size="10.00">Math</text>
</a>
</g>
</g>
<!-- dir_257fac0343bf1a9e681cfa39051784f5 -->
<g id="node6" class="node">
<title>dir_257fac0343bf1a9e681cfa39051784f5</title>
<g id="a_node6"><a xlink:href="dir_257fac0343bf1a9e681cfa39051784f5.html" target="_top" xlink:title="Noise">
<polygon fill="white" stroke="black" points="150,-60 96,-60 96,-24 150,-24 150,-60"/>
<text text-anchor="middle" x="123" y="-39.5" font-family="Helvetica,sans-Serif" font-size="10.00">Noise</text>
</a>
</g>
</g>
<!-- dir_de1c963035108b5d712f8b1cd636485d -->
<g id="node7" class="node">
<title>dir_de1c963035108b5d712f8b1cd636485d</title>
<g id="a_node7"><a xlink:href="dir_de1c963035108b5d712f8b1cd636485d.html" target="_top" xlink:title="Perf">
<polygon fill="white" stroke="red" points="78,-60 24,-60 24,-24 78,-24 78,-60"/>
<text text-anchor="middle" x="51" y="-39.5" font-family="Helvetica,sans-Serif" font-size="10.00">Perf</text>
</a>
</g>
</g>
</g>
</svg>
