<?xml version="1.0" encoding="UTF-8" standalone="no"?>
<!DOCTYPE svg PUBLIC "-//W3C//DTD SVG 1.1//EN"
 "http://www.w3.org/Graphics/SVG/1.1/DTD/svg11.dtd">
<!-- Generated by graphviz version 2.43.0 (0)
 -->
<!-- Title: Perf Pages: 1 -->
<svg width="348pt" height="111pt"
 viewBox="0.00 0.00 348.00 111.00" xmlns="http://www.w3.org/2000/svg" xmlns:xlink="http://www.w3.org/1999/xlink">
<g id="graph0" class="graph" transform="scale(1 1) rotate(0) translate(4 107)">
<title>Perf</title>
<polygon fill="white" stroke="transparent" points="-4,4 -4,-107 344,-107 344,4 -4,4"/>
<g id="clust1" class="cluster">
<title>clusterdir_45a5cfb1a6c7cc9cd38b1ab59ce1fcc3</title>
<g id="a_clust1"><a xlink:href="dir_45a5cfb1a6c7cc9cd38b1ab59ce1fcc3.html" target="_top" xlink:title="Tools">
<polygon fill="#ddddee" stroke="black" points="8,-8 8,-95 332,-95 332,-8 8,-8"/>
<text text-anchor="middle" x="170" y="-83" font-family="Helvetica,sans-Serif" font-size="10.00">Tools</text>
</a>
</g>
</g>
<g id="clust2" class="cluster">
<title>clusterdir_de1c963035108b5d712f8b1cd636485d</title>
<g id="a_clust2"><a xlink:href="dir_de1c963035108b5d712f8b1cd636485d.html" target="_top">
<polygon fill="#eeeeff" stroke="black" points="16,-16 16,-68 324,-68 324,-16 16,-16"/>
</a>
</g>
</g>
<!-- dir_de1c963035108b5d712f8b1cd636485d -->
<g id="node1" class="node">
<title>dir_de1c963035108b5d712f8b1cd636485d</title>
<text text-anchor="middle" x="289" y="-39.5" font-family="Helvetica,sans-Serif" font-size="10.00">Perf</text>
</g>
<!-- dir_fb4534c516bfd5c5ddc3317664755424 -->
<g id="node2" class="node">
<title>dir_fb4534c516bfd5c5ddc3317664755424</title>
<g id="a_node2"><a xlink:href="dir_fb4534c516bfd5c5ddc3317664755424.html" target="_top" xlink:title="common">
<polygon fill="white" stroke="black" points="243.5,-60 184.5,-60 184.5,-24 243.5,-24 243.5,-60"/>
<text text-anchor="middle" x="214" y="-39.5" font-family="Helvetica,sans-Serif" font-size="10.00">common</text>
</a>
</g>
</g>
<!-- dir_9e3ebcb8e1600e2d48c44a864620c3e1 -->
<g id="node3" class="node">
<title>dir_9e3ebcb8e1600e2d48c44a864620c3e1</title>
<g id="a_node3"><a xlink:href="dir_9e3ebcb8e1600e2d48c44a864620c3e1.html" target="_top" xlink:title="distance">
<polygon fill="white" stroke="black" points="166,-60 108,-60 108,-24 166,-24 166,-60"/>
<text text-anchor="middle" x="137" y="-39.5" font-family="Helvetica,sans-Serif" font-size="10.00">distance</text>
</a>
</g>
</g>
<!-- dir_63b3035e8bcbe96501a29b535323826a -->
<g id="node4" class="node">
<title>dir_63b3035e8bcbe96501a29b535323826a</title>
<g id="a_node4"><a xlink:href="dir_63b3035e8bcbe96501a29b535323826a.html" target="_top" xlink:title="Transpose">
<polygon fill="white" stroke="black" points="90,-60 24,-60 24,-24 90,-24 90,-60"/>
<text text-anchor="middle" x="57" y="-39.5" font-family="Helvetica,sans-Serif" font-size="10.00">Transpose</text>
</a>
</g>
</g>
</g>
</svg>
