<?xml version="1.0" encoding="UTF-8" standalone="no"?>
<!DOCTYPE svg PUBLIC "-//W3C//DTD SVG 1.1//EN"
 "http://www.w3.org/Graphics/SVG/1.1/DTD/svg11.dtd">
<!-- Generated by graphviz version 2.43.0 (0)
 -->
<!-- Title: functions_polar_inter_intra.h Pages: 1 -->
<svg width="1196pt" height="296pt"
 viewBox="0.00 0.00 1196.00 296.00" xmlns="http://www.w3.org/2000/svg" xmlns:xlink="http://www.w3.org/1999/xlink">
<g id="graph0" class="graph" transform="scale(1 1) rotate(0) translate(4 292)">
<title>functions_polar_inter_intra.h</title>
<polygon fill="white" stroke="transparent" points="-4,4 -4,-292 1192,-292 1192,4 -4,4"/>
<!-- Node1 -->
<g id="node1" class="node">
<title>Node1</title>
<g id="a_node1"><a xlink:title="Functions for the Polar API in inter/intra&#45;SIMD.">
<polygon fill="#bfbfbf" stroke="black" points="685.5,-257.5 685.5,-287.5 804.5,-287.5 804.5,-257.5 685.5,-257.5"/>
<text text-anchor="start" x="693.5" y="-275.5" font-family="Helvetica,sans-Serif" font-size="10.00">functions_polar_inter</text>
<text text-anchor="middle" x="745" y="-264.5" font-family="Helvetica,sans-Serif" font-size="10.00">_intra.h</text>
</a>
</g>
</g>
<!-- Node2 -->
<g id="node2" class="node">
<title>Node2</title>
<g id="a_node2"><a xlink:href="mipp_8h.html" target="_top" xlink:title=" ">
<polygon fill="white" stroke="black" points="633,-118 633,-137 683,-137 683,-118 633,-118"/>
<text text-anchor="middle" x="658" y="-125" font-family="Helvetica,sans-Serif" font-size="10.00">mipp.h</text>
</a>
</g>
</g>
<!-- Node1&#45;&gt;Node2 -->
<g id="edge1" class="edge">
<title>Node1&#45;&gt;Node2</title>
<path fill="none" stroke="midnightblue" d="M709.14,-257.41C693.21,-249.24 675.86,-237.29 666,-221 652.4,-198.52 652.87,-167.16 655.02,-147.35"/>
<polygon fill="midnightblue" stroke="midnightblue" points="658.52,-147.55 656.37,-137.17 651.58,-146.62 658.52,-147.55"/>
</g>
<!-- Node19 -->
<g id="node19" class="node">
<title>Node19</title>
<g id="a_node19"><a xlink:href="decoder__polar__functions_8h.html" target="_top" xlink:title="Functions for Polar decoders.">
<polygon fill="white" stroke="black" points="675.5,-185 675.5,-215 814.5,-215 814.5,-185 675.5,-185"/>
<text text-anchor="start" x="683.5" y="-203" font-family="Helvetica,sans-Serif" font-size="10.00">Tools/Code/Polar/decoder</text>
<text text-anchor="middle" x="745" y="-192" font-family="Helvetica,sans-Serif" font-size="10.00">_polar_functions.h</text>
</a>
</g>
</g>
<!-- Node1&#45;&gt;Node19 -->
<g id="edge18" class="edge">
<title>Node1&#45;&gt;Node19</title>
<path fill="none" stroke="midnightblue" d="M745,-257.23C745,-248.16 745,-236.16 745,-225.58"/>
<polygon fill="midnightblue" stroke="midnightblue" points="748.5,-225.25 745,-215.25 741.5,-225.25 748.5,-225.25"/>
</g>
<!-- Node22 -->
<g id="node22" class="node">
<title>Node22</title>
<g id="a_node22"><a xlink:title=" ">
<polygon fill="white" stroke="#bfbfbf" points="832.5,-179.5 832.5,-220.5 987.5,-220.5 987.5,-179.5 832.5,-179.5"/>
<text text-anchor="start" x="840.5" y="-208.5" font-family="Helvetica,sans-Serif" font-size="10.00">Tools/Code/Polar/API</text>
<text text-anchor="start" x="840.5" y="-197.5" font-family="Helvetica,sans-Serif" font-size="10.00">/internal_functions/functions</text>
<text text-anchor="middle" x="910" y="-186.5" font-family="Helvetica,sans-Serif" font-size="10.00">_polar_inter_intra.hxx</text>
</a>
</g>
</g>
<!-- Node1&#45;&gt;Node22 -->
<g id="edge22" class="edge">
<title>Node1&#45;&gt;Node22</title>
<path fill="none" stroke="midnightblue" d="M777.99,-257.4C800.02,-247.99 829.52,-235.39 855.05,-224.48"/>
<polygon fill="midnightblue" stroke="midnightblue" points="856.43,-227.69 864.25,-220.55 853.68,-221.26 856.43,-227.69"/>
</g>
<!-- Node3 -->
<g id="node3" class="node">
<title>Node3</title>
<g id="a_node3"><a xlink:href="mipp__scalar__op_8h.html" target="_top" xlink:title=" ">
<polygon fill="white" stroke="black" points="6,-56.5 6,-75.5 108,-75.5 108,-56.5 6,-56.5"/>
<text text-anchor="middle" x="57" y="-63.5" font-family="Helvetica,sans-Serif" font-size="10.00">mipp_scalar_op.h</text>
</a>
</g>
</g>
<!-- Node2&#45;&gt;Node3 -->
<g id="edge2" class="edge">
<title>Node2&#45;&gt;Node3</title>
<path fill="none" stroke="midnightblue" d="M632.87,-124.66C556.93,-118.98 322.99,-100.71 118.08,-76.07"/>
<polygon fill="midnightblue" stroke="midnightblue" points="118.38,-72.58 108.04,-74.85 117.54,-79.53 118.38,-72.58"/>
</g>
<!-- Node5 -->
<g id="node5" class="node">
<title>Node5</title>
<g id="a_node5"><a xlink:title=" ">
<polygon fill="white" stroke="#bfbfbf" points="126.5,-56.5 126.5,-75.5 219.5,-75.5 219.5,-56.5 126.5,-56.5"/>
<text text-anchor="middle" x="173" y="-63.5" font-family="Helvetica,sans-Serif" font-size="10.00">unordered_map</text>
</a>
</g>
</g>
<!-- Node2&#45;&gt;Node5 -->
<g id="edge4" class="edge">
<title>Node2&#45;&gt;Node5</title>
<path fill="none" stroke="midnightblue" d="M632.75,-123.94C567.69,-117.25 388.87,-98.34 229.75,-76.2"/>
<polygon fill="midnightblue" stroke="midnightblue" points="230.17,-72.72 219.79,-74.8 229.2,-79.66 230.17,-72.72"/>
</g>
<!-- Node6 -->
<g id="node6" class="node">
<title>Node6</title>
<g id="a_node6"><a xlink:title=" ">
<polygon fill="white" stroke="#bfbfbf" points="237.5,-56.5 237.5,-75.5 302.5,-75.5 302.5,-56.5 237.5,-56.5"/>
<text text-anchor="middle" x="270" y="-63.5" font-family="Helvetica,sans-Serif" font-size="10.00">typeindex</text>
</a>
</g>
</g>
<!-- Node2&#45;&gt;Node6 -->
<g id="edge5" class="edge">
<title>Node2&#45;&gt;Node6</title>
<path fill="none" stroke="midnightblue" d="M632.65,-123.44C576.71,-116.56 438.34,-98.8 312.8,-76.23"/>
<polygon fill="midnightblue" stroke="midnightblue" points="313.1,-72.72 302.63,-74.38 311.85,-79.61 313.1,-72.72"/>
</g>
<!-- Node7 -->
<g id="node7" class="node">
<title>Node7</title>
<g id="a_node7"><a xlink:title=" ">
<polygon fill="white" stroke="#bfbfbf" points="320.5,-56.5 320.5,-75.5 385.5,-75.5 385.5,-56.5 320.5,-56.5"/>
<text text-anchor="middle" x="353" y="-63.5" font-family="Helvetica,sans-Serif" font-size="10.00">stdexcept</text>
</a>
</g>
</g>
<!-- Node2&#45;&gt;Node7 -->
<g id="edge6" class="edge">
<title>Node2&#45;&gt;Node7</title>
<path fill="none" stroke="midnightblue" d="M632.84,-121.92C587.44,-113.61 488.6,-95.29 395.51,-76.27"/>
<polygon fill="midnightblue" stroke="midnightblue" points="396.16,-72.83 385.66,-74.25 394.75,-79.69 396.16,-72.83"/>
</g>
<!-- Node8 -->
<g id="node8" class="node">
<title>Node8</title>
<g id="a_node8"><a xlink:title=" ">
<polygon fill="white" stroke="#bfbfbf" points="403.5,-56.5 403.5,-75.5 460.5,-75.5 460.5,-56.5 403.5,-56.5"/>
<text text-anchor="middle" x="432" y="-63.5" font-family="Helvetica,sans-Serif" font-size="10.00">typeinfo</text>
</a>
</g>
</g>
<!-- Node2&#45;&gt;Node8 -->
<g id="edge7" class="edge">
<title>Node2&#45;&gt;Node8</title>
<path fill="none" stroke="midnightblue" d="M632.95,-119.91C593.55,-109.53 516.81,-89.33 470.41,-77.11"/>
<polygon fill="midnightblue" stroke="midnightblue" points="471.27,-73.72 460.71,-74.56 469.49,-80.49 471.27,-73.72"/>
</g>
<!-- Node9 -->
<g id="node9" class="node">
<title>Node9</title>
<g id="a_node9"><a xlink:title=" ">
<polygon fill="white" stroke="#bfbfbf" points="479,-56.5 479,-75.5 539,-75.5 539,-56.5 479,-56.5"/>
<text text-anchor="middle" x="509" y="-63.5" font-family="Helvetica,sans-Serif" font-size="10.00">iostream</text>
</a>
</g>
</g>
<!-- Node2&#45;&gt;Node9 -->
<g id="edge8" class="edge">
<title>Node2&#45;&gt;Node9</title>
<path fill="none" stroke="midnightblue" d="M636.65,-117.98C611.31,-107.86 568.86,-90.9 539.93,-79.35"/>
<polygon fill="midnightblue" stroke="midnightblue" points="540.89,-75.97 530.31,-75.51 538.3,-82.47 540.89,-75.97"/>
</g>
<!-- Node10 -->
<g id="node10" class="node">
<title>Node10</title>
<g id="a_node10"><a xlink:title=" ">
<polygon fill="white" stroke="#bfbfbf" points="557,-56.5 557,-75.5 613,-75.5 613,-56.5 557,-56.5"/>
<text text-anchor="middle" x="585" y="-63.5" font-family="Helvetica,sans-Serif" font-size="10.00">iomanip</text>
</a>
</g>
</g>
<!-- Node2&#45;&gt;Node10 -->
<g id="edge9" class="edge">
<title>Node2&#45;&gt;Node10</title>
<path fill="none" stroke="midnightblue" d="M647.54,-117.98C636.05,-108.61 617.37,-93.38 603.41,-82.01"/>
<polygon fill="midnightblue" stroke="midnightblue" points="605.4,-79.11 595.44,-75.51 600.98,-84.54 605.4,-79.11"/>
</g>
<!-- Node11 -->
<g id="node11" class="node">
<title>Node11</title>
<g id="a_node11"><a xlink:title=" ">
<polygon fill="white" stroke="#bfbfbf" points="631.5,-56.5 631.5,-75.5 684.5,-75.5 684.5,-56.5 631.5,-56.5"/>
<text text-anchor="middle" x="658" y="-63.5" font-family="Helvetica,sans-Serif" font-size="10.00">cstddef</text>
</a>
</g>
</g>
<!-- Node2&#45;&gt;Node11 -->
<g id="edge10" class="edge">
<title>Node2&#45;&gt;Node11</title>
<path fill="none" stroke="midnightblue" d="M658,-117.98C658,-109.58 658,-96.48 658,-85.66"/>
<polygon fill="midnightblue" stroke="midnightblue" points="661.5,-85.51 658,-75.51 654.5,-85.51 661.5,-85.51"/>
</g>
<!-- Node12 -->
<g id="node12" class="node">
<title>Node12</title>
<g id="a_node12"><a xlink:title=" ">
<polygon fill="white" stroke="#bfbfbf" points="703,-56.5 703,-75.5 755,-75.5 755,-56.5 703,-56.5"/>
<text text-anchor="middle" x="729" y="-63.5" font-family="Helvetica,sans-Serif" font-size="10.00">cassert</text>
</a>
</g>
</g>
<!-- Node2&#45;&gt;Node12 -->
<g id="edge11" class="edge">
<title>Node2&#45;&gt;Node12</title>
<path fill="none" stroke="midnightblue" d="M668.17,-117.98C679.35,-108.61 697.52,-93.38 711.09,-82.01"/>
<polygon fill="midnightblue" stroke="midnightblue" points="713.43,-84.61 718.85,-75.51 708.93,-79.25 713.43,-84.61"/>
</g>
<!-- Node13 -->
<g id="node13" class="node">
<title>Node13</title>
<g id="a_node13"><a xlink:title=" ">
<polygon fill="white" stroke="#bfbfbf" points="773,-56.5 773,-75.5 823,-75.5 823,-56.5 773,-56.5"/>
<text text-anchor="middle" x="798" y="-63.5" font-family="Helvetica,sans-Serif" font-size="10.00">cstdint</text>
</a>
</g>
</g>
<!-- Node2&#45;&gt;Node13 -->
<g id="edge12" class="edge">
<title>Node2&#45;&gt;Node13</title>
<path fill="none" stroke="midnightblue" d="M678.06,-117.98C701.76,-107.9 741.41,-91.05 768.58,-79.5"/>
<polygon fill="midnightblue" stroke="midnightblue" points="770.14,-82.64 777.98,-75.51 767.41,-76.2 770.14,-82.64"/>
</g>
<!-- Node14 -->
<g id="node14" class="node">
<title>Node14</title>
<g id="a_node14"><a xlink:title=" ">
<polygon fill="white" stroke="#bfbfbf" points="841,-56.5 841,-75.5 885,-75.5 885,-56.5 841,-56.5"/>
<text text-anchor="middle" x="863" y="-63.5" font-family="Helvetica,sans-Serif" font-size="10.00">string</text>
</a>
</g>
</g>
<!-- Node2&#45;&gt;Node14 -->
<g id="edge13" class="edge">
<title>Node2&#45;&gt;Node14</title>
<path fill="none" stroke="midnightblue" d="M680.15,-117.85C685.62,-115.83 691.49,-113.75 697,-112 753.28,-94.08 770.51,-92.75 831,-76.22"/>
<polygon fill="midnightblue" stroke="midnightblue" points="831.96,-79.58 840.67,-73.55 830.09,-72.84 831.96,-79.58"/>
</g>
<!-- Node15 -->
<g id="node15" class="node">
<title>Node15</title>
<g id="a_node15"><a xlink:title=" ">
<polygon fill="white" stroke="#bfbfbf" points="903.5,-56.5 903.5,-75.5 950.5,-75.5 950.5,-56.5 903.5,-56.5"/>
<text text-anchor="middle" x="927" y="-63.5" font-family="Helvetica,sans-Serif" font-size="10.00">vector</text>
</a>
</g>
</g>
<!-- Node2&#45;&gt;Node15 -->
<g id="edge14" class="edge">
<title>Node2&#45;&gt;Node15</title>
<path fill="none" stroke="midnightblue" d="M678.83,-117.99C684.64,-115.82 691.01,-113.65 697,-112 779.8,-89.23 805.42,-95.25 893.4,-75.95"/>
<polygon fill="midnightblue" stroke="midnightblue" points="894.28,-79.34 903.27,-73.73 892.74,-72.51 894.28,-79.34"/>
</g>
<!-- Node16 -->
<g id="node16" class="node">
<title>Node16</title>
<g id="a_node16"><a xlink:title=" ">
<polygon fill="white" stroke="#bfbfbf" points="968.5,-56.5 968.5,-75.5 1015.5,-75.5 1015.5,-56.5 968.5,-56.5"/>
<text text-anchor="middle" x="992" y="-63.5" font-family="Helvetica,sans-Serif" font-size="10.00">cmath</text>
</a>
</g>
</g>
<!-- Node2&#45;&gt;Node16 -->
<g id="edge15" class="edge">
<title>Node2&#45;&gt;Node16</title>
<path fill="none" stroke="midnightblue" d="M678.38,-117.96C684.3,-115.75 690.83,-113.55 697,-112 808.3,-84.05 842.62,-99.15 958.37,-76.09"/>
<polygon fill="midnightblue" stroke="midnightblue" points="959.23,-79.49 968.32,-74.05 957.83,-72.63 959.23,-79.49"/>
</g>
<!-- Node17 -->
<g id="node17" class="node">
<title>Node17</title>
<g id="a_node17"><a xlink:title=" ">
<polygon fill="white" stroke="#bfbfbf" points="1034,-56.5 1034,-75.5 1072,-75.5 1072,-56.5 1034,-56.5"/>
<text text-anchor="middle" x="1053" y="-63.5" font-family="Helvetica,sans-Serif" font-size="10.00">map</text>
</a>
</g>
</g>
<!-- Node2&#45;&gt;Node17 -->
<g id="edge16" class="edge">
<title>Node2&#45;&gt;Node17</title>
<path fill="none" stroke="midnightblue" d="M678.35,-117.86C684.27,-115.64 690.81,-113.47 697,-112 836.5,-78.95 879.64,-105.35 1023.76,-75.84"/>
<polygon fill="midnightblue" stroke="midnightblue" points="1024.79,-79.2 1033.86,-73.71 1023.35,-72.35 1024.79,-79.2"/>
</g>
<!-- Node18 -->
<g id="node18" class="node">
<title>Node18</title>
<g id="a_node18"><a xlink:title=" ">
<polygon fill="white" stroke="#bfbfbf" points="1090,-56.5 1090,-75.5 1188,-75.5 1188,-56.5 1090,-56.5"/>
<text text-anchor="middle" x="1139" y="-63.5" font-family="Helvetica,sans-Serif" font-size="10.00">mipp_object.hxx</text>
</a>
</g>
</g>
<!-- Node2&#45;&gt;Node18 -->
<g id="edge17" class="edge">
<title>Node2&#45;&gt;Node18</title>
<path fill="none" stroke="midnightblue" d="M677.93,-117.94C683.96,-115.67 690.66,-113.45 697,-112 860.92,-74.53 909.07,-96.28 1079.89,-76.05"/>
<polygon fill="midnightblue" stroke="midnightblue" points="1080.48,-79.5 1089.98,-74.82 1079.63,-72.55 1080.48,-79.5"/>
</g>
<!-- Node4 -->
<g id="node4" class="node">
<title>Node4</title>
<g id="a_node4"><a xlink:title=" ">
<polygon fill="white" stroke="#bfbfbf" points="0,-0.5 0,-19.5 114,-19.5 114,-0.5 0,-0.5"/>
<text text-anchor="middle" x="57" y="-7.5" font-family="Helvetica,sans-Serif" font-size="10.00">mipp_scalar_op.hxx</text>
</a>
</g>
</g>
<!-- Node3&#45;&gt;Node4 -->
<g id="edge3" class="edge">
<title>Node3&#45;&gt;Node4</title>
<path fill="none" stroke="midnightblue" d="M57,-56.08C57,-49.01 57,-38.86 57,-29.99"/>
<polygon fill="midnightblue" stroke="midnightblue" points="60.5,-29.75 57,-19.75 53.5,-29.75 60.5,-29.75"/>
</g>
<!-- Node19&#45;&gt;Node2 -->
<g id="edge19" class="edge">
<title>Node19&#45;&gt;Node2</title>
<path fill="none" stroke="midnightblue" d="M727.39,-184.73C712.78,-172.89 692.05,-156.09 677.05,-143.94"/>
<polygon fill="midnightblue" stroke="midnightblue" points="678.95,-140.97 668.97,-137.39 674.54,-146.41 678.95,-140.97"/>
</g>
<!-- Node20 -->
<g id="node20" class="node">
<title>Node20</title>
<g id="a_node20"><a xlink:title=" ">
<polygon fill="white" stroke="#bfbfbf" points="706.5,-118 706.5,-137 771.5,-137 771.5,-118 706.5,-118"/>
<text text-anchor="middle" x="739" y="-125" font-family="Helvetica,sans-Serif" font-size="10.00">functional</text>
</a>
</g>
</g>
<!-- Node19&#45;&gt;Node20 -->
<g id="edge20" class="edge">
<title>Node19&#45;&gt;Node20</title>
<path fill="none" stroke="midnightblue" d="M743.79,-184.73C742.87,-174 741.61,-159.19 740.61,-147.46"/>
<polygon fill="midnightblue" stroke="midnightblue" points="744.09,-147.06 739.76,-137.39 737.12,-147.65 744.09,-147.06"/>
</g>
<!-- Node21 -->
<g id="node21" class="node">
<title>Node21</title>
<g id="a_node21"><a xlink:title=" ">
<polygon fill="white" stroke="#bfbfbf" points="789.5,-112.5 789.5,-142.5 928.5,-142.5 928.5,-112.5 789.5,-112.5"/>
<text text-anchor="start" x="797.5" y="-130.5" font-family="Helvetica,sans-Serif" font-size="10.00">Tools/Code/Polar/decoder</text>
<text text-anchor="middle" x="859" y="-119.5" font-family="Helvetica,sans-Serif" font-size="10.00">_polar_functions.hxx</text>
</a>
</g>
</g>
<!-- Node19&#45;&gt;Node21 -->
<g id="edge21" class="edge">
<title>Node19&#45;&gt;Node21</title>
<path fill="none" stroke="midnightblue" d="M767.8,-184.9C784.96,-174.29 808.69,-159.61 827.64,-147.89"/>
<polygon fill="midnightblue" stroke="midnightblue" points="829.58,-150.81 836.24,-142.57 825.9,-144.86 829.58,-150.81"/>
</g>
</g>
</svg>
