<?xml version="1.0" encoding="UTF-8" standalone="no"?>
<!DOCTYPE svg PUBLIC "-//W3C//DTD SVG 1.1//EN"
 "http://www.w3.org/Graphics/SVG/1.1/DTD/svg11.dtd">
<!-- Generated by graphviz version 2.43.0 (0)
 -->
<!-- Title: hamming_distance.h Pages: 1 -->
<svg width="282pt" height="95pt"
 viewBox="0.00 0.00 282.00 95.00" xmlns="http://www.w3.org/2000/svg" xmlns:xlink="http://www.w3.org/1999/xlink">
<g id="graph0" class="graph" transform="scale(1 1) rotate(0) translate(4 91)">
<title>hamming_distance.h</title>
<polygon fill="white" stroke="transparent" points="-4,4 -4,-91 278,-91 278,4 -4,4"/>
<!-- Node1 -->
<g id="node1" class="node">
<title>Node1</title>
<g id="a_node1"><a xlink:title=" ">
<polygon fill="#bfbfbf" stroke="black" points="35.5,-67.5 35.5,-86.5 154.5,-86.5 154.5,-67.5 35.5,-67.5"/>
<text text-anchor="middle" x="95" y="-74.5" font-family="Helvetica,sans-Serif" font-size="10.00">hamming_distance.h</text>
</a>
</g>
</g>
<!-- Node2 -->
<g id="node2" class="node">
<title>Node2</title>
<g id="a_node2"><a xlink:title=" ">
<polygon fill="white" stroke="#bfbfbf" points="0,-6 0,-25 50,-25 50,-6 0,-6"/>
<text text-anchor="middle" x="25" y="-13" font-family="Helvetica,sans-Serif" font-size="10.00">cstdint</text>
</a>
</g>
</g>
<!-- Node1&#45;&gt;Node2 -->
<g id="edge1" class="edge">
<title>Node1&#45;&gt;Node2</title>
<path fill="none" stroke="midnightblue" d="M84.97,-67.48C73.95,-58.11 56.04,-42.88 42.66,-31.51"/>
<polygon fill="midnightblue" stroke="midnightblue" points="44.9,-28.82 35.01,-25.01 40.36,-34.15 44.9,-28.82"/>
</g>
<!-- Node3 -->
<g id="node3" class="node">
<title>Node3</title>
<g id="a_node3"><a xlink:title=" ">
<polygon fill="white" stroke="#bfbfbf" points="68.5,-6 68.5,-25 121.5,-25 121.5,-6 68.5,-6"/>
<text text-anchor="middle" x="95" y="-13" font-family="Helvetica,sans-Serif" font-size="10.00">cstddef</text>
</a>
</g>
</g>
<!-- Node1&#45;&gt;Node3 -->
<g id="edge2" class="edge">
<title>Node1&#45;&gt;Node3</title>
<path fill="none" stroke="midnightblue" d="M95,-67.48C95,-59.08 95,-45.98 95,-35.16"/>
<polygon fill="midnightblue" stroke="midnightblue" points="98.5,-35.01 95,-25.01 91.5,-35.01 98.5,-35.01"/>
</g>
<!-- Node4 -->
<g id="node4" class="node">
<title>Node4</title>
<g id="a_node4"><a xlink:title=" ">
<polygon fill="white" stroke="#bfbfbf" points="140,-0.5 140,-30.5 274,-30.5 274,-0.5 140,-0.5"/>
<text text-anchor="start" x="148" y="-18.5" font-family="Helvetica,sans-Serif" font-size="10.00">Tools/Perf/distance</text>
<text text-anchor="middle" x="207" y="-7.5" font-family="Helvetica,sans-Serif" font-size="10.00">/hamming_distance.hxx</text>
</a>
</g>
</g>
<!-- Node1&#45;&gt;Node4 -->
<g id="edge3" class="edge">
<title>Node1&#45;&gt;Node4</title>
<path fill="none" stroke="midnightblue" d="M111.05,-67.48C126.78,-59.12 151.3,-46.09 171.61,-35.3"/>
<polygon fill="midnightblue" stroke="midnightblue" points="173.41,-38.31 180.6,-30.52 170.13,-32.12 173.41,-38.31"/>
</g>
</g>
</svg>
