<?xml version="1.0" encoding="UTF-8" standalone="no"?>
<!DOCTYPE svg PUBLIC "-//W3C//DTD SVG 1.1//EN"
 "http://www.w3.org/Graphics/SVG/1.1/DTD/svg11.dtd">
<!-- Generated by graphviz version 2.43.0 (0)
 -->
<!-- Title: Graphical Class Hierarchy Pages: 1 -->
<svg width="284pt" height="318pt"
 viewBox="0.00 0.00 284.00 318.00" xmlns="http://www.w3.org/2000/svg" xmlns:xlink="http://www.w3.org/1999/xlink">
<g id="graph0" class="graph" transform="scale(1 1) rotate(0) translate(4 314)">
<title>Graphical Class Hierarchy</title>
<polygon fill="white" stroke="transparent" points="-4,4 -4,-314 280,-314 280,4 -4,4"/>
<!-- Node0 -->
<g id="node1" class="node">
<title>Node0</title>
<g id="a_node1"><a xlink:href="classdate_1_1detail_1_1time__of__day__base.html" target="_top" xlink:title=" ">
<polygon fill="white" stroke="black" points="0,-140 0,-170 101,-170 101,-140 0,-140"/>
<text text-anchor="start" x="8" y="-158" font-family="Helvetica,sans-Serif" font-size="10.00">date::detail::time</text>
<text text-anchor="middle" x="50.5" y="-147" font-family="Helvetica,sans-Serif" font-size="10.00">_of_day_base</text>
</a>
</g>
</g>
<!-- Node1 -->
<g id="node2" class="node">
<title>Node1</title>
<g id="a_node2"><a xlink:href="classdate_1_1detail_1_1time__of__day__storage_3_01std_1_1chrono_1_1duration_3_01Rep_00_01Period_e04421575e68972b67dc6c5130edf814.html" target="_top" xlink:title=" ">
<polygon fill="white" stroke="black" points="137,-246.5 137,-309.5 276,-309.5 276,-246.5 137,-246.5"/>
<text text-anchor="start" x="145" y="-297.5" font-family="Helvetica,sans-Serif" font-size="10.00">date::detail::time</text>
<text text-anchor="start" x="145" y="-286.5" font-family="Helvetica,sans-Serif" font-size="10.00">_of_day_storage&lt; std</text>
<text text-anchor="start" x="145" y="-275.5" font-family="Helvetica,sans-Serif" font-size="10.00">::chrono::duration&lt; Rep,</text>
<text text-anchor="start" x="145" y="-264.5" font-family="Helvetica,sans-Serif" font-size="10.00"> Period &gt;, detail::classify</text>
<text text-anchor="middle" x="206.5" y="-253.5" font-family="Helvetica,sans-Serif" font-size="10.00">::hour &gt;</text>
</a>
</g>
</g>
<!-- Node0&#45;&gt;Node1 -->
<g id="edge1" class="edge">
<title>Node0&#45;&gt;Node1</title>
<path fill="none" stroke="#8b1a1a" d="M72.47,-177.74C89.07,-195.06 113.32,-218.93 137,-237 141.19,-240.2 145.64,-243.35 150.19,-246.39"/>
<polygon fill="#8b1a1a" stroke="#8b1a1a" points="74.83,-175.14 65.42,-170.29 69.75,-179.95 74.83,-175.14"/>
</g>
<!-- Node2 -->
<g id="node3" class="node">
<title>Node2</title>
<g id="a_node3"><a xlink:href="classdate_1_1detail_1_1time__of__day__storage_3_01std_1_1chrono_1_1duration_3_01Rep_00_01Period_f2584e46b5dce74236c208f17bb6e58c.html" target="_top" xlink:title=" ">
<polygon fill="white" stroke="black" points="137,-164.5 137,-227.5 276,-227.5 276,-164.5 137,-164.5"/>
<text text-anchor="start" x="145" y="-215.5" font-family="Helvetica,sans-Serif" font-size="10.00">date::detail::time</text>
<text text-anchor="start" x="145" y="-204.5" font-family="Helvetica,sans-Serif" font-size="10.00">_of_day_storage&lt; std</text>
<text text-anchor="start" x="145" y="-193.5" font-family="Helvetica,sans-Serif" font-size="10.00">::chrono::duration&lt; Rep,</text>
<text text-anchor="start" x="145" y="-182.5" font-family="Helvetica,sans-Serif" font-size="10.00"> Period &gt;, detail::classify</text>
<text text-anchor="middle" x="206.5" y="-171.5" font-family="Helvetica,sans-Serif" font-size="10.00">::minute &gt;</text>
</a>
</g>
</g>
<!-- Node0&#45;&gt;Node2 -->
<g id="edge2" class="edge">
<title>Node0&#45;&gt;Node2</title>
<path fill="none" stroke="#8b1a1a" d="M110.91,-170.82C119.43,-173.09 128.26,-175.44 136.94,-177.75"/>
<polygon fill="#8b1a1a" stroke="#8b1a1a" points="111.64,-167.39 101.07,-168.2 109.84,-174.15 111.64,-167.39"/>
</g>
<!-- Node3 -->
<g id="node4" class="node">
<title>Node3</title>
<g id="a_node4"><a xlink:href="classdate_1_1detail_1_1time__of__day__storage_3_01std_1_1chrono_1_1duration_3_01Rep_00_01Period_eb61018323bf96c03a0f8628804ff31f.html" target="_top" xlink:title=" ">
<polygon fill="white" stroke="black" points="137,-82.5 137,-145.5 276,-145.5 276,-82.5 137,-82.5"/>
<text text-anchor="start" x="145" y="-133.5" font-family="Helvetica,sans-Serif" font-size="10.00">date::detail::time</text>
<text text-anchor="start" x="145" y="-122.5" font-family="Helvetica,sans-Serif" font-size="10.00">_of_day_storage&lt; std</text>
<text text-anchor="start" x="145" y="-111.5" font-family="Helvetica,sans-Serif" font-size="10.00">::chrono::duration&lt; Rep,</text>
<text text-anchor="start" x="145" y="-100.5" font-family="Helvetica,sans-Serif" font-size="10.00"> Period &gt;, detail::classify</text>
<text text-anchor="middle" x="206.5" y="-89.5" font-family="Helvetica,sans-Serif" font-size="10.00">::second &gt;</text>
</a>
</g>
</g>
<!-- Node0&#45;&gt;Node3 -->
<g id="edge3" class="edge">
<title>Node0&#45;&gt;Node3</title>
<path fill="none" stroke="#8b1a1a" d="M110.91,-139.18C119.43,-136.91 128.26,-134.56 136.94,-132.25"/>
<polygon fill="#8b1a1a" stroke="#8b1a1a" points="109.84,-135.85 101.07,-141.8 111.64,-142.61 109.84,-135.85"/>
</g>
<!-- Node4 -->
<g id="node5" class="node">
<title>Node4</title>
<g id="a_node5"><a xlink:href="classdate_1_1detail_1_1time__of__day__storage_3_01std_1_1chrono_1_1duration_3_01Rep_00_01Period_8c019a4707fe95599e064c7b7698ce63.html" target="_top" xlink:title=" ">
<polygon fill="white" stroke="black" points="137,-0.5 137,-63.5 276,-63.5 276,-0.5 137,-0.5"/>
<text text-anchor="start" x="145" y="-51.5" font-family="Helvetica,sans-Serif" font-size="10.00">date::detail::time</text>
<text text-anchor="start" x="145" y="-40.5" font-family="Helvetica,sans-Serif" font-size="10.00">_of_day_storage&lt; std</text>
<text text-anchor="start" x="145" y="-29.5" font-family="Helvetica,sans-Serif" font-size="10.00">::chrono::duration&lt; Rep,</text>
<text text-anchor="start" x="145" y="-18.5" font-family="Helvetica,sans-Serif" font-size="10.00"> Period &gt;, detail::classify</text>
<text text-anchor="middle" x="206.5" y="-7.5" font-family="Helvetica,sans-Serif" font-size="10.00">::subsecond &gt;</text>
</a>
</g>
</g>
<!-- Node0&#45;&gt;Node4 -->
<g id="edge4" class="edge">
<title>Node0&#45;&gt;Node4</title>
<path fill="none" stroke="#8b1a1a" d="M72.47,-132.26C89.07,-114.94 113.32,-91.07 137,-73 141.19,-69.8 145.64,-66.65 150.19,-63.61"/>
<polygon fill="#8b1a1a" stroke="#8b1a1a" points="69.75,-130.05 65.42,-139.71 74.83,-134.86 69.75,-130.05"/>
</g>
</g>
</svg>
