<?xml version="1.0" encoding="UTF-8" standalone="no"?>
<!DOCTYPE svg PUBLIC "-//W3C//DTD SVG 1.1//EN"
 "http://www.w3.org/Graphics/SVG/1.1/DTD/svg11.dtd">
<!-- Generated by graphviz version 2.43.0 (0)
 -->
<!-- Title: Graphical Class Hierarchy Pages: 1 -->
<svg width="508pt" height="186pt"
 viewBox="0.00 0.00 508.00 186.00" xmlns="http://www.w3.org/2000/svg" xmlns:xlink="http://www.w3.org/1999/xlink">
<g id="graph0" class="graph" transform="scale(1 1) rotate(0) translate(4 182)">
<title>Graphical Class Hierarchy</title>
<polygon fill="white" stroke="transparent" points="-4,4 -4,-182 504,-182 504,4 -4,4"/>
<!-- Node1 -->
<g id="node1" class="node">
<title>Node1</title>
<g id="a_node1"><a xlink:href="classgr_1_1aff3ct__codes_1_1CCSDS__Pseudo__Randomizer__impl.html" target="_top" xlink:title=" ">
<polygon fill="white" stroke="black" points="0,-98.5 0,-128.5 148,-128.5 148,-98.5 0,-98.5"/>
<text text-anchor="start" x="8" y="-116.5" font-family="Helvetica,sans-Serif" font-size="10.00">gr::aff3ct_codes::CCSDS</text>
<text text-anchor="middle" x="74" y="-105.5" font-family="Helvetica,sans-Serif" font-size="10.00">_Pseudo_Randomizer_impl</text>
</a>
</g>
</g>
<!-- Node0 -->
<g id="node2" class="node">
<title>Node0</title>
<g id="a_node2"><a xlink:href="classgr_1_1aff3ct__codes_1_1CCSDS__Pseudo__Randomizer.html" target="_top" xlink:title="&lt;+description of block+&gt;">
<polygon fill="white" stroke="black" points="187,-147.5 187,-177.5 321,-177.5 321,-147.5 187,-147.5"/>
<text text-anchor="start" x="195" y="-165.5" font-family="Helvetica,sans-Serif" font-size="10.00">gr::aff3ct_codes::CCSDS</text>
<text text-anchor="middle" x="254" y="-154.5" font-family="Helvetica,sans-Serif" font-size="10.00">_Pseudo_Randomizer</text>
</a>
</g>
</g>
<!-- Node1&#45;&gt;Node0 -->
<g id="edge1" class="edge">
<title>Node1&#45;&gt;Node0</title>
<path fill="none" stroke="midnightblue" d="M157.87,-129.58C179.08,-135.32 200.76,-141.7 218.05,-147.39"/>
<polygon fill="midnightblue" stroke="midnightblue" points="158.73,-126.19 148.17,-126.99 156.93,-132.95 158.73,-126.19"/>
</g>
<!-- Node4 -->
<g id="node3" class="node">
<title>Node4</title>
<g id="a_node3"><a xlink:href="classgr_1_1aff3ct__codes_1_1Frame__Extract2.html" target="_top" xlink:title="&lt;+description of block+&gt;">
<polygon fill="white" stroke="black" points="188.5,-98.5 188.5,-128.5 319.5,-128.5 319.5,-98.5 188.5,-98.5"/>
<text text-anchor="start" x="196.5" y="-116.5" font-family="Helvetica,sans-Serif" font-size="10.00">gr::aff3ct_codes::Frame</text>
<text text-anchor="middle" x="254" y="-105.5" font-family="Helvetica,sans-Serif" font-size="10.00">_Extract2</text>
</a>
</g>
</g>
<!-- Node1&#45;&gt;Node4 -->
<g id="edge3" class="edge">
<title>Node1&#45;&gt;Node4</title>
<path fill="none" stroke="midnightblue" d="M158.24,-113.5C168.36,-113.5 178.58,-113.5 188.38,-113.5"/>
<polygon fill="midnightblue" stroke="midnightblue" points="158.17,-110 148.17,-113.5 158.17,-117 158.17,-110"/>
</g>
<!-- Node6 -->
<g id="node5" class="node">
<title>Node6</title>
<g id="a_node5"><a xlink:href="classgr_1_1aff3ct__codes_1_1Resolve__Phase2.html" target="_top" xlink:title="&lt;+description of block+&gt;">
<polygon fill="white" stroke="black" points="184,-49.5 184,-79.5 324,-79.5 324,-49.5 184,-49.5"/>
<text text-anchor="start" x="192" y="-67.5" font-family="Helvetica,sans-Serif" font-size="10.00">gr::aff3ct_codes::Resolve</text>
<text text-anchor="middle" x="254" y="-56.5" font-family="Helvetica,sans-Serif" font-size="10.00">_Phase2</text>
</a>
</g>
</g>
<!-- Node1&#45;&gt;Node6 -->
<g id="edge5" class="edge">
<title>Node1&#45;&gt;Node6</title>
<path fill="none" stroke="midnightblue" d="M139.74,-95.68C158.96,-90.39 179.81,-84.65 198.32,-79.55"/>
<polygon fill="midnightblue" stroke="midnightblue" points="138.57,-92.37 129.86,-98.4 140.43,-99.12 138.57,-92.37"/>
</g>
<!-- Node8 -->
<g id="node7" class="node">
<title>Node8</title>
<g id="a_node7"><a xlink:href="classgr_1_1aff3ct__codes_1_1ccsds__ldpc__decoder.html" target="_top" xlink:title="&lt;+description of block+&gt;">
<polygon fill="white" stroke="black" points="190,-0.5 190,-30.5 318,-30.5 318,-0.5 190,-0.5"/>
<text text-anchor="start" x="198" y="-18.5" font-family="Helvetica,sans-Serif" font-size="10.00">gr::aff3ct_codes::ccsds</text>
<text text-anchor="middle" x="254" y="-7.5" font-family="Helvetica,sans-Serif" font-size="10.00">_ldpc_decoder</text>
</a>
</g>
</g>
<!-- Node1&#45;&gt;Node8 -->
<g id="edge7" class="edge">
<title>Node1&#45;&gt;Node8</title>
<path fill="none" stroke="midnightblue" d="M102.86,-92.08C124.23,-76.35 154.89,-55.24 184,-40.5 191.16,-36.87 198.98,-33.52 206.69,-30.52"/>
<polygon fill="midnightblue" stroke="midnightblue" points="100.52,-89.46 94.59,-98.24 104.7,-95.07 100.52,-89.46"/>
</g>
<!-- Node0&#45;&gt;Node1 -->
<g id="edge2" class="edge">
<title>Node0&#45;&gt;Node1</title>
<path fill="none" stroke="midnightblue" d="M177.05,-148.28C153.62,-142.06 128.95,-134.87 109.74,-128.54"/>
<polygon fill="midnightblue" stroke="midnightblue" points="176.44,-151.73 187,-150.88 178.2,-144.96 176.44,-151.73"/>
</g>
<!-- Node5 -->
<g id="node4" class="node">
<title>Node5</title>
<g id="a_node4"><a xlink:href="classgr_1_1aff3ct__codes_1_1Frame__Extract2__impl.html" target="_top" xlink:title=" ">
<polygon fill="white" stroke="black" points="364.5,-98.5 364.5,-128.5 495.5,-128.5 495.5,-98.5 364.5,-98.5"/>
<text text-anchor="start" x="372.5" y="-116.5" font-family="Helvetica,sans-Serif" font-size="10.00">gr::aff3ct_codes::Frame</text>
<text text-anchor="middle" x="430" y="-105.5" font-family="Helvetica,sans-Serif" font-size="10.00">_Extract2_impl</text>
</a>
</g>
</g>
<!-- Node4&#45;&gt;Node5 -->
<g id="edge4" class="edge">
<title>Node4&#45;&gt;Node5</title>
<path fill="none" stroke="midnightblue" d="M329.82,-113.5C341.35,-113.5 353.17,-113.5 364.44,-113.5"/>
<polygon fill="midnightblue" stroke="midnightblue" points="329.79,-110 319.79,-113.5 329.79,-117 329.79,-110"/>
</g>
<!-- Node7 -->
<g id="node6" class="node">
<title>Node7</title>
<g id="a_node6"><a xlink:href="classgr_1_1aff3ct__codes_1_1Resolve__Phase2__impl.html" target="_top" xlink:title=" ">
<polygon fill="white" stroke="black" points="360,-49.5 360,-79.5 500,-79.5 500,-49.5 360,-49.5"/>
<text text-anchor="start" x="368" y="-67.5" font-family="Helvetica,sans-Serif" font-size="10.00">gr::aff3ct_codes::Resolve</text>
<text text-anchor="middle" x="430" y="-56.5" font-family="Helvetica,sans-Serif" font-size="10.00">_Phase2_impl</text>
</a>
</g>
</g>
<!-- Node6&#45;&gt;Node7 -->
<g id="edge6" class="edge">
<title>Node6&#45;&gt;Node7</title>
<path fill="none" stroke="midnightblue" d="M334.03,-64.5C342.62,-64.5 351.32,-64.5 359.78,-64.5"/>
<polygon fill="midnightblue" stroke="midnightblue" points="334.02,-61 324.02,-64.5 334.02,-68 334.02,-61"/>
</g>
<!-- Node9 -->
<g id="node8" class="node">
<title>Node9</title>
<g id="a_node8"><a xlink:href="classgr_1_1aff3ct__codes_1_1ccsds__ldpc__decoder__impl.html" target="_top" xlink:title=" ">
<polygon fill="white" stroke="black" points="366,-0.5 366,-30.5 494,-30.5 494,-0.5 366,-0.5"/>
<text text-anchor="start" x="374" y="-18.5" font-family="Helvetica,sans-Serif" font-size="10.00">gr::aff3ct_codes::ccsds</text>
<text text-anchor="middle" x="430" y="-7.5" font-family="Helvetica,sans-Serif" font-size="10.00">_ldpc_decoder_impl</text>
</a>
</g>
</g>
<!-- Node8&#45;&gt;Node9 -->
<g id="edge8" class="edge">
<title>Node8&#45;&gt;Node9</title>
<path fill="none" stroke="midnightblue" d="M328.58,-15.5C340.94,-15.5 353.67,-15.5 365.74,-15.5"/>
<polygon fill="midnightblue" stroke="midnightblue" points="328.31,-12 318.31,-15.5 328.31,-19 328.31,-12"/>
</g>
</g>
</svg>
