<?xml version="1.0" encoding="UTF-8" standalone="no"?>
<!DOCTYPE svg PUBLIC "-//W3C//DTD SVG 1.1//EN"
 "http://www.w3.org/Graphics/SVG/1.1/DTD/svg11.dtd">
<!-- Generated by graphviz version 2.43.0 (0)
 -->
<!-- Title: Graphical Class Hierarchy Pages: 1 -->
<svg width="428pt" height="66pt"
 viewBox="0.00 0.00 428.00 66.00" xmlns="http://www.w3.org/2000/svg" xmlns:xlink="http://www.w3.org/1999/xlink">
<g id="graph0" class="graph" transform="scale(1 1) rotate(0) translate(4 62)">
<title>Graphical Class Hierarchy</title>
<polygon fill="white" stroke="transparent" points="-4,4 -4,-62 424,-62 424,4 -4,4"/>
<!-- Node38 -->
<g id="node1" class="node">
<title>Node38</title>
<g id="a_node1"><a xlink:title=" ">
<polygon fill="white" stroke="#bfbfbf" points="0,-19.5 0,-38.5 86,-38.5 86,-19.5 0,-19.5"/>
<text text-anchor="middle" x="43" y="-26.5" font-family="Helvetica,sans-Serif" font-size="10.00">std::exception</text>
</a>
</g>
</g>
<!-- Node39 -->
<g id="node2" class="node">
<title>Node39</title>
<g id="a_node2"><a xlink:title=" ">
<polygon fill="white" stroke="#bfbfbf" points="122,-19.5 122,-38.5 226,-38.5 226,-19.5 122,-19.5"/>
<text text-anchor="middle" x="174" y="-26.5" font-family="Helvetica,sans-Serif" font-size="10.00">std::runtime_error</text>
</a>
</g>
</g>
<!-- Node38&#45;&gt;Node39 -->
<g id="edge1" class="edge">
<title>Node38&#45;&gt;Node39</title>
<path fill="none" stroke="midnightblue" d="M96.27,-29C104.65,-29 113.31,-29 121.66,-29"/>
<polygon fill="midnightblue" stroke="midnightblue" points="96.24,-25.5 86.24,-29 96.24,-32.5 96.24,-25.5"/>
</g>
<!-- Node0 -->
<g id="node3" class="node">
<title>Node0</title>
<g id="a_node3"><a xlink:href="classdate_1_1ambiguous__local__time.html" target="_top" xlink:title=" ">
<polygon fill="white" stroke="black" points="263.5,-38.5 263.5,-57.5 418.5,-57.5 418.5,-38.5 263.5,-38.5"/>
<text text-anchor="middle" x="341" y="-45.5" font-family="Helvetica,sans-Serif" font-size="10.00">date::ambiguous_local_time</text>
</a>
</g>
</g>
<!-- Node39&#45;&gt;Node0 -->
<g id="edge2" class="edge">
<title>Node39&#45;&gt;Node0</title>
<path fill="none" stroke="midnightblue" d="M236.41,-36.07C245.17,-37.08 254.28,-38.13 263.29,-39.17"/>
<polygon fill="midnightblue" stroke="midnightblue" points="236.64,-32.57 226.3,-34.91 235.84,-39.53 236.64,-32.57"/>
</g>
<!-- Node41 -->
<g id="node4" class="node">
<title>Node41</title>
<g id="a_node4"><a xlink:href="classdate_1_1nonexistent__local__time.html" target="_top" xlink:title=" ">
<polygon fill="white" stroke="black" points="262,-0.5 262,-19.5 420,-19.5 420,-0.5 262,-0.5"/>
<text text-anchor="middle" x="341" y="-7.5" font-family="Helvetica,sans-Serif" font-size="10.00">date::nonexistent_local_time</text>
</a>
</g>
</g>
<!-- Node39&#45;&gt;Node41 -->
<g id="edge3" class="edge">
<title>Node39&#45;&gt;Node41</title>
<path fill="none" stroke="midnightblue" d="M236.27,-21.94C244.58,-20.99 253.21,-19.99 261.77,-19.01"/>
<polygon fill="midnightblue" stroke="midnightblue" points="235.84,-18.47 226.3,-23.09 236.64,-25.43 235.84,-18.47"/>
</g>
</g>
</svg>
