<?xml version="1.0" encoding="UTF-8" standalone="no"?>
<!DOCTYPE svg PUBLIC "-//W3C//DTD SVG 1.1//EN"
 "http://www.w3.org/Graphics/SVG/1.1/DTD/svg11.dtd">
<!-- Generated by graphviz version 2.43.0 (0)
 -->
<!-- Title: Graphical Class Hierarchy Pages: 1 -->
<svg width="427pt" height="235pt"
 viewBox="0.00 0.00 427.00 235.00" xmlns="http://www.w3.org/2000/svg" xmlns:xlink="http://www.w3.org/1999/xlink">
<g id="graph0" class="graph" transform="scale(1 1) rotate(0) translate(4 231)">
<title>Graphical Class Hierarchy</title>
<polygon fill="white" stroke="transparent" points="-4,4 -4,-231 423,-231 423,4 -4,4"/>
<!-- Node6 -->
<g id="node1" class="node">
<title>Node6</title>
<g id="a_node1"><a xlink:title=" ">
<polygon fill="white" stroke="#bfbfbf" points="0,-104 0,-123 59,-123 59,-104 0,-104"/>
<text text-anchor="middle" x="29.5" y="-111" font-family="Helvetica,sans-Serif" font-size="10.00">gr::block</text>
</a>
</g>
</g>
<!-- Node0 -->
<g id="node2" class="node">
<title>Node0</title>
<g id="a_node2"><a xlink:href="classgr_1_1aff3ct__codes_1_1CCSDS__Pseudo__Randomizer.html" target="_top" xlink:title="&lt;+description of block+&gt;">
<polygon fill="white" stroke="black" points="98,-196.5 98,-226.5 232,-226.5 232,-196.5 98,-196.5"/>
<text text-anchor="start" x="106" y="-214.5" font-family="Helvetica,sans-Serif" font-size="10.00">gr::aff3ct_codes::CCSDS</text>
<text text-anchor="middle" x="165" y="-203.5" font-family="Helvetica,sans-Serif" font-size="10.00">_Pseudo_Randomizer</text>
</a>
</g>
</g>
<!-- Node6&#45;&gt;Node0 -->
<g id="edge1" class="edge">
<title>Node6&#45;&gt;Node0</title>
<path fill="none" stroke="midnightblue" d="M42.05,-131.44C53.61,-148.1 72.84,-172.52 95,-187.5 100.04,-190.91 105.62,-193.88 111.36,-196.47"/>
<polygon fill="midnightblue" stroke="midnightblue" points="44.92,-129.44 36.44,-123.09 39.11,-133.34 44.92,-129.44"/>
</g>
<!-- Node9 -->
<g id="node4" class="node">
<title>Node9</title>
<g id="a_node4"><a xlink:href="classgr_1_1aff3ct__codes_1_1Frame__Extract2.html" target="_top" xlink:title="&lt;+description of block+&gt;">
<polygon fill="white" stroke="black" points="99.5,-147.5 99.5,-177.5 230.5,-177.5 230.5,-147.5 99.5,-147.5"/>
<text text-anchor="start" x="107.5" y="-165.5" font-family="Helvetica,sans-Serif" font-size="10.00">gr::aff3ct_codes::Frame</text>
<text text-anchor="middle" x="165" y="-154.5" font-family="Helvetica,sans-Serif" font-size="10.00">_Extract2</text>
</a>
</g>
</g>
<!-- Node6&#45;&gt;Node9 -->
<g id="edge3" class="edge">
<title>Node6&#45;&gt;Node9</title>
<path fill="none" stroke="midnightblue" d="M64.14,-126.8C74.05,-130.64 84.94,-134.8 95,-138.5 103.09,-141.48 111.76,-144.56 120.12,-147.49"/>
<polygon fill="midnightblue" stroke="midnightblue" points="65.21,-123.46 54.62,-123.08 62.66,-129.98 65.21,-123.46"/>
</g>
<!-- Node11 -->
<g id="node6" class="node">
<title>Node11</title>
<g id="a_node6"><a xlink:href="classgr_1_1aff3ct__codes_1_1Frame__ExtractOQPSK.html" target="_top" xlink:title="&lt;+description of block+&gt;">
<polygon fill="white" stroke="black" points="99.5,-98.5 99.5,-128.5 230.5,-128.5 230.5,-98.5 99.5,-98.5"/>
<text text-anchor="start" x="107.5" y="-116.5" font-family="Helvetica,sans-Serif" font-size="10.00">gr::aff3ct_codes::Frame</text>
<text text-anchor="middle" x="165" y="-105.5" font-family="Helvetica,sans-Serif" font-size="10.00">_ExtractOQPSK</text>
</a>
</g>
</g>
<!-- Node6&#45;&gt;Node11 -->
<g id="edge5" class="edge">
<title>Node6&#45;&gt;Node11</title>
<path fill="none" stroke="midnightblue" d="M69.37,-113.5C78.82,-113.5 89.18,-113.5 99.47,-113.5"/>
<polygon fill="midnightblue" stroke="midnightblue" points="69.14,-110 59.14,-113.5 69.14,-117 69.14,-110"/>
</g>
<!-- Node13 -->
<g id="node8" class="node">
<title>Node13</title>
<g id="a_node8"><a xlink:href="classgr_1_1aff3ct__codes_1_1Resolve__Phase2.html" target="_top" xlink:title="&lt;+description of block+&gt;">
<polygon fill="white" stroke="black" points="95,-49.5 95,-79.5 235,-79.5 235,-49.5 95,-49.5"/>
<text text-anchor="start" x="103" y="-67.5" font-family="Helvetica,sans-Serif" font-size="10.00">gr::aff3ct_codes::Resolve</text>
<text text-anchor="middle" x="165" y="-56.5" font-family="Helvetica,sans-Serif" font-size="10.00">_Phase2</text>
</a>
</g>
</g>
<!-- Node6&#45;&gt;Node13 -->
<g id="edge7" class="edge">
<title>Node6&#45;&gt;Node13</title>
<path fill="none" stroke="midnightblue" d="M65.51,-100.41C75.07,-96.85 85.43,-93.02 95,-89.5 103.85,-86.25 113.35,-82.79 122.38,-79.51"/>
<polygon fill="midnightblue" stroke="midnightblue" points="64.06,-97.22 55.91,-103.99 66.5,-103.78 64.06,-97.22"/>
</g>
<!-- Node15 -->
<g id="node10" class="node">
<title>Node15</title>
<g id="a_node10"><a xlink:href="classgr_1_1aff3ct__codes_1_1ccsds__ldpc__decoder.html" target="_top" xlink:title="&lt;+description of block+&gt;">
<polygon fill="white" stroke="black" points="101,-0.5 101,-30.5 229,-30.5 229,-0.5 101,-0.5"/>
<text text-anchor="start" x="109" y="-18.5" font-family="Helvetica,sans-Serif" font-size="10.00">gr::aff3ct_codes::ccsds</text>
<text text-anchor="middle" x="165" y="-7.5" font-family="Helvetica,sans-Serif" font-size="10.00">_ldpc_decoder</text>
</a>
</g>
</g>
<!-- Node6&#45;&gt;Node15 -->
<g id="edge9" class="edge">
<title>Node6&#45;&gt;Node15</title>
<path fill="none" stroke="midnightblue" d="M42.52,-95.34C54.19,-78.97 73.29,-55.27 95,-40.5 100.58,-36.7 106.81,-33.4 113.18,-30.56"/>
<polygon fill="midnightblue" stroke="midnightblue" points="39.63,-93.36 36.83,-103.58 45.39,-97.34 39.63,-93.36"/>
</g>
<!-- Node1 -->
<g id="node3" class="node">
<title>Node1</title>
<g id="a_node3"><a xlink:href="classgr_1_1aff3ct__codes_1_1CCSDS__Pseudo__Randomizer__impl.html" target="_top" xlink:title=" ">
<polygon fill="white" stroke="black" points="271,-196.5 271,-226.5 419,-226.5 419,-196.5 271,-196.5"/>
<text text-anchor="start" x="279" y="-214.5" font-family="Helvetica,sans-Serif" font-size="10.00">gr::aff3ct_codes::CCSDS</text>
<text text-anchor="middle" x="345" y="-203.5" font-family="Helvetica,sans-Serif" font-size="10.00">_Pseudo_Randomizer_impl</text>
</a>
</g>
</g>
<!-- Node0&#45;&gt;Node1 -->
<g id="edge2" class="edge">
<title>Node0&#45;&gt;Node1</title>
<path fill="none" stroke="midnightblue" d="M242.24,-211.5C251.74,-211.5 261.44,-211.5 270.89,-211.5"/>
<polygon fill="midnightblue" stroke="midnightblue" points="242.03,-208 232.03,-211.5 242.03,-215 242.03,-208"/>
</g>
<!-- Node10 -->
<g id="node5" class="node">
<title>Node10</title>
<g id="a_node5"><a xlink:href="classgr_1_1aff3ct__codes_1_1Frame__Extract2__impl.html" target="_top" xlink:title=" ">
<polygon fill="white" stroke="black" points="279.5,-147.5 279.5,-177.5 410.5,-177.5 410.5,-147.5 279.5,-147.5"/>
<text text-anchor="start" x="287.5" y="-165.5" font-family="Helvetica,sans-Serif" font-size="10.00">gr::aff3ct_codes::Frame</text>
<text text-anchor="middle" x="345" y="-154.5" font-family="Helvetica,sans-Serif" font-size="10.00">_Extract2_impl</text>
</a>
</g>
</g>
<!-- Node9&#45;&gt;Node10 -->
<g id="edge4" class="edge">
<title>Node9&#45;&gt;Node10</title>
<path fill="none" stroke="midnightblue" d="M240.72,-162.5C253.58,-162.5 266.84,-162.5 279.41,-162.5"/>
<polygon fill="midnightblue" stroke="midnightblue" points="240.51,-159 230.51,-162.5 240.51,-166 240.51,-159"/>
</g>
<!-- Node12 -->
<g id="node7" class="node">
<title>Node12</title>
<g id="a_node7"><a xlink:href="classgr_1_1aff3ct__codes_1_1Frame__ExtractOQPSK__impl.html" target="_top" xlink:title=" ">
<polygon fill="white" stroke="black" points="279.5,-98.5 279.5,-128.5 410.5,-128.5 410.5,-98.5 279.5,-98.5"/>
<text text-anchor="start" x="287.5" y="-116.5" font-family="Helvetica,sans-Serif" font-size="10.00">gr::aff3ct_codes::Frame</text>
<text text-anchor="middle" x="345" y="-105.5" font-family="Helvetica,sans-Serif" font-size="10.00">_ExtractOQPSK_impl</text>
</a>
</g>
</g>
<!-- Node11&#45;&gt;Node12 -->
<g id="edge6" class="edge">
<title>Node11&#45;&gt;Node12</title>
<path fill="none" stroke="midnightblue" d="M240.72,-113.5C253.58,-113.5 266.84,-113.5 279.41,-113.5"/>
<polygon fill="midnightblue" stroke="midnightblue" points="240.51,-110 230.51,-113.5 240.51,-117 240.51,-110"/>
</g>
<!-- Node14 -->
<g id="node9" class="node">
<title>Node14</title>
<g id="a_node9"><a xlink:href="classgr_1_1aff3ct__codes_1_1Resolve__Phase2__impl.html" target="_top" xlink:title=" ">
<polygon fill="white" stroke="black" points="275,-49.5 275,-79.5 415,-79.5 415,-49.5 275,-49.5"/>
<text text-anchor="start" x="283" y="-67.5" font-family="Helvetica,sans-Serif" font-size="10.00">gr::aff3ct_codes::Resolve</text>
<text text-anchor="middle" x="345" y="-56.5" font-family="Helvetica,sans-Serif" font-size="10.00">_Phase2_impl</text>
</a>
</g>
</g>
<!-- Node13&#45;&gt;Node14 -->
<g id="edge8" class="edge">
<title>Node13&#45;&gt;Node14</title>
<path fill="none" stroke="midnightblue" d="M245.3,-64.5C255.19,-64.5 265.25,-64.5 274.96,-64.5"/>
<polygon fill="midnightblue" stroke="midnightblue" points="245.07,-61 235.07,-64.5 245.07,-68 245.07,-61"/>
</g>
<!-- Node16 -->
<g id="node11" class="node">
<title>Node16</title>
<g id="a_node11"><a xlink:href="classgr_1_1aff3ct__codes_1_1ccsds__ldpc__decoder__impl.html" target="_top" xlink:title=" ">
<polygon fill="white" stroke="black" points="281,-0.5 281,-30.5 409,-30.5 409,-0.5 281,-0.5"/>
<text text-anchor="start" x="289" y="-18.5" font-family="Helvetica,sans-Serif" font-size="10.00">gr::aff3ct_codes::ccsds</text>
<text text-anchor="middle" x="345" y="-7.5" font-family="Helvetica,sans-Serif" font-size="10.00">_ldpc_decoder_impl</text>
</a>
</g>
</g>
<!-- Node15&#45;&gt;Node16 -->
<g id="edge10" class="edge">
<title>Node15&#45;&gt;Node16</title>
<path fill="none" stroke="midnightblue" d="M239.39,-15.5C253.13,-15.5 267.38,-15.5 280.78,-15.5"/>
<polygon fill="midnightblue" stroke="midnightblue" points="239.01,-12 229.01,-15.5 239.01,-19 239.01,-12"/>
</g>
</g>
</svg>
