<?xml version="1.0" encoding="UTF-8" standalone="no"?>
<!DOCTYPE svg PUBLIC "-//W3C//DTD SVG 1.1//EN"
 "http://www.w3.org/Graphics/SVG/1.1/DTD/svg11.dtd">
<!-- Generated by graphviz version 2.43.0 (0)
 -->
<!-- Title: Graphical Class Hierarchy Pages: 1 -->
<svg width="409pt" height="39pt"
 viewBox="0.00 0.00 409.00 39.00" xmlns="http://www.w3.org/2000/svg" xmlns:xlink="http://www.w3.org/1999/xlink">
<g id="graph0" class="graph" transform="scale(1 1) rotate(0) translate(4 35)">
<title>Graphical Class Hierarchy</title>
<polygon fill="white" stroke="transparent" points="-4,4 -4,-35 405,-35 405,4 -4,4"/>
<!-- Node251 -->
<g id="node1" class="node">
<title>Node251</title>
<g id="a_node1"><a xlink:title=" ">
<polygon fill="white" stroke="#bfbfbf" points="0,-6 0,-25 86,-25 86,-6 0,-6"/>
<text text-anchor="middle" x="43" y="-13" font-family="Helvetica,sans-Serif" font-size="10.00">gr::sync_block</text>
</a>
</g>
</g>
<!-- Node0 -->
<g id="node2" class="node">
<title>Node0</title>
<g id="a_node2"><a xlink:href="classgr_1_1aff3ct__codes_1_1Tag__FrameASM64__ff.html" target="_top" xlink:title="&lt;+description of block+&gt;">
<polygon fill="white" stroke="black" points="122,-0.5 122,-30.5 239,-30.5 239,-0.5 122,-0.5"/>
<text text-anchor="start" x="130" y="-18.5" font-family="Helvetica,sans-Serif" font-size="10.00">gr::aff3ct_codes::Tag</text>
<text text-anchor="middle" x="180.5" y="-7.5" font-family="Helvetica,sans-Serif" font-size="10.00">_FrameASM64_ff</text>
</a>
</g>
</g>
<!-- Node251&#45;&gt;Node0 -->
<g id="edge1" class="edge">
<title>Node251&#45;&gt;Node0</title>
<path fill="none" stroke="midnightblue" d="M96.21,-15.5C104.64,-15.5 113.42,-15.5 121.97,-15.5"/>
<polygon fill="midnightblue" stroke="midnightblue" points="96.13,-12 86.13,-15.5 96.13,-19 96.13,-12"/>
</g>
<!-- Node1 -->
<g id="node3" class="node">
<title>Node1</title>
<g id="a_node3"><a xlink:href="classgr_1_1aff3ct__codes_1_1Tag__FrameASM64__ff__impl.html" target="_top" xlink:title=" ">
<polygon fill="white" stroke="black" points="275,-0.5 275,-30.5 401,-30.5 401,-0.5 275,-0.5"/>
<text text-anchor="start" x="283" y="-18.5" font-family="Helvetica,sans-Serif" font-size="10.00">gr::aff3ct_codes::Tag</text>
<text text-anchor="middle" x="338" y="-7.5" font-family="Helvetica,sans-Serif" font-size="10.00">_FrameASM64_ff_impl</text>
</a>
</g>
</g>
<!-- Node0&#45;&gt;Node1 -->
<g id="edge2" class="edge">
<title>Node0&#45;&gt;Node1</title>
<path fill="none" stroke="midnightblue" d="M249.57,-15.5C257.98,-15.5 266.56,-15.5 274.88,-15.5"/>
<polygon fill="midnightblue" stroke="midnightblue" points="249.4,-12 239.4,-15.5 249.4,-19 249.4,-12"/>
</g>
</g>
</svg>
