<?xml version="1.0" encoding="UTF-8" standalone="no"?>
<!DOCTYPE svg PUBLIC "-//W3C//DTD SVG 1.1//EN"
 "http://www.w3.org/Graphics/SVG/1.1/DTD/svg11.dtd">
<!-- Generated by graphviz version 2.43.0 (0)
 -->
<!-- Title: iso_week.h Pages: 1 -->
<svg width="1581pt" height="140pt"
 viewBox="0.00 0.00 1580.50 140.00" xmlns="http://www.w3.org/2000/svg" xmlns:xlink="http://www.w3.org/1999/xlink">
<g id="graph0" class="graph" transform="scale(1 1) rotate(0) translate(4 136)">
<title>iso_week.h</title>
<polygon fill="white" stroke="transparent" points="-4,4 -4,-136 1576.5,-136 1576.5,4 -4,4"/>
<!-- Node1 -->
<g id="node1" class="node">
<title>Node1</title>
<g id="a_node1"><a xlink:title=" ">
<polygon fill="#bfbfbf" stroke="black" points="360.5,-112.5 360.5,-131.5 431.5,-131.5 431.5,-112.5 360.5,-112.5"/>
<text text-anchor="middle" x="396" y="-119.5" font-family="Helvetica,sans-Serif" font-size="10.00">iso_week.h</text>
</a>
</g>
</g>
<!-- Node2 -->
<g id="node2" class="node">
<title>Node2</title>
<g id="a_node2"><a xlink:href="date_8h.html" target="_top" xlink:title=" ">
<polygon fill="white" stroke="black" points="713.5,-56.5 713.5,-75.5 760.5,-75.5 760.5,-56.5 713.5,-56.5"/>
<text text-anchor="middle" x="737" y="-63.5" font-family="Helvetica,sans-Serif" font-size="10.00">date.h</text>
</a>
</g>
</g>
<!-- Node1&#45;&gt;Node2 -->
<g id="edge1" class="edge">
<title>Node1&#45;&gt;Node2</title>
<path fill="none" stroke="midnightblue" d="M431.53,-115.37C497.62,-104.91 638.6,-82.58 703.29,-72.34"/>
<polygon fill="midnightblue" stroke="midnightblue" points="704.03,-75.77 713.36,-70.74 702.93,-68.85 704.03,-75.77"/>
</g>
<!-- Node7 -->
<g id="node7" class="node">
<title>Node7</title>
<g id="a_node7"><a xlink:title=" ">
<polygon fill="white" stroke="#bfbfbf" points="0,-0.5 0,-19.5 50,-19.5 50,-0.5 0,-0.5"/>
<text text-anchor="middle" x="25" y="-7.5" font-family="Helvetica,sans-Serif" font-size="10.00">climits</text>
</a>
</g>
</g>
<!-- Node1&#45;&gt;Node7 -->
<g id="edge25" class="edge">
<title>Node1&#45;&gt;Node7</title>
<path fill="none" stroke="midnightblue" d="M367.2,-112.46C299.88,-92.5 132.45,-42.86 59.68,-21.28"/>
<polygon fill="midnightblue" stroke="midnightblue" points="60.65,-17.92 50.06,-18.43 58.66,-24.63 60.65,-17.92"/>
</g>
<!-- Node3 -->
<g id="node3" class="node">
<title>Node3</title>
<g id="a_node3"><a xlink:title=" ">
<polygon fill="white" stroke="#bfbfbf" points="68,-0.5 68,-19.5 120,-19.5 120,-0.5 68,-0.5"/>
<text text-anchor="middle" x="94" y="-7.5" font-family="Helvetica,sans-Serif" font-size="10.00">cassert</text>
</a>
</g>
</g>
<!-- Node2&#45;&gt;Node3 -->
<g id="edge2" class="edge">
<title>Node2&#45;&gt;Node3</title>
<path fill="none" stroke="midnightblue" d="M713.35,-64.76C632.86,-63.62 362.16,-57.19 130.24,-19.91"/>
<polygon fill="midnightblue" stroke="midnightblue" points="130.7,-16.44 120.27,-18.29 129.57,-23.35 130.7,-16.44"/>
</g>
<!-- Node4 -->
<g id="node4" class="node">
<title>Node4</title>
<g id="a_node4"><a xlink:title=" ">
<polygon fill="white" stroke="#bfbfbf" points="138,-0.5 138,-19.5 202,-19.5 202,-0.5 138,-0.5"/>
<text text-anchor="middle" x="170" y="-7.5" font-family="Helvetica,sans-Serif" font-size="10.00">algorithm</text>
</a>
</g>
</g>
<!-- Node2&#45;&gt;Node4 -->
<g id="edge3" class="edge">
<title>Node2&#45;&gt;Node4</title>
<path fill="none" stroke="midnightblue" d="M713.33,-64.03C639.08,-60.77 404.26,-48.72 212,-20 211.9,-19.98 211.8,-19.97 211.7,-19.95"/>
<polygon fill="midnightblue" stroke="midnightblue" points="212.48,-16.54 202.03,-18.3 211.29,-23.44 212.48,-16.54"/>
</g>
<!-- Node5 -->
<g id="node5" class="node">
<title>Node5</title>
<g id="a_node5"><a xlink:title=" ">
<polygon fill="white" stroke="#bfbfbf" points="220.5,-0.5 220.5,-19.5 269.5,-19.5 269.5,-0.5 220.5,-0.5"/>
<text text-anchor="middle" x="245" y="-7.5" font-family="Helvetica,sans-Serif" font-size="10.00">cctype</text>
</a>
</g>
</g>
<!-- Node2&#45;&gt;Node5 -->
<g id="edge4" class="edge">
<title>Node2&#45;&gt;Node5</title>
<path fill="none" stroke="midnightblue" d="M713.46,-64.02C646.86,-60.98 451.37,-50.12 279.75,-19.84"/>
<polygon fill="midnightblue" stroke="midnightblue" points="280.24,-16.37 269.78,-18.05 279.01,-23.26 280.24,-16.37"/>
</g>
<!-- Node6 -->
<g id="node6" class="node">
<title>Node6</title>
<g id="a_node6"><a xlink:title=" ">
<polygon fill="white" stroke="#bfbfbf" points="288,-0.5 288,-19.5 338,-19.5 338,-0.5 288,-0.5"/>
<text text-anchor="middle" x="313" y="-7.5" font-family="Helvetica,sans-Serif" font-size="10.00">chrono</text>
</a>
</g>
</g>
<!-- Node2&#45;&gt;Node6 -->
<g id="edge5" class="edge">
<title>Node2&#45;&gt;Node6</title>
<path fill="none" stroke="midnightblue" d="M713.15,-63.38C652.04,-58.99 485.03,-45.42 348,-20 347.9,-19.98 347.8,-19.96 347.7,-19.94"/>
<polygon fill="midnightblue" stroke="midnightblue" points="348.65,-16.57 338.14,-17.9 347.19,-23.41 348.65,-16.57"/>
</g>
<!-- Node2&#45;&gt;Node7 -->
<g id="edge6" class="edge">
<title>Node2&#45;&gt;Node7</title>
<path fill="none" stroke="midnightblue" d="M713.39,-65.07C627.11,-64.99 320.7,-61.7 60.16,-19.86"/>
<polygon fill="midnightblue" stroke="midnightblue" points="60.57,-16.38 50.13,-18.23 59.44,-23.29 60.57,-16.38"/>
</g>
<!-- Node8 -->
<g id="node8" class="node">
<title>Node8</title>
<g id="a_node8"><a xlink:title=" ">
<polygon fill="white" stroke="#bfbfbf" points="356.5,-0.5 356.5,-19.5 403.5,-19.5 403.5,-0.5 356.5,-0.5"/>
<text text-anchor="middle" x="380" y="-7.5" font-family="Helvetica,sans-Serif" font-size="10.00">cmath</text>
</a>
</g>
</g>
<!-- Node2&#45;&gt;Node8 -->
<g id="edge7" class="edge">
<title>Node2&#45;&gt;Node8</title>
<path fill="none" stroke="midnightblue" d="M713.24,-62.76C660.9,-57.59 531.6,-43.6 413.63,-19.88"/>
<polygon fill="midnightblue" stroke="midnightblue" points="414.2,-16.42 403.71,-17.86 412.8,-23.28 414.2,-16.42"/>
</g>
<!-- Node9 -->
<g id="node9" class="node">
<title>Node9</title>
<g id="a_node9"><a xlink:title=" ">
<polygon fill="white" stroke="#bfbfbf" points="421.5,-0.5 421.5,-19.5 474.5,-19.5 474.5,-0.5 421.5,-0.5"/>
<text text-anchor="middle" x="448" y="-7.5" font-family="Helvetica,sans-Serif" font-size="10.00">cstddef</text>
</a>
</g>
</g>
<!-- Node2&#45;&gt;Node9 -->
<g id="edge8" class="edge">
<title>Node2&#45;&gt;Node9</title>
<path fill="none" stroke="midnightblue" d="M713.17,-61.32C669.78,-54.51 574.76,-39.04 484.53,-19.99"/>
<polygon fill="midnightblue" stroke="midnightblue" points="485.2,-16.55 474.69,-17.89 483.74,-23.4 485.2,-16.55"/>
</g>
<!-- Node10 -->
<g id="node10" class="node">
<title>Node10</title>
<g id="a_node10"><a xlink:title=" ">
<polygon fill="white" stroke="#bfbfbf" points="493,-0.5 493,-19.5 543,-19.5 543,-0.5 493,-0.5"/>
<text text-anchor="middle" x="518" y="-7.5" font-family="Helvetica,sans-Serif" font-size="10.00">cstdint</text>
</a>
</g>
</g>
<!-- Node2&#45;&gt;Node10 -->
<g id="edge9" class="edge">
<title>Node2&#45;&gt;Node10</title>
<path fill="none" stroke="midnightblue" d="M713.45,-59.34C678.43,-50.89 610.58,-34.44 553,-20 552.9,-19.98 552.8,-19.95 552.7,-19.93"/>
<polygon fill="midnightblue" stroke="midnightblue" points="553.78,-16.59 543.23,-17.52 552.06,-23.37 553.78,-16.59"/>
</g>
<!-- Node11 -->
<g id="node11" class="node">
<title>Node11</title>
<g id="a_node11"><a xlink:title=" ">
<polygon fill="white" stroke="#bfbfbf" points="561.5,-0.5 561.5,-19.5 610.5,-19.5 610.5,-0.5 561.5,-0.5"/>
<text text-anchor="middle" x="586" y="-7.5" font-family="Helvetica,sans-Serif" font-size="10.00">cstdlib</text>
</a>
</g>
</g>
<!-- Node2&#45;&gt;Node11 -->
<g id="edge10" class="edge">
<title>Node2&#45;&gt;Node11</title>
<path fill="none" stroke="midnightblue" d="M713.41,-56.56C688.18,-47.54 647.97,-33.16 619.47,-22.97"/>
<polygon fill="midnightblue" stroke="midnightblue" points="620.52,-19.63 609.93,-19.56 618.16,-26.22 620.52,-19.63"/>
</g>
<!-- Node12 -->
<g id="node12" class="node">
<title>Node12</title>
<g id="a_node12"><a xlink:title=" ">
<polygon fill="white" stroke="#bfbfbf" points="629,-0.5 629,-19.5 673,-19.5 673,-0.5 629,-0.5"/>
<text text-anchor="middle" x="651" y="-7.5" font-family="Helvetica,sans-Serif" font-size="10.00">ctime</text>
</a>
</g>
</g>
<!-- Node2&#45;&gt;Node12 -->
<g id="edge11" class="edge">
<title>Node2&#45;&gt;Node12</title>
<path fill="none" stroke="midnightblue" d="M723.18,-56.32C709.77,-47.9 689.18,-34.97 673.41,-25.07"/>
<polygon fill="midnightblue" stroke="midnightblue" points="675.11,-22.01 664.78,-19.65 671.39,-27.94 675.11,-22.01"/>
</g>
<!-- Node13 -->
<g id="node13" class="node">
<title>Node13</title>
<g id="a_node13"><a xlink:title=" ">
<polygon fill="white" stroke="#bfbfbf" points="691.5,-0.5 691.5,-19.5 722.5,-19.5 722.5,-0.5 691.5,-0.5"/>
<text text-anchor="middle" x="707" y="-7.5" font-family="Helvetica,sans-Serif" font-size="10.00">ios</text>
</a>
</g>
</g>
<!-- Node2&#45;&gt;Node13 -->
<g id="edge12" class="edge">
<title>Node2&#45;&gt;Node13</title>
<path fill="none" stroke="midnightblue" d="M732.05,-56.08C727.9,-48.61 721.85,-37.72 716.73,-28.52"/>
<polygon fill="midnightblue" stroke="midnightblue" points="719.78,-26.79 711.86,-19.75 713.66,-30.19 719.78,-26.79"/>
</g>
<!-- Node14 -->
<g id="node14" class="node">
<title>Node14</title>
<g id="a_node14"><a xlink:title=" ">
<polygon fill="white" stroke="#bfbfbf" points="741,-0.5 741,-19.5 795,-19.5 795,-0.5 741,-0.5"/>
<text text-anchor="middle" x="768" y="-7.5" font-family="Helvetica,sans-Serif" font-size="10.00">istream</text>
</a>
</g>
</g>
<!-- Node2&#45;&gt;Node14 -->
<g id="edge13" class="edge">
<title>Node2&#45;&gt;Node14</title>
<path fill="none" stroke="midnightblue" d="M742.12,-56.08C746.41,-48.61 752.66,-37.72 757.94,-28.52"/>
<polygon fill="midnightblue" stroke="midnightblue" points="761.03,-30.17 762.98,-19.75 754.96,-26.68 761.03,-30.17"/>
</g>
<!-- Node15 -->
<g id="node15" class="node">
<title>Node15</title>
<g id="a_node15"><a xlink:title=" ">
<polygon fill="white" stroke="#bfbfbf" points="813.5,-0.5 813.5,-19.5 866.5,-19.5 866.5,-0.5 813.5,-0.5"/>
<text text-anchor="middle" x="840" y="-7.5" font-family="Helvetica,sans-Serif" font-size="10.00">iterator</text>
</a>
</g>
</g>
<!-- Node2&#45;&gt;Node15 -->
<g id="edge14" class="edge">
<title>Node2&#45;&gt;Node15</title>
<path fill="none" stroke="midnightblue" d="M753.55,-56.32C769.99,-47.7 795.43,-34.36 814.47,-24.39"/>
<polygon fill="midnightblue" stroke="midnightblue" points="816.26,-27.4 823.49,-19.65 813.01,-21.2 816.26,-27.4"/>
</g>
<!-- Node16 -->
<g id="node16" class="node">
<title>Node16</title>
<g id="a_node16"><a xlink:title=" ">
<polygon fill="white" stroke="#bfbfbf" points="885,-0.5 885,-19.5 929,-19.5 929,-0.5 885,-0.5"/>
<text text-anchor="middle" x="907" y="-7.5" font-family="Helvetica,sans-Serif" font-size="10.00">limits</text>
</a>
</g>
</g>
<!-- Node2&#45;&gt;Node16 -->
<g id="edge15" class="edge">
<title>Node2&#45;&gt;Node16</title>
<path fill="none" stroke="midnightblue" d="M760.64,-57.49C790.49,-48.01 841.95,-31.66 875.22,-21.1"/>
<polygon fill="midnightblue" stroke="midnightblue" points="876.44,-24.38 884.91,-18.02 874.32,-17.71 876.44,-24.38"/>
</g>
<!-- Node17 -->
<g id="node17" class="node">
<title>Node17</title>
<g id="a_node17"><a xlink:title=" ">
<polygon fill="white" stroke="#bfbfbf" points="947,-0.5 947,-19.5 993,-19.5 993,-0.5 947,-0.5"/>
<text text-anchor="middle" x="970" y="-7.5" font-family="Helvetica,sans-Serif" font-size="10.00">locale</text>
</a>
</g>
</g>
<!-- Node2&#45;&gt;Node17 -->
<g id="edge16" class="edge">
<title>Node2&#45;&gt;Node17</title>
<path fill="none" stroke="midnightblue" d="M760.62,-60.14C796.59,-52.66 867.46,-37.54 937.15,-20.11"/>
<polygon fill="midnightblue" stroke="midnightblue" points="938.13,-23.47 946.97,-17.64 936.42,-16.69 938.13,-23.47"/>
</g>
<!-- Node18 -->
<g id="node18" class="node">
<title>Node18</title>
<g id="a_node18"><a xlink:title=" ">
<polygon fill="white" stroke="#bfbfbf" points="1011,-0.5 1011,-19.5 1069,-19.5 1069,-0.5 1011,-0.5"/>
<text text-anchor="middle" x="1040" y="-7.5" font-family="Helvetica,sans-Serif" font-size="10.00">memory</text>
</a>
</g>
</g>
<!-- Node2&#45;&gt;Node18 -->
<g id="edge17" class="edge">
<title>Node2&#45;&gt;Node18</title>
<path fill="none" stroke="midnightblue" d="M760.85,-61.48C805.8,-54.72 906.32,-39.09 1000.97,-20.1"/>
<polygon fill="midnightblue" stroke="midnightblue" points="1001.89,-23.49 1011,-18.07 1000.5,-16.63 1001.89,-23.49"/>
</g>
<!-- Node19 -->
<g id="node19" class="node">
<title>Node19</title>
<g id="a_node19"><a xlink:title=" ">
<polygon fill="white" stroke="#bfbfbf" points="1087.5,-0.5 1087.5,-19.5 1144.5,-19.5 1144.5,-0.5 1087.5,-0.5"/>
<text text-anchor="middle" x="1116" y="-7.5" font-family="Helvetica,sans-Serif" font-size="10.00">ostream</text>
</a>
</g>
</g>
<!-- Node2&#45;&gt;Node19 -->
<g id="edge18" class="edge">
<title>Node2&#45;&gt;Node19</title>
<path fill="none" stroke="midnightblue" d="M760.69,-62.71C814.88,-57.29 952.16,-42.57 1077.29,-19.95"/>
<polygon fill="midnightblue" stroke="midnightblue" points="1078.23,-23.34 1087.43,-18.09 1076.97,-16.45 1078.23,-23.34"/>
</g>
<!-- Node20 -->
<g id="node20" class="node">
<title>Node20</title>
<g id="a_node20"><a xlink:title=" ">
<polygon fill="white" stroke="#bfbfbf" points="1162.5,-0.5 1162.5,-19.5 1201.5,-19.5 1201.5,-0.5 1162.5,-0.5"/>
<text text-anchor="middle" x="1182" y="-7.5" font-family="Helvetica,sans-Serif" font-size="10.00">ratio</text>
</a>
</g>
</g>
<!-- Node2&#45;&gt;Node20 -->
<g id="edge19" class="edge">
<title>Node2&#45;&gt;Node20</title>
<path fill="none" stroke="midnightblue" d="M760.78,-64.13C823.54,-61.47 998.81,-51.74 1152.18,-20.02"/>
<polygon fill="midnightblue" stroke="midnightblue" points="1153.19,-23.38 1162.25,-17.9 1151.74,-16.53 1153.19,-23.38"/>
</g>
<!-- Node21 -->
<g id="node21" class="node">
<title>Node21</title>
<g id="a_node21"><a xlink:title=" ">
<polygon fill="white" stroke="#bfbfbf" points="1220,-0.5 1220,-19.5 1276,-19.5 1276,-0.5 1220,-0.5"/>
<text text-anchor="middle" x="1248" y="-7.5" font-family="Helvetica,sans-Serif" font-size="10.00">sstream</text>
</a>
</g>
</g>
<!-- Node2&#45;&gt;Node21 -->
<g id="edge20" class="edge">
<title>Node2&#45;&gt;Node21</title>
<path fill="none" stroke="midnightblue" d="M760.83,-63.95C829.23,-60.69 1032.1,-49.23 1209.76,-19.98"/>
<polygon fill="midnightblue" stroke="midnightblue" points="1210.52,-23.4 1219.8,-18.3 1209.36,-16.5 1210.52,-23.4"/>
</g>
<!-- Node22 -->
<g id="node22" class="node">
<title>Node22</title>
<g id="a_node22"><a xlink:title=" ">
<polygon fill="white" stroke="#bfbfbf" points="1294.5,-0.5 1294.5,-19.5 1359.5,-19.5 1359.5,-0.5 1294.5,-0.5"/>
<text text-anchor="middle" x="1327" y="-7.5" font-family="Helvetica,sans-Serif" font-size="10.00">stdexcept</text>
</a>
</g>
</g>
<!-- Node2&#45;&gt;Node22 -->
<g id="edge21" class="edge">
<title>Node2&#45;&gt;Node22</title>
<path fill="none" stroke="midnightblue" d="M760.62,-64.15C835.71,-61.22 1075.72,-50.11 1284.16,-19.93"/>
<polygon fill="midnightblue" stroke="midnightblue" points="1284.67,-23.39 1294.06,-18.48 1283.66,-16.47 1284.67,-23.39"/>
</g>
<!-- Node23 -->
<g id="node23" class="node">
<title>Node23</title>
<g id="a_node23"><a xlink:title=" ">
<polygon fill="white" stroke="#bfbfbf" points="1378,-0.5 1378,-19.5 1422,-19.5 1422,-0.5 1378,-0.5"/>
<text text-anchor="middle" x="1400" y="-7.5" font-family="Helvetica,sans-Serif" font-size="10.00">string</text>
</a>
</g>
</g>
<!-- Node2&#45;&gt;Node23 -->
<g id="edge22" class="edge">
<title>Node2&#45;&gt;Node23</title>
<path fill="none" stroke="midnightblue" d="M760.75,-65.11C843.49,-65.11 1126.67,-61.98 1367.78,-19.84"/>
<polygon fill="midnightblue" stroke="midnightblue" points="1368.55,-23.25 1377.78,-18.06 1367.32,-16.36 1368.55,-23.25"/>
</g>
<!-- Node24 -->
<g id="node24" class="node">
<title>Node24</title>
<g id="a_node24"><a xlink:title=" ">
<polygon fill="white" stroke="#bfbfbf" points="1440.5,-0.5 1440.5,-19.5 1485.5,-19.5 1485.5,-0.5 1440.5,-0.5"/>
<text text-anchor="middle" x="1463" y="-7.5" font-family="Helvetica,sans-Serif" font-size="10.00">utility</text>
</a>
</g>
</g>
<!-- Node2&#45;&gt;Node24 -->
<g id="edge23" class="edge">
<title>Node2&#45;&gt;Node24</title>
<path fill="none" stroke="midnightblue" d="M760.57,-65.25C848.16,-65.81 1163.14,-64.52 1430.52,-19.67"/>
<polygon fill="midnightblue" stroke="midnightblue" points="1431.14,-23.11 1440.41,-17.99 1429.96,-16.21 1431.14,-23.11"/>
</g>
<!-- Node25 -->
<g id="node25" class="node">
<title>Node25</title>
<g id="a_node25"><a xlink:title=" ">
<polygon fill="white" stroke="#bfbfbf" points="1503.5,-0.5 1503.5,-19.5 1572.5,-19.5 1572.5,-0.5 1503.5,-0.5"/>
<text text-anchor="middle" x="1538" y="-7.5" font-family="Helvetica,sans-Serif" font-size="10.00">type_traits</text>
</a>
</g>
</g>
<!-- Node2&#45;&gt;Node25 -->
<g id="edge24" class="edge">
<title>Node2&#45;&gt;Node25</title>
<path fill="none" stroke="midnightblue" d="M760.7,-64.86C853.3,-64.04 1199.63,-58.53 1493.35,-20.04"/>
<polygon fill="midnightblue" stroke="midnightblue" points="1493.89,-23.49 1503.34,-18.71 1492.97,-16.56 1493.89,-23.49"/>
</g>
</g>
</svg>
