<?xml version="1.0" encoding="UTF-8" standalone="no"?>
<!DOCTYPE svg PUBLIC "-//W3C//DTD SVG 1.1//EN"
 "http://www.w3.org/Graphics/SVG/1.1/DTD/svg11.dtd">
<!-- Generated by graphviz version 2.43.0 (0)
 -->
<!-- Title: mipp.h Pages: 1 -->
<svg width="1110pt" height="151pt"
 viewBox="0.00 0.00 1110.00 151.00" xmlns="http://www.w3.org/2000/svg" xmlns:xlink="http://www.w3.org/1999/xlink">
<g id="graph0" class="graph" transform="scale(1 1) rotate(0) translate(4 147)">
<title>mipp.h</title>
<polygon fill="white" stroke="transparent" points="-4,4 -4,-147 1106,-147 1106,4 -4,4"/>
<!-- Node1 -->
<g id="node1" class="node">
<title>Node1</title>
<g id="a_node1"><a xlink:title=" ">
<polygon fill="#bfbfbf" stroke="black" points="614.5,-123.5 614.5,-142.5 664.5,-142.5 664.5,-123.5 614.5,-123.5"/>
<text text-anchor="middle" x="639.5" y="-130.5" font-family="Helvetica,sans-Serif" font-size="10.00">mipp.h</text>
</a>
</g>
</g>
<!-- Node2 -->
<g id="node2" class="node">
<title>Node2</title>
<g id="a_node2"><a xlink:href="functions__polar__inter__intra_8h.html" target="_top" xlink:title="Functions for the Polar API in inter/intra&#45;SIMD.">
<polygon fill="white" stroke="black" points="0,-0.5 0,-30.5 119,-30.5 119,-0.5 0,-0.5"/>
<text text-anchor="start" x="8" y="-18.5" font-family="Helvetica,sans-Serif" font-size="10.00">functions_polar_inter</text>
<text text-anchor="middle" x="59.5" y="-7.5" font-family="Helvetica,sans-Serif" font-size="10.00">_intra.h</text>
</a>
</g>
</g>
<!-- Node1&#45;&gt;Node2 -->
<g id="edge1" class="edge">
<title>Node1&#45;&gt;Node2</title>
<path fill="none" stroke="midnightblue" d="M604.25,-125.42C558.09,-116.77 474.69,-101.03 403.5,-87 281.12,-62.87 250.64,-56.27 128.5,-31 125.5,-30.38 122.43,-29.74 119.33,-29.1"/>
<polygon fill="midnightblue" stroke="midnightblue" points="603.86,-128.91 614.33,-127.31 605.15,-122.03 603.86,-128.91"/>
</g>
<!-- Node3 -->
<g id="node3" class="node">
<title>Node3</title>
<g id="a_node3"><a xlink:href="decoder__polar__functions_8h.html" target="_top" xlink:title="Functions for Polar decoders.">
<polygon fill="white" stroke="black" points="413,-67.5 413,-86.5 558,-86.5 558,-67.5 413,-67.5"/>
<text text-anchor="middle" x="485.5" y="-74.5" font-family="Helvetica,sans-Serif" font-size="10.00">decoder_polar_functions.h</text>
</a>
</g>
</g>
<!-- Node1&#45;&gt;Node3 -->
<g id="edge2" class="edge">
<title>Node1&#45;&gt;Node3</title>
<path fill="none" stroke="midnightblue" d="M605.39,-120.04C576.41,-109.88 535.54,-95.55 509.79,-86.52"/>
<polygon fill="midnightblue" stroke="midnightblue" points="604.5,-123.44 615.1,-123.44 606.82,-116.83 604.5,-123.44"/>
</g>
<!-- Node11 -->
<g id="node11" class="node">
<title>Node11</title>
<g id="a_node11"><a xlink:href="max_8h.html" target="_top" xlink:title="Functions for min/max.">
<polygon fill="white" stroke="black" points="576,-67.5 576,-86.5 623,-86.5 623,-67.5 576,-67.5"/>
<text text-anchor="middle" x="599.5" y="-74.5" font-family="Helvetica,sans-Serif" font-size="10.00">max.h</text>
</a>
</g>
</g>
<!-- Node1&#45;&gt;Node11 -->
<g id="edge11" class="edge">
<title>Node1&#45;&gt;Node11</title>
<path fill="none" stroke="midnightblue" d="M626.8,-114.86C619.87,-105.5 611.59,-94.33 605.98,-86.75"/>
<polygon fill="midnightblue" stroke="midnightblue" points="624.13,-117.13 632.89,-123.08 629.75,-112.96 624.13,-117.13"/>
</g>
<!-- Node12 -->
<g id="node12" class="node">
<title>Node12</title>
<g id="a_node12"><a xlink:href="noise__utils_8h.html" target="_top" xlink:title="Functions for noise management.">
<polygon fill="white" stroke="black" points="641.5,-67.5 641.5,-86.5 719.5,-86.5 719.5,-67.5 641.5,-67.5"/>
<text text-anchor="middle" x="680.5" y="-74.5" font-family="Helvetica,sans-Serif" font-size="10.00">noise_utils.h</text>
</a>
</g>
</g>
<!-- Node1&#45;&gt;Node12 -->
<g id="edge12" class="edge">
<title>Node1&#45;&gt;Node12</title>
<path fill="none" stroke="midnightblue" d="M652.52,-114.86C659.62,-105.5 668.1,-94.33 673.86,-86.75"/>
<polygon fill="midnightblue" stroke="midnightblue" points="649.53,-113 646.27,-123.08 655.11,-117.24 649.53,-113"/>
</g>
<!-- Node13 -->
<g id="node13" class="node">
<title>Node13</title>
<g id="a_node13"><a xlink:href="Bitwise__diff_8h.html" target="_top" xlink:title=" ">
<polygon fill="white" stroke="black" points="738,-67.5 738,-86.5 821,-86.5 821,-67.5 738,-67.5"/>
<text text-anchor="middle" x="779.5" y="-74.5" font-family="Helvetica,sans-Serif" font-size="10.00">Bitwise_diff.h</text>
</a>
</g>
</g>
<!-- Node1&#45;&gt;Node13 -->
<g id="edge13" class="edge">
<title>Node1&#45;&gt;Node13</title>
<path fill="none" stroke="midnightblue" d="M671.2,-119.77C697.5,-109.63 734.22,-95.47 757.42,-86.52"/>
<polygon fill="midnightblue" stroke="midnightblue" points="669.75,-116.58 661.68,-123.44 672.27,-123.11 669.75,-116.58"/>
</g>
<!-- Node14 -->
<g id="node14" class="node">
<title>Node14</title>
<g id="a_node14"><a xlink:href="Boolean__diff_8h.html" target="_top" xlink:title=" ">
<polygon fill="white" stroke="black" points="839.5,-67.5 839.5,-86.5 925.5,-86.5 925.5,-67.5 839.5,-67.5"/>
<text text-anchor="middle" x="882.5" y="-74.5" font-family="Helvetica,sans-Serif" font-size="10.00">Boolean_diff.h</text>
</a>
</g>
</g>
<!-- Node1&#45;&gt;Node14 -->
<g id="edge14" class="edge">
<title>Node1&#45;&gt;Node14</title>
<path fill="none" stroke="midnightblue" d="M674.48,-124.23C719.48,-114.23 797.4,-96.91 844.04,-86.55"/>
<polygon fill="midnightblue" stroke="midnightblue" points="673.59,-120.84 664.59,-126.42 675.11,-127.67 673.59,-120.84"/>
</g>
<!-- Node3&#45;&gt;Node2 -->
<g id="edge5" class="edge">
<title>Node3&#45;&gt;Node2</title>
<path fill="none" stroke="midnightblue" d="M402.78,-67.51C330.24,-59.61 222.06,-46.7 128.5,-31 125.48,-30.49 122.4,-29.95 119.28,-29.38"/>
<polygon fill="midnightblue" stroke="midnightblue" points="402.45,-71 412.77,-68.59 403.2,-64.04 402.45,-71"/>
</g>
<!-- Node4 -->
<g id="node4" class="node">
<title>Node4</title>
<g id="a_node4"><a xlink:href="functions__polar__inter_8h.html" target="_top" xlink:title="Functions for the Polar API in inter&#45;SIMD.">
<polygon fill="white" stroke="black" points="137.5,-6 137.5,-25 265.5,-25 265.5,-6 137.5,-6"/>
<text text-anchor="middle" x="201.5" y="-13" font-family="Helvetica,sans-Serif" font-size="10.00">functions_polar_inter.h</text>
</a>
</g>
</g>
<!-- Node3&#45;&gt;Node4 -->
<g id="edge3" class="edge">
<title>Node3&#45;&gt;Node4</title>
<path fill="none" stroke="midnightblue" d="M434.92,-65.4C379.86,-53.87 292.9,-35.65 242.11,-25.01"/>
<polygon fill="midnightblue" stroke="midnightblue" points="434.3,-68.85 444.81,-67.48 435.74,-62 434.3,-68.85"/>
</g>
<!-- Node5 -->
<g id="node5" class="node">
<title>Node5</title>
<g id="a_node5"><a xlink:href="functions__polar__inter__8bit__bitpacking_8h.html" target="_top" xlink:title="Functions for the Polar API in inter&#45;SIMD (8&#45;bit).">
<polygon fill="white" stroke="black" points="284,-0.5 284,-30.5 403,-30.5 403,-0.5 284,-0.5"/>
<text text-anchor="start" x="292" y="-18.5" font-family="Helvetica,sans-Serif" font-size="10.00">functions_polar_inter</text>
<text text-anchor="middle" x="343.5" y="-7.5" font-family="Helvetica,sans-Serif" font-size="10.00">_8bit_bitpacking.h</text>
</a>
</g>
</g>
<!-- Node3&#45;&gt;Node5 -->
<g id="edge4" class="edge">
<title>Node3&#45;&gt;Node5</title>
<path fill="none" stroke="midnightblue" d="M455.88,-63.59C432.86,-53.94 400.91,-40.56 376.97,-30.52"/>
<polygon fill="midnightblue" stroke="midnightblue" points="454.58,-66.84 465.15,-67.48 457.28,-60.38 454.58,-66.84"/>
</g>
<!-- Node6 -->
<g id="node6" class="node">
<title>Node6</title>
<g id="a_node6"><a xlink:href="functions__polar__intra_8h.html" target="_top" xlink:title="Functions for the Polar API in intra&#45;SIMD.">
<polygon fill="white" stroke="black" points="421.5,-6 421.5,-25 549.5,-25 549.5,-6 421.5,-6"/>
<text text-anchor="middle" x="485.5" y="-13" font-family="Helvetica,sans-Serif" font-size="10.00">functions_polar_intra.h</text>
</a>
</g>
</g>
<!-- Node3&#45;&gt;Node6 -->
<g id="edge6" class="edge">
<title>Node3&#45;&gt;Node6</title>
<path fill="none" stroke="midnightblue" d="M485.5,-57.32C485.5,-46.5 485.5,-33.4 485.5,-25.01"/>
<polygon fill="midnightblue" stroke="midnightblue" points="482,-57.48 485.5,-67.48 489,-57.48 482,-57.48"/>
</g>
<!-- Node7 -->
<g id="node7" class="node">
<title>Node7</title>
<g id="a_node7"><a xlink:href="functions__polar__intra__16bit_8h.html" target="_top" xlink:title="Functions for the Polar API in intra&#45;SIMD (16&#45;bit).">
<polygon fill="white" stroke="black" points="568,-0.5 568,-30.5 687,-30.5 687,-0.5 568,-0.5"/>
<text text-anchor="start" x="576" y="-18.5" font-family="Helvetica,sans-Serif" font-size="10.00">functions_polar_intra</text>
<text text-anchor="middle" x="627.5" y="-7.5" font-family="Helvetica,sans-Serif" font-size="10.00">_16bit.h</text>
</a>
</g>
</g>
<!-- Node3&#45;&gt;Node7 -->
<g id="edge7" class="edge">
<title>Node3&#45;&gt;Node7</title>
<path fill="none" stroke="midnightblue" d="M515.12,-63.59C538.14,-53.94 570.09,-40.56 594.03,-30.52"/>
<polygon fill="midnightblue" stroke="midnightblue" points="513.72,-60.38 505.85,-67.48 516.42,-66.84 513.72,-60.38"/>
</g>
<!-- Node8 -->
<g id="node8" class="node">
<title>Node8</title>
<g id="a_node8"><a xlink:href="functions__polar__intra__32bit_8h.html" target="_top" xlink:title="Functions for the Polar API in intra&#45;SIMD (32&#45;bit).">
<polygon fill="white" stroke="black" points="705,-0.5 705,-30.5 824,-30.5 824,-0.5 705,-0.5"/>
<text text-anchor="start" x="713" y="-18.5" font-family="Helvetica,sans-Serif" font-size="10.00">functions_polar_intra</text>
<text text-anchor="middle" x="764.5" y="-7.5" font-family="Helvetica,sans-Serif" font-size="10.00">_32bit.h</text>
</a>
</g>
</g>
<!-- Node3&#45;&gt;Node8 -->
<g id="edge8" class="edge">
<title>Node3&#45;&gt;Node8</title>
<path fill="none" stroke="midnightblue" d="M535.52,-65.33C583,-55.21 654.41,-39.98 704.84,-29.22"/>
<polygon fill="midnightblue" stroke="midnightblue" points="534.52,-61.97 525.47,-67.48 535.98,-68.81 534.52,-61.97"/>
</g>
<!-- Node9 -->
<g id="node9" class="node">
<title>Node9</title>
<g id="a_node9"><a xlink:href="functions__polar__intra__8bit_8h.html" target="_top" xlink:title="Functions for the Polar API in intra&#45;SIMD (8&#45;bit).">
<polygon fill="white" stroke="black" points="842,-0.5 842,-30.5 961,-30.5 961,-0.5 842,-0.5"/>
<text text-anchor="start" x="850" y="-18.5" font-family="Helvetica,sans-Serif" font-size="10.00">functions_polar_intra</text>
<text text-anchor="middle" x="901.5" y="-7.5" font-family="Helvetica,sans-Serif" font-size="10.00">_8bit.h</text>
</a>
</g>
</g>
<!-- Node3&#45;&gt;Node9 -->
<g id="edge9" class="edge">
<title>Node3&#45;&gt;Node9</title>
<path fill="none" stroke="midnightblue" d="M566.67,-66.28C653,-55.8 783.83,-39.49 833.5,-31 836.24,-30.53 839.03,-30.03 841.85,-29.51"/>
<polygon fill="midnightblue" stroke="midnightblue" points="566.14,-62.82 556.63,-67.5 566.98,-69.77 566.14,-62.82"/>
</g>
<!-- Node10 -->
<g id="node10" class="node">
<title>Node10</title>
<g id="a_node10"><a xlink:href="functions__polar__seq_8h.html" target="_top" xlink:title="Functions for the Polar API in sequential.">
<polygon fill="white" stroke="black" points="979,-6 979,-25 1102,-25 1102,-6 979,-6"/>
<text text-anchor="middle" x="1040.5" y="-13" font-family="Helvetica,sans-Serif" font-size="10.00">functions_polar_seq.h</text>
</a>
</g>
</g>
<!-- Node3&#45;&gt;Node10 -->
<g id="edge10" class="edge">
<title>Node3&#45;&gt;Node10</title>
<path fill="none" stroke="midnightblue" d="M568.43,-66.94C748.15,-49.47 795.82,-56.81 970.5,-31 981.18,-29.42 992.69,-27.24 1003.22,-25.05"/>
<polygon fill="midnightblue" stroke="midnightblue" points="567.98,-63.46 558.37,-67.92 568.66,-70.43 567.98,-63.46"/>
</g>
</g>
</svg>
