<?xml version="1.0" encoding="UTF-8" standalone="no"?>
<!DOCTYPE svg PUBLIC "-//W3C//DTD SVG 1.1//EN"
 "http://www.w3.org/Graphics/SVG/1.1/DTD/svg11.dtd">
<!-- Generated by graphviz version 2.43.0 (0)
 -->
<!-- Title: noise_utils.h Pages: 1 -->
<svg width="1196pt" height="196pt"
 viewBox="0.00 0.00 1196.00 196.00" xmlns="http://www.w3.org/2000/svg" xmlns:xlink="http://www.w3.org/1999/xlink">
<g id="graph0" class="graph" transform="scale(1 1) rotate(0) translate(4 192)">
<title>noise_utils.h</title>
<polygon fill="white" stroke="transparent" points="-4,4 -4,-192 1192,-192 1192,4 -4,4"/>
<!-- Node1 -->
<g id="node1" class="node">
<title>Node1</title>
<g id="a_node1"><a xlink:title="Functions for noise management.">
<polygon fill="#bfbfbf" stroke="black" points="724,-168.5 724,-187.5 802,-187.5 802,-168.5 724,-168.5"/>
<text text-anchor="middle" x="763" y="-175.5" font-family="Helvetica,sans-Serif" font-size="10.00">noise_utils.h</text>
</a>
</g>
</g>
<!-- Node2 -->
<g id="node2" class="node">
<title>Node2</title>
<g id="a_node2"><a xlink:href="mipp_8h.html" target="_top" xlink:title=" ">
<polygon fill="white" stroke="black" points="633,-112.5 633,-131.5 683,-131.5 683,-112.5 633,-112.5"/>
<text text-anchor="middle" x="658" y="-119.5" font-family="Helvetica,sans-Serif" font-size="10.00">mipp.h</text>
</a>
</g>
</g>
<!-- Node1&#45;&gt;Node2 -->
<g id="edge1" class="edge">
<title>Node1&#45;&gt;Node2</title>
<path fill="none" stroke="midnightblue" d="M746.13,-168.32C729.29,-159.66 703.19,-146.24 683.76,-136.25"/>
<polygon fill="midnightblue" stroke="midnightblue" points="685.32,-133.12 674.83,-131.65 682.12,-139.34 685.32,-133.12"/>
</g>
<!-- Node19 -->
<g id="node19" class="node">
<title>Node19</title>
<g id="a_node19"><a xlink:title=" ">
<polygon fill="white" stroke="#bfbfbf" points="701,-112.5 701,-131.5 825,-131.5 825,-112.5 701,-112.5"/>
<text text-anchor="middle" x="763" y="-119.5" font-family="Helvetica,sans-Serif" font-size="10.00">Tools/Noise/Noise.hpp</text>
</a>
</g>
</g>
<!-- Node1&#45;&gt;Node19 -->
<g id="edge18" class="edge">
<title>Node1&#45;&gt;Node19</title>
<path fill="none" stroke="midnightblue" d="M763,-168.08C763,-161.01 763,-150.86 763,-141.99"/>
<polygon fill="midnightblue" stroke="midnightblue" points="766.5,-141.75 763,-131.75 759.5,-141.75 766.5,-141.75"/>
</g>
<!-- Node20 -->
<g id="node20" class="node">
<title>Node20</title>
<g id="a_node20"><a xlink:title=" ">
<polygon fill="white" stroke="#bfbfbf" points="843.5,-112.5 843.5,-131.5 992.5,-131.5 992.5,-112.5 843.5,-112.5"/>
<text text-anchor="middle" x="918" y="-119.5" font-family="Helvetica,sans-Serif" font-size="10.00">Tools/Noise/noise_utils.hxx</text>
</a>
</g>
</g>
<!-- Node1&#45;&gt;Node20 -->
<g id="edge19" class="edge">
<title>Node1&#45;&gt;Node20</title>
<path fill="none" stroke="midnightblue" d="M787.56,-168.44C813.52,-159.4 854.67,-145.06 883.8,-134.92"/>
<polygon fill="midnightblue" stroke="midnightblue" points="885.26,-138.11 893.55,-131.52 882.96,-131.5 885.26,-138.11"/>
</g>
<!-- Node3 -->
<g id="node3" class="node">
<title>Node3</title>
<g id="a_node3"><a xlink:href="mipp__scalar__op_8h.html" target="_top" xlink:title=" ">
<polygon fill="white" stroke="black" points="6,-56.5 6,-75.5 108,-75.5 108,-56.5 6,-56.5"/>
<text text-anchor="middle" x="57" y="-63.5" font-family="Helvetica,sans-Serif" font-size="10.00">mipp_scalar_op.h</text>
</a>
</g>
</g>
<!-- Node2&#45;&gt;Node3 -->
<g id="edge2" class="edge">
<title>Node2&#45;&gt;Node3</title>
<path fill="none" stroke="midnightblue" d="M632.91,-119.48C557.11,-114.75 323.58,-99.33 118.29,-75.95"/>
<polygon fill="midnightblue" stroke="midnightblue" points="118.56,-72.46 108.22,-74.8 117.76,-79.42 118.56,-72.46"/>
</g>
<!-- Node5 -->
<g id="node5" class="node">
<title>Node5</title>
<g id="a_node5"><a xlink:title=" ">
<polygon fill="white" stroke="#bfbfbf" points="126.5,-56.5 126.5,-75.5 219.5,-75.5 219.5,-56.5 126.5,-56.5"/>
<text text-anchor="middle" x="173" y="-63.5" font-family="Helvetica,sans-Serif" font-size="10.00">unordered_map</text>
</a>
</g>
</g>
<!-- Node2&#45;&gt;Node5 -->
<g id="edge4" class="edge">
<title>Node2&#45;&gt;Node5</title>
<path fill="none" stroke="midnightblue" d="M632.8,-118.84C567.88,-113.18 389.45,-96.98 229.73,-76.03"/>
<polygon fill="midnightblue" stroke="midnightblue" points="230.1,-72.55 219.72,-74.71 229.18,-79.49 230.1,-72.55"/>
</g>
<!-- Node6 -->
<g id="node6" class="node">
<title>Node6</title>
<g id="a_node6"><a xlink:title=" ">
<polygon fill="white" stroke="#bfbfbf" points="237.5,-56.5 237.5,-75.5 302.5,-75.5 302.5,-56.5 237.5,-56.5"/>
<text text-anchor="middle" x="270" y="-63.5" font-family="Helvetica,sans-Serif" font-size="10.00">typeindex</text>
</a>
</g>
</g>
<!-- Node2&#45;&gt;Node6 -->
<g id="edge5" class="edge">
<title>Node2&#45;&gt;Node6</title>
<path fill="none" stroke="midnightblue" d="M632.71,-118.43C576.93,-112.6 438.93,-97.35 312.73,-75.99"/>
<polygon fill="midnightblue" stroke="midnightblue" points="312.96,-72.48 302.51,-74.24 311.78,-79.38 312.96,-72.48"/>
</g>
<!-- Node7 -->
<g id="node7" class="node">
<title>Node7</title>
<g id="a_node7"><a xlink:title=" ">
<polygon fill="white" stroke="#bfbfbf" points="320.5,-56.5 320.5,-75.5 385.5,-75.5 385.5,-56.5 320.5,-56.5"/>
<text text-anchor="middle" x="353" y="-63.5" font-family="Helvetica,sans-Serif" font-size="10.00">stdexcept</text>
</a>
</g>
</g>
<!-- Node2&#45;&gt;Node7 -->
<g id="edge6" class="edge">
<title>Node2&#45;&gt;Node7</title>
<path fill="none" stroke="midnightblue" d="M632.92,-117.06C587.66,-109.89 489.15,-93.92 395.46,-76.02"/>
<polygon fill="midnightblue" stroke="midnightblue" points="396.01,-72.56 385.53,-74.11 394.69,-79.44 396.01,-72.56"/>
</g>
<!-- Node8 -->
<g id="node8" class="node">
<title>Node8</title>
<g id="a_node8"><a xlink:title=" ">
<polygon fill="white" stroke="#bfbfbf" points="403.5,-56.5 403.5,-75.5 460.5,-75.5 460.5,-56.5 403.5,-56.5"/>
<text text-anchor="middle" x="432" y="-63.5" font-family="Helvetica,sans-Serif" font-size="10.00">typeinfo</text>
</a>
</g>
</g>
<!-- Node2&#45;&gt;Node8 -->
<g id="edge7" class="edge">
<title>Node2&#45;&gt;Node8</title>
<path fill="none" stroke="midnightblue" d="M632.95,-115.01C593.63,-105.62 517.13,-87.34 470.7,-76.25"/>
<polygon fill="midnightblue" stroke="midnightblue" points="471.25,-72.78 460.71,-73.86 469.62,-79.59 471.25,-72.78"/>
</g>
<!-- Node9 -->
<g id="node9" class="node">
<title>Node9</title>
<g id="a_node9"><a xlink:title=" ">
<polygon fill="white" stroke="#bfbfbf" points="479,-56.5 479,-75.5 539,-75.5 539,-56.5 479,-56.5"/>
<text text-anchor="middle" x="509" y="-63.5" font-family="Helvetica,sans-Serif" font-size="10.00">iostream</text>
</a>
</g>
</g>
<!-- Node2&#45;&gt;Node9 -->
<g id="edge8" class="edge">
<title>Node2&#45;&gt;Node9</title>
<path fill="none" stroke="midnightblue" d="M634.39,-112.44C609.54,-103.44 570.23,-89.19 542.25,-79.05"/>
<polygon fill="midnightblue" stroke="midnightblue" points="543.09,-75.63 532.5,-75.52 540.71,-82.21 543.09,-75.63"/>
</g>
<!-- Node10 -->
<g id="node10" class="node">
<title>Node10</title>
<g id="a_node10"><a xlink:title=" ">
<polygon fill="white" stroke="#bfbfbf" points="557,-56.5 557,-75.5 613,-75.5 613,-56.5 557,-56.5"/>
<text text-anchor="middle" x="585" y="-63.5" font-family="Helvetica,sans-Serif" font-size="10.00">iomanip</text>
</a>
</g>
</g>
<!-- Node2&#45;&gt;Node10 -->
<g id="edge9" class="edge">
<title>Node2&#45;&gt;Node10</title>
<path fill="none" stroke="midnightblue" d="M646.27,-112.32C635.16,-104.11 618.26,-91.6 605.02,-81.81"/>
<polygon fill="midnightblue" stroke="midnightblue" points="607.06,-78.97 596.94,-75.83 602.9,-84.59 607.06,-78.97"/>
</g>
<!-- Node11 -->
<g id="node11" class="node">
<title>Node11</title>
<g id="a_node11"><a xlink:title=" ">
<polygon fill="white" stroke="#bfbfbf" points="631.5,-56.5 631.5,-75.5 684.5,-75.5 684.5,-56.5 631.5,-56.5"/>
<text text-anchor="middle" x="658" y="-63.5" font-family="Helvetica,sans-Serif" font-size="10.00">cstddef</text>
</a>
</g>
</g>
<!-- Node2&#45;&gt;Node11 -->
<g id="edge10" class="edge">
<title>Node2&#45;&gt;Node11</title>
<path fill="none" stroke="midnightblue" d="M658,-112.08C658,-105.01 658,-94.86 658,-85.99"/>
<polygon fill="midnightblue" stroke="midnightblue" points="661.5,-85.75 658,-75.75 654.5,-85.75 661.5,-85.75"/>
</g>
<!-- Node12 -->
<g id="node12" class="node">
<title>Node12</title>
<g id="a_node12"><a xlink:title=" ">
<polygon fill="white" stroke="#bfbfbf" points="703,-56.5 703,-75.5 755,-75.5 755,-56.5 703,-56.5"/>
<text text-anchor="middle" x="729" y="-63.5" font-family="Helvetica,sans-Serif" font-size="10.00">cassert</text>
</a>
</g>
</g>
<!-- Node2&#45;&gt;Node12 -->
<g id="edge11" class="edge">
<title>Node2&#45;&gt;Node12</title>
<path fill="none" stroke="midnightblue" d="M669.41,-112.32C680.11,-104.18 696.34,-91.84 709.16,-82.09"/>
<polygon fill="midnightblue" stroke="midnightblue" points="711.54,-84.67 717.39,-75.83 707.31,-79.1 711.54,-84.67"/>
</g>
<!-- Node13 -->
<g id="node13" class="node">
<title>Node13</title>
<g id="a_node13"><a xlink:title=" ">
<polygon fill="white" stroke="#bfbfbf" points="773,-56.5 773,-75.5 823,-75.5 823,-56.5 773,-56.5"/>
<text text-anchor="middle" x="798" y="-63.5" font-family="Helvetica,sans-Serif" font-size="10.00">cstdint</text>
</a>
</g>
</g>
<!-- Node2&#45;&gt;Node13 -->
<g id="edge12" class="edge">
<title>Node2&#45;&gt;Node13</title>
<path fill="none" stroke="midnightblue" d="M680.18,-112.44C703.43,-103.48 740.15,-89.31 766.42,-79.18"/>
<polygon fill="midnightblue" stroke="midnightblue" points="767.85,-82.38 775.92,-75.52 765.33,-75.85 767.85,-82.38"/>
</g>
<!-- Node14 -->
<g id="node14" class="node">
<title>Node14</title>
<g id="a_node14"><a xlink:title=" ">
<polygon fill="white" stroke="#bfbfbf" points="841,-56.5 841,-75.5 885,-75.5 885,-56.5 841,-56.5"/>
<text text-anchor="middle" x="863" y="-63.5" font-family="Helvetica,sans-Serif" font-size="10.00">string</text>
</a>
</g>
</g>
<!-- Node2&#45;&gt;Node14 -->
<g id="edge13" class="edge">
<title>Node2&#45;&gt;Node14</title>
<path fill="none" stroke="midnightblue" d="M683.25,-114.3C686.2,-113.52 689.16,-112.74 692,-112 751.13,-96.57 768.37,-93.27 830.7,-76.3"/>
<polygon fill="midnightblue" stroke="midnightblue" points="831.95,-79.58 840.67,-73.57 830.1,-72.83 831.95,-79.58"/>
</g>
<!-- Node15 -->
<g id="node15" class="node">
<title>Node15</title>
<g id="a_node15"><a xlink:title=" ">
<polygon fill="white" stroke="#bfbfbf" points="903.5,-56.5 903.5,-75.5 950.5,-75.5 950.5,-56.5 903.5,-56.5"/>
<text text-anchor="middle" x="927" y="-63.5" font-family="Helvetica,sans-Serif" font-size="10.00">vector</text>
</a>
</g>
</g>
<!-- Node2&#45;&gt;Node15 -->
<g id="edge14" class="edge">
<title>Node2&#45;&gt;Node15</title>
<path fill="none" stroke="midnightblue" d="M683.19,-114.08C686.15,-113.34 689.14,-112.63 692,-112 778,-92.99 803.32,-95.79 893.45,-75.94"/>
<polygon fill="midnightblue" stroke="midnightblue" points="894.28,-79.34 903.27,-73.75 892.75,-72.51 894.28,-79.34"/>
</g>
<!-- Node16 -->
<g id="node16" class="node">
<title>Node16</title>
<g id="a_node16"><a xlink:title=" ">
<polygon fill="white" stroke="#bfbfbf" points="968.5,-56.5 968.5,-75.5 1015.5,-75.5 1015.5,-56.5 968.5,-56.5"/>
<text text-anchor="middle" x="992" y="-63.5" font-family="Helvetica,sans-Serif" font-size="10.00">cmath</text>
</a>
</g>
</g>
<!-- Node2&#45;&gt;Node16 -->
<g id="edge15" class="edge">
<title>Node2&#45;&gt;Node16</title>
<path fill="none" stroke="midnightblue" d="M683.17,-113.96C686.13,-113.24 689.13,-112.57 692,-112 806.65,-89.22 840.47,-99.71 958.19,-76.13"/>
<polygon fill="midnightblue" stroke="midnightblue" points="959.23,-79.49 968.33,-74.06 957.83,-72.63 959.23,-79.49"/>
</g>
<!-- Node17 -->
<g id="node17" class="node">
<title>Node17</title>
<g id="a_node17"><a xlink:title=" ">
<polygon fill="white" stroke="#bfbfbf" points="1034,-56.5 1034,-75.5 1072,-75.5 1072,-56.5 1034,-56.5"/>
<text text-anchor="middle" x="1053" y="-63.5" font-family="Helvetica,sans-Serif" font-size="10.00">map</text>
</a>
</g>
</g>
<!-- Node2&#45;&gt;Node17 -->
<g id="edge16" class="edge">
<title>Node2&#45;&gt;Node17</title>
<path fill="none" stroke="midnightblue" d="M683.15,-113.89C686.12,-113.18 689.12,-112.53 692,-112 835.23,-85.46 877.58,-106.01 1024.06,-75.78"/>
<polygon fill="midnightblue" stroke="midnightblue" points="1024.8,-79.21 1033.86,-73.72 1023.35,-72.36 1024.8,-79.21"/>
</g>
<!-- Node18 -->
<g id="node18" class="node">
<title>Node18</title>
<g id="a_node18"><a xlink:title=" ">
<polygon fill="white" stroke="#bfbfbf" points="1090,-56.5 1090,-75.5 1188,-75.5 1188,-56.5 1090,-56.5"/>
<text text-anchor="middle" x="1139" y="-63.5" font-family="Helvetica,sans-Serif" font-size="10.00">mipp_object.hxx</text>
</a>
</g>
</g>
<!-- Node2&#45;&gt;Node18 -->
<g id="edge17" class="edge">
<title>Node2&#45;&gt;Node18</title>
<path fill="none" stroke="midnightblue" d="M683.15,-113.84C686.12,-113.15 689.11,-112.51 692,-112 859.79,-82.24 906.95,-96.76 1080.03,-76.04"/>
<polygon fill="midnightblue" stroke="midnightblue" points="1080.48,-79.51 1089.98,-74.82 1079.63,-72.56 1080.48,-79.51"/>
</g>
<!-- Node4 -->
<g id="node4" class="node">
<title>Node4</title>
<g id="a_node4"><a xlink:title=" ">
<polygon fill="white" stroke="#bfbfbf" points="0,-0.5 0,-19.5 114,-19.5 114,-0.5 0,-0.5"/>
<text text-anchor="middle" x="57" y="-7.5" font-family="Helvetica,sans-Serif" font-size="10.00">mipp_scalar_op.hxx</text>
</a>
</g>
</g>
<!-- Node3&#45;&gt;Node4 -->
<g id="edge3" class="edge">
<title>Node3&#45;&gt;Node4</title>
<path fill="none" stroke="midnightblue" d="M57,-56.08C57,-49.01 57,-38.86 57,-29.99"/>
<polygon fill="midnightblue" stroke="midnightblue" points="60.5,-29.75 57,-19.75 53.5,-29.75 60.5,-29.75"/>
</g>
</g>
</svg>
