<?xml version="1.0" encoding="UTF-8" standalone="no"?>
<!DOCTYPE svg PUBLIC "-//W3C//DTD SVG 1.1//EN"
 "http://www.w3.org/Graphics/SVG/1.1/DTD/svg11.dtd">
<!-- Generated by graphviz version 2.43.0 (0)
 -->
<!-- Title: ptz.h Pages: 1 -->
<svg width="1578pt" height="196pt"
 viewBox="0.00 0.00 1578.00 196.00" xmlns="http://www.w3.org/2000/svg" xmlns:xlink="http://www.w3.org/1999/xlink">
<g id="graph0" class="graph" transform="scale(1 1) rotate(0) translate(4 192)">
<title>ptz.h</title>
<polygon fill="white" stroke="transparent" points="-4,4 -4,-192 1574,-192 1574,4 -4,4"/>
<!-- Node1 -->
<g id="node1" class="node">
<title>Node1</title>
<g id="a_node1"><a xlink:title=" ">
<polygon fill="#bfbfbf" stroke="black" points="1464.5,-168.5 1464.5,-187.5 1505.5,-187.5 1505.5,-168.5 1464.5,-168.5"/>
<text text-anchor="middle" x="1485" y="-175.5" font-family="Helvetica,sans-Serif" font-size="10.00">ptz.h</text>
</a>
</g>
</g>
<!-- Node2 -->
<g id="node2" class="node">
<title>Node2</title>
<g id="a_node2"><a xlink:href="tz_8h.html" target="_top" xlink:title=" ">
<polygon fill="white" stroke="black" points="1046.5,-112.5 1046.5,-131.5 1105.5,-131.5 1105.5,-112.5 1046.5,-112.5"/>
<text text-anchor="middle" x="1076" y="-119.5" font-family="Helvetica,sans-Serif" font-size="10.00">date/tz.h</text>
</a>
</g>
</g>
<!-- Node1&#45;&gt;Node2 -->
<g id="edge1" class="edge">
<title>Node1&#45;&gt;Node2</title>
<path fill="none" stroke="midnightblue" d="M1464.44,-174.29C1399.98,-165.78 1201.11,-139.52 1115.67,-128.24"/>
<polygon fill="midnightblue" stroke="midnightblue" points="1115.96,-124.75 1105.59,-126.91 1115.04,-131.69 1115.96,-124.75"/>
</g>
<!-- Node6 -->
<g id="node6" class="node">
<title>Node6</title>
<g id="a_node6"><a xlink:title=" ">
<polygon fill="white" stroke="#bfbfbf" points="1383.5,-0.5 1383.5,-19.5 1432.5,-19.5 1432.5,-0.5 1383.5,-0.5"/>
<text text-anchor="middle" x="1408" y="-7.5" font-family="Helvetica,sans-Serif" font-size="10.00">cctype</text>
</a>
</g>
</g>
<!-- Node1&#45;&gt;Node6 -->
<g id="edge41" class="edge">
<title>Node1&#45;&gt;Node6</title>
<path fill="none" stroke="midnightblue" d="M1483.54,-168.3C1479.81,-147.72 1468.68,-94.83 1447,-56 1441.1,-45.44 1432.45,-35.13 1424.79,-27.05"/>
<polygon fill="midnightblue" stroke="midnightblue" points="1427.13,-24.44 1417.6,-19.79 1422.15,-29.36 1427.13,-24.44"/>
</g>
<!-- Node20 -->
<g id="node20" class="node">
<title>Node20</title>
<g id="a_node20"><a xlink:title=" ">
<polygon fill="white" stroke="#bfbfbf" points="1450.5,-0.5 1450.5,-19.5 1507.5,-19.5 1507.5,-0.5 1450.5,-0.5"/>
<text text-anchor="middle" x="1479" y="-7.5" font-family="Helvetica,sans-Serif" font-size="10.00">ostream</text>
</a>
</g>
</g>
<!-- Node1&#45;&gt;Node20 -->
<g id="edge42" class="edge">
<title>Node1&#45;&gt;Node20</title>
<path fill="none" stroke="midnightblue" d="M1484.68,-168.08C1483.73,-141.95 1480.96,-65.21 1479.67,-29.58"/>
<polygon fill="midnightblue" stroke="midnightblue" points="1483.17,-29.44 1479.31,-19.57 1476.17,-29.69 1483.17,-29.44"/>
</g>
<!-- Node24 -->
<g id="node24" class="node">
<title>Node24</title>
<g id="a_node24"><a xlink:title=" ">
<polygon fill="white" stroke="#bfbfbf" points="1526,-0.5 1526,-19.5 1570,-19.5 1570,-0.5 1526,-0.5"/>
<text text-anchor="middle" x="1548" y="-7.5" font-family="Helvetica,sans-Serif" font-size="10.00">string</text>
</a>
</g>
</g>
<!-- Node1&#45;&gt;Node24 -->
<g id="edge43" class="edge">
<title>Node1&#45;&gt;Node24</title>
<path fill="none" stroke="midnightblue" d="M1488.39,-168.08C1498.35,-141.83 1527.68,-64.55 1541.12,-29.12"/>
<polygon fill="midnightblue" stroke="midnightblue" points="1544.47,-30.16 1544.75,-19.57 1537.93,-27.68 1544.47,-30.16"/>
</g>
<!-- Node3 -->
<g id="node3" class="node">
<title>Node3</title>
<g id="a_node3"><a xlink:href="date_8h.html" target="_top" xlink:title=" ">
<polygon fill="white" stroke="black" points="780.5,-56.5 780.5,-75.5 827.5,-75.5 827.5,-56.5 780.5,-56.5"/>
<text text-anchor="middle" x="804" y="-63.5" font-family="Helvetica,sans-Serif" font-size="10.00">date.h</text>
</a>
</g>
</g>
<!-- Node2&#45;&gt;Node3 -->
<g id="edge2" class="edge">
<title>Node2&#45;&gt;Node3</title>
<path fill="none" stroke="midnightblue" d="M1046.37,-115.12C995.39,-105 891.36,-84.34 837.7,-73.69"/>
<polygon fill="midnightblue" stroke="midnightblue" points="838.16,-70.21 827.67,-71.7 836.79,-77.08 838.16,-70.21"/>
</g>
<!-- Node4 -->
<g id="node4" class="node">
<title>Node4</title>
<g id="a_node4"><a xlink:title=" ">
<polygon fill="white" stroke="#bfbfbf" points="0,-0.5 0,-19.5 52,-19.5 52,-0.5 0,-0.5"/>
<text text-anchor="middle" x="26" y="-7.5" font-family="Helvetica,sans-Serif" font-size="10.00">cassert</text>
</a>
</g>
</g>
<!-- Node2&#45;&gt;Node4 -->
<g id="edge28" class="edge">
<title>Node2&#45;&gt;Node4</title>
<path fill="none" stroke="midnightblue" d="M1046.23,-120.78C945,-119.72 604.9,-113.39 327,-76 230.23,-62.98 118.34,-35.45 62.15,-20.75"/>
<polygon fill="midnightblue" stroke="midnightblue" points="62.89,-17.32 52.33,-18.16 61.1,-24.09 62.89,-17.32"/>
</g>
<!-- Node5 -->
<g id="node5" class="node">
<title>Node5</title>
<g id="a_node5"><a xlink:title=" ">
<polygon fill="white" stroke="#bfbfbf" points="70,-0.5 70,-19.5 134,-19.5 134,-0.5 70,-0.5"/>
<text text-anchor="middle" x="102" y="-7.5" font-family="Helvetica,sans-Serif" font-size="10.00">algorithm</text>
</a>
</g>
</g>
<!-- Node2&#45;&gt;Node5 -->
<g id="edge26" class="edge">
<title>Node2&#45;&gt;Node5</title>
<path fill="none" stroke="midnightblue" d="M1046.35,-119.92C957.21,-116.43 683.88,-104.05 459,-76 344.48,-61.71 211.04,-34.59 144.41,-20.31"/>
<polygon fill="midnightblue" stroke="midnightblue" points="144.81,-16.82 134.3,-18.14 143.34,-23.66 144.81,-16.82"/>
</g>
<!-- Node7 -->
<g id="node7" class="node">
<title>Node7</title>
<g id="a_node7"><a xlink:title=" ">
<polygon fill="white" stroke="#bfbfbf" points="152,-0.5 152,-19.5 202,-19.5 202,-0.5 152,-0.5"/>
<text text-anchor="middle" x="177" y="-7.5" font-family="Helvetica,sans-Serif" font-size="10.00">chrono</text>
</a>
</g>
</g>
<!-- Node2&#45;&gt;Node7 -->
<g id="edge29" class="edge">
<title>Node2&#45;&gt;Node7</title>
<path fill="none" stroke="midnightblue" d="M1046.35,-118.46C973.62,-112.16 780.58,-94.91 620,-76 531.83,-65.62 315.5,-39.73 212.11,-19.98"/>
<polygon fill="midnightblue" stroke="midnightblue" points="212.66,-16.52 202.17,-18.03 211.31,-23.39 212.66,-16.52"/>
</g>
<!-- Node15 -->
<g id="node15" class="node">
<title>Node15</title>
<g id="a_node15"><a xlink:title=" ">
<polygon fill="white" stroke="#bfbfbf" points="220,-0.5 220,-19.5 274,-19.5 274,-0.5 220,-0.5"/>
<text text-anchor="middle" x="247" y="-7.5" font-family="Helvetica,sans-Serif" font-size="10.00">istream</text>
</a>
</g>
</g>
<!-- Node2&#45;&gt;Node15 -->
<g id="edge30" class="edge">
<title>Node2&#45;&gt;Node15</title>
<path fill="none" stroke="midnightblue" d="M1046.44,-116.42C973.91,-105.26 781.28,-76.1 620,-56 473.74,-37.77 433.05,-45.96 284.02,-19.95"/>
<polygon fill="midnightblue" stroke="midnightblue" points="284.5,-16.48 274.04,-18.19 283.28,-23.37 284.5,-16.48"/>
</g>
<!-- Node18 -->
<g id="node18" class="node">
<title>Node18</title>
<g id="a_node18"><a xlink:title=" ">
<polygon fill="white" stroke="#bfbfbf" points="936,-0.5 936,-19.5 982,-19.5 982,-0.5 936,-0.5"/>
<text text-anchor="middle" x="959" y="-7.5" font-family="Helvetica,sans-Serif" font-size="10.00">locale</text>
</a>
</g>
</g>
<!-- Node2&#45;&gt;Node18 -->
<g id="edge31" class="edge">
<title>Node2&#45;&gt;Node18</title>
<path fill="none" stroke="midnightblue" d="M1066.82,-112.37C1047.17,-93.89 1000.79,-50.29 975.75,-26.74"/>
<polygon fill="midnightblue" stroke="midnightblue" points="977.82,-23.89 968.14,-19.59 973.03,-28.99 977.82,-23.89"/>
</g>
<!-- Node19 -->
<g id="node19" class="node">
<title>Node19</title>
<g id="a_node19"><a xlink:title=" ">
<polygon fill="white" stroke="#bfbfbf" points="1000,-0.5 1000,-19.5 1058,-19.5 1058,-0.5 1000,-0.5"/>
<text text-anchor="middle" x="1029" y="-7.5" font-family="Helvetica,sans-Serif" font-size="10.00">memory</text>
</a>
</g>
</g>
<!-- Node2&#45;&gt;Node19 -->
<g id="edge32" class="edge">
<title>Node2&#45;&gt;Node19</title>
<path fill="none" stroke="midnightblue" d="M1072.1,-112.4C1068.03,-103.36 1061.47,-88.72 1056,-76 1049.22,-60.23 1041.75,-42.2 1036.39,-29.14"/>
<polygon fill="midnightblue" stroke="midnightblue" points="1039.63,-27.79 1032.6,-19.86 1033.15,-30.44 1039.63,-27.79"/>
</g>
<!-- Node2&#45;&gt;Node20 -->
<g id="edge34" class="edge">
<title>Node2&#45;&gt;Node20</title>
<path fill="none" stroke="midnightblue" d="M1094.42,-112.41C1113.76,-103.38 1145.04,-88.74 1172,-76 1190.69,-67.17 1194.25,-62.12 1214,-56 1308.93,-26.58 1339.5,-39.28 1440.38,-20.16"/>
<polygon fill="midnightblue" stroke="midnightblue" points="1441.23,-23.56 1450.37,-18.21 1439.88,-16.69 1441.23,-23.56"/>
</g>
<!-- Node22 -->
<g id="node22" class="node">
<title>Node22</title>
<g id="a_node22"><a xlink:title=" ">
<polygon fill="white" stroke="#bfbfbf" points="1076,-0.5 1076,-19.5 1132,-19.5 1132,-0.5 1076,-0.5"/>
<text text-anchor="middle" x="1104" y="-7.5" font-family="Helvetica,sans-Serif" font-size="10.00">sstream</text>
</a>
</g>
</g>
<!-- Node2&#45;&gt;Node22 -->
<g id="edge35" class="edge">
<title>Node2&#45;&gt;Node22</title>
<path fill="none" stroke="midnightblue" d="M1071.02,-112.33C1064.4,-99.61 1054.38,-75.33 1062,-56 1066.51,-44.55 1075.47,-34.29 1083.95,-26.47"/>
<polygon fill="midnightblue" stroke="midnightblue" points="1086.47,-28.93 1091.79,-19.76 1081.91,-23.61 1086.47,-28.93"/>
</g>
<!-- Node23 -->
<g id="node23" class="node">
<title>Node23</title>
<g id="a_node23"><a xlink:title=" ">
<polygon fill="white" stroke="#bfbfbf" points="1150.5,-0.5 1150.5,-19.5 1215.5,-19.5 1215.5,-0.5 1150.5,-0.5"/>
<text text-anchor="middle" x="1183" y="-7.5" font-family="Helvetica,sans-Serif" font-size="10.00">stdexcept</text>
</a>
</g>
</g>
<!-- Node2&#45;&gt;Node23 -->
<g id="edge36" class="edge">
<title>Node2&#45;&gt;Node23</title>
<path fill="none" stroke="midnightblue" d="M1077.19,-112.44C1079.45,-98.99 1085.51,-72.73 1100,-56 1112.65,-41.4 1131.25,-30.7 1147.63,-23.41"/>
<polygon fill="midnightblue" stroke="midnightblue" points="1149.09,-26.6 1156.96,-19.51 1146.39,-20.14 1149.09,-26.6"/>
</g>
<!-- Node2&#45;&gt;Node24 -->
<g id="edge37" class="edge">
<title>Node2&#45;&gt;Node24</title>
<path fill="none" stroke="midnightblue" d="M1104.26,-112.49C1131.07,-104.14 1172.3,-90.56 1207,-76 1225.33,-68.31 1228,-61.84 1247,-56 1359.67,-21.38 1396.59,-43.7 1515.87,-19.93"/>
<polygon fill="midnightblue" stroke="midnightblue" points="1516.66,-23.34 1525.75,-17.89 1515.25,-16.48 1516.66,-23.34"/>
</g>
<!-- Node25 -->
<g id="node25" class="node">
<title>Node25</title>
<g id="a_node25"><a xlink:title=" ">
<polygon fill="white" stroke="#bfbfbf" points="1233.5,-0.5 1233.5,-19.5 1278.5,-19.5 1278.5,-0.5 1233.5,-0.5"/>
<text text-anchor="middle" x="1256" y="-7.5" font-family="Helvetica,sans-Serif" font-size="10.00">utility</text>
</a>
</g>
</g>
<!-- Node2&#45;&gt;Node25 -->
<g id="edge39" class="edge">
<title>Node2&#45;&gt;Node25</title>
<path fill="none" stroke="midnightblue" d="M1082.28,-112.24C1092.53,-98.51 1114.1,-71.89 1138,-56 1152.44,-46.4 1194.06,-31.49 1223.77,-21.5"/>
<polygon fill="midnightblue" stroke="midnightblue" points="1224.96,-24.79 1233.34,-18.31 1222.75,-18.15 1224.96,-24.79"/>
</g>
<!-- Node26 -->
<g id="node26" class="node">
<title>Node26</title>
<g id="a_node26"><a xlink:title=" ">
<polygon fill="white" stroke="#bfbfbf" points="1296.5,-0.5 1296.5,-19.5 1365.5,-19.5 1365.5,-0.5 1296.5,-0.5"/>
<text text-anchor="middle" x="1331" y="-7.5" font-family="Helvetica,sans-Serif" font-size="10.00">type_traits</text>
</a>
</g>
</g>
<!-- Node2&#45;&gt;Node26 -->
<g id="edge38" class="edge">
<title>Node2&#45;&gt;Node26</title>
<path fill="none" stroke="midnightblue" d="M1086.77,-112.45C1104.46,-98.79 1141.17,-71.95 1176,-56 1195.82,-46.92 1248.81,-32.26 1287.32,-22.15"/>
<polygon fill="midnightblue" stroke="midnightblue" points="1288.47,-25.46 1297.26,-19.55 1286.71,-18.69 1288.47,-25.46"/>
</g>
<!-- Node27 -->
<g id="node27" class="node">
<title>Node27</title>
<g id="a_node27"><a xlink:title=" ">
<polygon fill="white" stroke="#bfbfbf" points="1256,-56.5 1256,-75.5 1306,-75.5 1306,-56.5 1256,-56.5"/>
<text text-anchor="middle" x="1281" y="-63.5" font-family="Helvetica,sans-Serif" font-size="10.00">atomic</text>
</a>
</g>
</g>
<!-- Node2&#45;&gt;Node27 -->
<g id="edge27" class="edge">
<title>Node2&#45;&gt;Node27</title>
<path fill="none" stroke="midnightblue" d="M1105.81,-113.15C1143.1,-103.33 1206.82,-86.54 1246.27,-76.15"/>
<polygon fill="midnightblue" stroke="midnightblue" points="1247.21,-79.52 1255.99,-73.59 1245.43,-72.75 1247.21,-79.52"/>
</g>
<!-- Node28 -->
<g id="node28" class="node">
<title>Node28</title>
<g id="a_node28"><a xlink:title=" ">
<polygon fill="white" stroke="#bfbfbf" points="1324,-56.5 1324,-75.5 1372,-75.5 1372,-56.5 1324,-56.5"/>
<text text-anchor="middle" x="1348" y="-63.5" font-family="Helvetica,sans-Serif" font-size="10.00">mutex</text>
</a>
</g>
</g>
<!-- Node2&#45;&gt;Node28 -->
<g id="edge33" class="edge">
<title>Node2&#45;&gt;Node28</title>
<path fill="none" stroke="midnightblue" d="M1105.59,-116.21C1149.14,-109 1233.21,-94.43 1314.06,-76.07"/>
<polygon fill="midnightblue" stroke="midnightblue" points="1314.94,-79.46 1323.91,-73.81 1313.38,-72.64 1314.94,-79.46"/>
</g>
<!-- Node29 -->
<g id="node29" class="node">
<title>Node29</title>
<g id="a_node29"><a xlink:title=" ">
<polygon fill="white" stroke="#bfbfbf" points="1390.5,-56.5 1390.5,-75.5 1437.5,-75.5 1437.5,-56.5 1390.5,-56.5"/>
<text text-anchor="middle" x="1414" y="-63.5" font-family="Helvetica,sans-Serif" font-size="10.00">vector</text>
</a>
</g>
</g>
<!-- Node2&#45;&gt;Node29 -->
<g id="edge40" class="edge">
<title>Node2&#45;&gt;Node29</title>
<path fill="none" stroke="midnightblue" d="M1105.65,-117.82C1158.75,-111.87 1273.7,-97.83 1380.33,-75.91"/>
<polygon fill="midnightblue" stroke="midnightblue" points="1381.21,-79.3 1390.29,-73.83 1379.79,-72.45 1381.21,-79.3"/>
</g>
<!-- Node3&#45;&gt;Node4 -->
<g id="edge3" class="edge">
<title>Node3&#45;&gt;Node4</title>
<path fill="none" stroke="midnightblue" d="M780.4,-65.2C689.01,-65.66 349.61,-64.18 62.45,-19.92"/>
<polygon fill="midnightblue" stroke="midnightblue" points="62.68,-16.41 52.26,-18.33 61.6,-23.33 62.68,-16.41"/>
</g>
<!-- Node3&#45;&gt;Node5 -->
<g id="edge4" class="edge">
<title>Node3&#45;&gt;Node5</title>
<path fill="none" stroke="midnightblue" d="M780.45,-64.66C695.76,-63.15 398.63,-55.62 144.32,-19.97"/>
<polygon fill="midnightblue" stroke="midnightblue" points="144.54,-16.47 134.15,-18.53 143.56,-23.4 144.54,-16.47"/>
</g>
<!-- Node3&#45;&gt;Node6 -->
<g id="edge5" class="edge">
<title>Node3&#45;&gt;Node6</title>
<path fill="none" stroke="midnightblue" d="M827.59,-64.72C904.81,-63.48 1157.07,-56.81 1373.3,-20"/>
<polygon fill="midnightblue" stroke="midnightblue" points="1373.99,-23.44 1383.25,-18.29 1372.8,-16.54 1373.99,-23.44"/>
</g>
<!-- Node3&#45;&gt;Node7 -->
<g id="edge6" class="edge">
<title>Node3&#45;&gt;Node7</title>
<path fill="none" stroke="midnightblue" d="M780.41,-63.79C687.04,-58.91 342.47,-40.05 212.24,-19.85"/>
<polygon fill="midnightblue" stroke="midnightblue" points="212.57,-16.36 202.14,-18.2 211.45,-23.26 212.57,-16.36"/>
</g>
<!-- Node8 -->
<g id="node8" class="node">
<title>Node8</title>
<g id="a_node8"><a xlink:title=" ">
<polygon fill="white" stroke="#bfbfbf" points="292,-0.5 292,-19.5 342,-19.5 342,-0.5 292,-0.5"/>
<text text-anchor="middle" x="317" y="-7.5" font-family="Helvetica,sans-Serif" font-size="10.00">climits</text>
</a>
</g>
</g>
<!-- Node3&#45;&gt;Node8 -->
<g id="edge7" class="edge">
<title>Node3&#45;&gt;Node8</title>
<path fill="none" stroke="midnightblue" d="M780.36,-61.96C765.84,-60.14 746.86,-57.83 730,-56 564.98,-38.13 519.3,-49.3 352.03,-19.91"/>
<polygon fill="midnightblue" stroke="midnightblue" points="352.61,-16.46 342.15,-18.15 351.38,-23.35 352.61,-16.46"/>
</g>
<!-- Node9 -->
<g id="node9" class="node">
<title>Node9</title>
<g id="a_node9"><a xlink:title=" ">
<polygon fill="white" stroke="#bfbfbf" points="360.5,-0.5 360.5,-19.5 407.5,-19.5 407.5,-0.5 360.5,-0.5"/>
<text text-anchor="middle" x="384" y="-7.5" font-family="Helvetica,sans-Serif" font-size="10.00">cmath</text>
</a>
</g>
</g>
<!-- Node3&#45;&gt;Node9 -->
<g id="edge8" class="edge">
<title>Node3&#45;&gt;Node9</title>
<path fill="none" stroke="midnightblue" d="M780.34,-62.08C765.82,-60.3 746.84,-57.99 730,-56 593.77,-39.91 555.61,-46.76 417.76,-20.09"/>
<polygon fill="midnightblue" stroke="midnightblue" points="418.15,-16.6 407.66,-18.11 416.8,-23.47 418.15,-16.6"/>
</g>
<!-- Node10 -->
<g id="node10" class="node">
<title>Node10</title>
<g id="a_node10"><a xlink:title=" ">
<polygon fill="white" stroke="#bfbfbf" points="425.5,-0.5 425.5,-19.5 478.5,-19.5 478.5,-0.5 425.5,-0.5"/>
<text text-anchor="middle" x="452" y="-7.5" font-family="Helvetica,sans-Serif" font-size="10.00">cstddef</text>
</a>
</g>
</g>
<!-- Node3&#45;&gt;Node10 -->
<g id="edge9" class="edge">
<title>Node3&#45;&gt;Node10</title>
<path fill="none" stroke="midnightblue" d="M780.35,-61.96C719.96,-54.13 560.36,-33.14 488.6,-19.89"/>
<polygon fill="midnightblue" stroke="midnightblue" points="489.15,-16.43 478.67,-17.99 487.83,-23.31 489.15,-16.43"/>
</g>
<!-- Node11 -->
<g id="node11" class="node">
<title>Node11</title>
<g id="a_node11"><a xlink:title=" ">
<polygon fill="white" stroke="#bfbfbf" points="497,-0.5 497,-19.5 547,-19.5 547,-0.5 497,-0.5"/>
<text text-anchor="middle" x="522" y="-7.5" font-family="Helvetica,sans-Serif" font-size="10.00">cstdint</text>
</a>
</g>
</g>
<!-- Node3&#45;&gt;Node11 -->
<g id="edge10" class="edge">
<title>Node3&#45;&gt;Node11</title>
<path fill="none" stroke="midnightblue" d="M780.28,-61.34C737.59,-54.61 644.82,-39.37 557.04,-20.09"/>
<polygon fill="midnightblue" stroke="midnightblue" points="557.72,-16.66 547.2,-17.91 556.2,-23.49 557.72,-16.66"/>
</g>
<!-- Node12 -->
<g id="node12" class="node">
<title>Node12</title>
<g id="a_node12"><a xlink:title=" ">
<polygon fill="white" stroke="#bfbfbf" points="565.5,-0.5 565.5,-19.5 614.5,-19.5 614.5,-0.5 565.5,-0.5"/>
<text text-anchor="middle" x="590" y="-7.5" font-family="Helvetica,sans-Serif" font-size="10.00">cstdlib</text>
</a>
</g>
</g>
<!-- Node3&#45;&gt;Node12 -->
<g id="edge11" class="edge">
<title>Node3&#45;&gt;Node12</title>
<path fill="none" stroke="midnightblue" d="M780.39,-59.21C747.71,-51.17 686.61,-36.05 624.48,-20.1"/>
<polygon fill="midnightblue" stroke="midnightblue" points="625.06,-16.63 614.5,-17.53 623.32,-23.41 625.06,-16.63"/>
</g>
<!-- Node13 -->
<g id="node13" class="node">
<title>Node13</title>
<g id="a_node13"><a xlink:title=" ">
<polygon fill="white" stroke="#bfbfbf" points="633,-0.5 633,-19.5 677,-19.5 677,-0.5 633,-0.5"/>
<text text-anchor="middle" x="655" y="-7.5" font-family="Helvetica,sans-Serif" font-size="10.00">ctime</text>
</a>
</g>
</g>
<!-- Node3&#45;&gt;Node13 -->
<g id="edge12" class="edge">
<title>Node3&#45;&gt;Node13</title>
<path fill="none" stroke="midnightblue" d="M780.39,-56.44C755.1,-47.28 714.83,-32.68 686.78,-22.52"/>
<polygon fill="midnightblue" stroke="midnightblue" points="687.64,-19.11 677.04,-18.99 685.25,-25.69 687.64,-19.11"/>
</g>
<!-- Node14 -->
<g id="node14" class="node">
<title>Node14</title>
<g id="a_node14"><a xlink:title=" ">
<polygon fill="white" stroke="#bfbfbf" points="695.5,-0.5 695.5,-19.5 726.5,-19.5 726.5,-0.5 695.5,-0.5"/>
<text text-anchor="middle" x="711" y="-7.5" font-family="Helvetica,sans-Serif" font-size="10.00">ios</text>
</a>
</g>
</g>
<!-- Node3&#45;&gt;Node14 -->
<g id="edge13" class="edge">
<title>Node3&#45;&gt;Node14</title>
<path fill="none" stroke="midnightblue" d="M789.06,-56.32C774.41,-47.82 751.87,-34.73 734.76,-24.8"/>
<polygon fill="midnightblue" stroke="midnightblue" points="736.31,-21.65 725.9,-19.65 732.8,-27.7 736.31,-21.65"/>
</g>
<!-- Node3&#45;&gt;Node15 -->
<g id="edge14" class="edge">
<title>Node3&#45;&gt;Node15</title>
<path fill="none" stroke="midnightblue" d="M780.37,-61.88C765.85,-60.02 746.87,-57.7 730,-56 534.99,-36.3 481.45,-51.75 284.14,-19.92"/>
<polygon fill="midnightblue" stroke="midnightblue" points="284.46,-16.42 274.03,-18.26 283.33,-23.33 284.46,-16.42"/>
</g>
<!-- Node16 -->
<g id="node16" class="node">
<title>Node16</title>
<g id="a_node16"><a xlink:title=" ">
<polygon fill="white" stroke="#bfbfbf" points="744.5,-0.5 744.5,-19.5 797.5,-19.5 797.5,-0.5 744.5,-0.5"/>
<text text-anchor="middle" x="771" y="-7.5" font-family="Helvetica,sans-Serif" font-size="10.00">iterator</text>
</a>
</g>
</g>
<!-- Node3&#45;&gt;Node16 -->
<g id="edge15" class="edge">
<title>Node3&#45;&gt;Node16</title>
<path fill="none" stroke="midnightblue" d="M798.55,-56.08C793.99,-48.61 787.33,-37.72 781.71,-28.52"/>
<polygon fill="midnightblue" stroke="midnightblue" points="784.55,-26.46 776.35,-19.75 778.58,-30.11 784.55,-26.46"/>
</g>
<!-- Node17 -->
<g id="node17" class="node">
<title>Node17</title>
<g id="a_node17"><a xlink:title=" ">
<polygon fill="white" stroke="#bfbfbf" points="816,-0.5 816,-19.5 860,-19.5 860,-0.5 816,-0.5"/>
<text text-anchor="middle" x="838" y="-7.5" font-family="Helvetica,sans-Serif" font-size="10.00">limits</text>
</a>
</g>
</g>
<!-- Node3&#45;&gt;Node17 -->
<g id="edge16" class="edge">
<title>Node3&#45;&gt;Node17</title>
<path fill="none" stroke="midnightblue" d="M809.61,-56.08C814.37,-48.53 821.32,-37.49 827.15,-28.23"/>
<polygon fill="midnightblue" stroke="midnightblue" points="830.12,-30.08 832.49,-19.75 824.2,-26.35 830.12,-30.08"/>
</g>
<!-- Node3&#45;&gt;Node18 -->
<g id="edge17" class="edge">
<title>Node3&#45;&gt;Node18</title>
<path fill="none" stroke="midnightblue" d="M827.54,-56.8C853.94,-47.6 896.93,-32.62 926.52,-22.32"/>
<polygon fill="midnightblue" stroke="midnightblue" points="927.71,-25.61 936,-19.01 925.4,-19 927.71,-25.61"/>
</g>
<!-- Node3&#45;&gt;Node19 -->
<g id="edge18" class="edge">
<title>Node3&#45;&gt;Node19</title>
<path fill="none" stroke="midnightblue" d="M827.65,-59.32C866.23,-50.06 943.08,-31.62 989.87,-20.39"/>
<polygon fill="midnightblue" stroke="midnightblue" points="990.76,-23.78 999.66,-18.04 989.12,-16.97 990.76,-23.78"/>
</g>
<!-- Node3&#45;&gt;Node20 -->
<g id="edge19" class="edge">
<title>Node3&#45;&gt;Node20</title>
<path fill="none" stroke="midnightblue" d="M827.62,-64.76C910.57,-63.63 1196.23,-57.22 1440.29,-20.02"/>
<polygon fill="midnightblue" stroke="midnightblue" points="1441.06,-23.44 1450.41,-18.46 1440,-16.53 1441.06,-23.44"/>
</g>
<!-- Node21 -->
<g id="node21" class="node">
<title>Node21</title>
<g id="a_node21"><a xlink:title=" ">
<polygon fill="white" stroke="#bfbfbf" points="878.5,-0.5 878.5,-19.5 917.5,-19.5 917.5,-0.5 878.5,-0.5"/>
<text text-anchor="middle" x="898" y="-7.5" font-family="Helvetica,sans-Serif" font-size="10.00">ratio</text>
</a>
</g>
</g>
<!-- Node3&#45;&gt;Node21 -->
<g id="edge20" class="edge">
<title>Node3&#45;&gt;Node21</title>
<path fill="none" stroke="midnightblue" d="M819.1,-56.32C833.9,-47.82 856.69,-34.73 873.98,-24.8"/>
<polygon fill="midnightblue" stroke="midnightblue" points="876.01,-27.67 882.93,-19.65 872.52,-21.6 876.01,-27.67"/>
</g>
<!-- Node3&#45;&gt;Node22 -->
<g id="edge21" class="edge">
<title>Node3&#45;&gt;Node22</title>
<path fill="none" stroke="midnightblue" d="M827.68,-61.51C872.3,-54.81 972.09,-39.27 1065.84,-20.13"/>
<polygon fill="midnightblue" stroke="midnightblue" points="1066.68,-23.53 1075.76,-18.08 1065.26,-16.67 1066.68,-23.53"/>
</g>
<!-- Node3&#45;&gt;Node23 -->
<g id="edge22" class="edge">
<title>Node3&#45;&gt;Node23</title>
<path fill="none" stroke="midnightblue" d="M827.8,-62.47C881.57,-56.62 1016.73,-41.14 1140.46,-19.96"/>
<polygon fill="midnightblue" stroke="midnightblue" points="1141.23,-23.38 1150.49,-18.23 1140.04,-16.48 1141.23,-23.38"/>
</g>
<!-- Node3&#45;&gt;Node24 -->
<g id="edge23" class="edge">
<title>Node3&#45;&gt;Node24</title>
<path fill="none" stroke="midnightblue" d="M827.61,-65.38C916.76,-66.42 1241.36,-66.7 1515.64,-19.84"/>
<polygon fill="midnightblue" stroke="midnightblue" points="1516.53,-23.24 1525.79,-18.08 1515.34,-16.34 1516.53,-23.24"/>
</g>
<!-- Node3&#45;&gt;Node25 -->
<g id="edge24" class="edge">
<title>Node3&#45;&gt;Node25</title>
<path fill="none" stroke="midnightblue" d="M827.96,-63.92C891.2,-60.75 1067.9,-49.89 1223.23,-20.05"/>
<polygon fill="midnightblue" stroke="midnightblue" points="1224.28,-23.41 1233.43,-18.05 1222.94,-16.54 1224.28,-23.41"/>
</g>
<!-- Node3&#45;&gt;Node26 -->
<g id="edge25" class="edge">
<title>Node3&#45;&gt;Node26</title>
<path fill="none" stroke="midnightblue" d="M827.54,-63.76C896.54,-59.93 1104.43,-46.97 1286.32,-20.11"/>
<polygon fill="midnightblue" stroke="midnightblue" points="1286.95,-23.55 1296.33,-18.61 1285.92,-16.63 1286.95,-23.55"/>
</g>
</g>
</svg>
