<?xml version="1.0" encoding="UTF-8" standalone="no"?>
<!DOCTYPE svg PUBLIC "-//W3C//DTD SVG 1.1//EN"
 "http://www.w3.org/Graphics/SVG/1.1/DTD/svg11.dtd">
<!-- Generated by graphviz version 2.43.0 (0)
 -->
<!-- Title: Tag_FrameASM64_ff_impl.h Pages: 1 -->
<svg width="276pt" height="218pt"
 viewBox="0.00 0.00 276.00 218.00" xmlns="http://www.w3.org/2000/svg" xmlns:xlink="http://www.w3.org/1999/xlink">
<g id="graph0" class="graph" transform="scale(1 1) rotate(0) translate(4 214)">
<title>Tag_FrameASM64_ff_impl.h</title>
<polygon fill="white" stroke="transparent" points="-4,4 -4,-214 272,-214 272,4 -4,4"/>
<!-- Node1 -->
<g id="node1" class="node">
<title>Node1</title>
<g id="a_node1"><a xlink:title=" ">
<polygon fill="#bfbfbf" stroke="black" points="57.5,-190.5 57.5,-209.5 209.5,-209.5 209.5,-190.5 57.5,-190.5"/>
<text text-anchor="middle" x="133.5" y="-197.5" font-family="Helvetica,sans-Serif" font-size="10.00">Tag_FrameASM64_ff_impl.h</text>
</a>
</g>
</g>
<!-- Node2 -->
<g id="node2" class="node">
<title>Node2</title>
<g id="a_node2"><a xlink:href="Tag__FrameASM64__ff_8h.html" target="_top" xlink:title=" ">
<polygon fill="white" stroke="black" points="70,-123.5 70,-153.5 197,-153.5 197,-123.5 70,-123.5"/>
<text text-anchor="start" x="78" y="-141.5" font-family="Helvetica,sans-Serif" font-size="10.00">gnuradio/aff3ct_codes</text>
<text text-anchor="middle" x="133.5" y="-130.5" font-family="Helvetica,sans-Serif" font-size="10.00">/Tag_FrameASM64_ff.h</text>
</a>
</g>
</g>
<!-- Node1&#45;&gt;Node2 -->
<g id="edge1" class="edge">
<title>Node1&#45;&gt;Node2</title>
<path fill="none" stroke="midnightblue" d="M133.5,-190.48C133.5,-183.47 133.5,-173.19 133.5,-163.7"/>
<polygon fill="midnightblue" stroke="midnightblue" points="137,-163.52 133.5,-153.52 130,-163.52 137,-163.52"/>
</g>
<!-- Node3 -->
<g id="node3" class="node">
<title>Node3</title>
<g id="a_node3"><a xlink:href="api_8h.html" target="_top" xlink:title=" ">
<polygon fill="white" stroke="black" points="0,-56.5 0,-86.5 125,-86.5 125,-56.5 0,-56.5"/>
<text text-anchor="start" x="8" y="-74.5" font-family="Helvetica,sans-Serif" font-size="10.00">gnuradio/aff3ct_codes</text>
<text text-anchor="middle" x="62.5" y="-63.5" font-family="Helvetica,sans-Serif" font-size="10.00">/api.h</text>
</a>
</g>
</g>
<!-- Node2&#45;&gt;Node3 -->
<g id="edge2" class="edge">
<title>Node2&#45;&gt;Node3</title>
<path fill="none" stroke="midnightblue" d="M118.09,-123.4C108.51,-114.62 96.01,-103.18 85.3,-93.37"/>
<polygon fill="midnightblue" stroke="midnightblue" points="87.62,-90.75 77.88,-86.58 82.89,-95.91 87.62,-90.75"/>
</g>
<!-- Node5 -->
<g id="node5" class="node">
<title>Node5</title>
<g id="a_node5"><a xlink:title=" ">
<polygon fill="white" stroke="#bfbfbf" points="143,-62 143,-81 268,-81 268,-62 143,-62"/>
<text text-anchor="middle" x="205.5" y="-69" font-family="Helvetica,sans-Serif" font-size="10.00">gnuradio/sync_block.h</text>
</a>
</g>
</g>
<!-- Node2&#45;&gt;Node5 -->
<g id="edge4" class="edge">
<title>Node2&#45;&gt;Node5</title>
<path fill="none" stroke="midnightblue" d="M149.12,-123.4C160.68,-112.96 176.42,-98.75 188.33,-88"/>
<polygon fill="midnightblue" stroke="midnightblue" points="190.79,-90.49 195.87,-81.19 186.1,-85.3 190.79,-90.49"/>
</g>
<!-- Node4 -->
<g id="node4" class="node">
<title>Node4</title>
<g id="a_node4"><a xlink:title=" ">
<polygon fill="white" stroke="#bfbfbf" points="3,-0.5 3,-19.5 122,-19.5 122,-0.5 3,-0.5"/>
<text text-anchor="middle" x="62.5" y="-7.5" font-family="Helvetica,sans-Serif" font-size="10.00">gnuradio/attributes.h</text>
</a>
</g>
</g>
<!-- Node3&#45;&gt;Node4 -->
<g id="edge3" class="edge">
<title>Node3&#45;&gt;Node4</title>
<path fill="none" stroke="midnightblue" d="M62.5,-56.4C62.5,-48.47 62.5,-38.46 62.5,-29.86"/>
<polygon fill="midnightblue" stroke="midnightblue" points="66,-29.66 62.5,-19.66 59,-29.66 66,-29.66"/>
</g>
</g>
</svg>
