<?xml version="1.0" encoding="UTF-8" standalone="no"?>
<!DOCTYPE svg PUBLIC "-//W3C//DTD SVG 1.1//EN"
 "http://www.w3.org/Graphics/SVG/1.1/DTD/svg11.dtd">
<!-- Generated by graphviz version 2.43.0 (0)
 -->
<!-- Title: tz.h Pages: 1 -->
<svg width="1581pt" height="140pt"
 viewBox="0.00 0.00 1580.50 140.00" xmlns="http://www.w3.org/2000/svg" xmlns:xlink="http://www.w3.org/1999/xlink">
<g id="graph0" class="graph" transform="scale(1 1) rotate(0) translate(4 136)">
<title>tz.h</title>
<polygon fill="white" stroke="transparent" points="-4,4 -4,-136 1576.5,-136 1576.5,4 -4,4"/>
<!-- Node1 -->
<g id="node1" class="node">
<title>Node1</title>
<g id="a_node1"><a xlink:title=" ">
<polygon fill="#bfbfbf" stroke="black" points="1136.5,-112.5 1136.5,-131.5 1171.5,-131.5 1171.5,-112.5 1136.5,-112.5"/>
<text text-anchor="middle" x="1154" y="-119.5" font-family="Helvetica,sans-Serif" font-size="10.00">tz.h</text>
</a>
</g>
</g>
<!-- Node2 -->
<g id="node2" class="node">
<title>Node2</title>
<g id="a_node2"><a xlink:href="date_8h.html" target="_top" xlink:title=" ">
<polygon fill="white" stroke="black" points="765.5,-56.5 765.5,-75.5 812.5,-75.5 812.5,-56.5 765.5,-56.5"/>
<text text-anchor="middle" x="789" y="-63.5" font-family="Helvetica,sans-Serif" font-size="10.00">date.h</text>
</a>
</g>
</g>
<!-- Node1&#45;&gt;Node2 -->
<g id="edge1" class="edge">
<title>Node1&#45;&gt;Node2</title>
<path fill="none" stroke="midnightblue" d="M1136.4,-118.4C1079.27,-109.94 898.42,-83.19 822.78,-72"/>
<polygon fill="midnightblue" stroke="midnightblue" points="823.23,-68.53 812.83,-70.52 822.21,-75.45 823.23,-68.53"/>
</g>
<!-- Node3 -->
<g id="node3" class="node">
<title>Node3</title>
<g id="a_node3"><a xlink:title=" ">
<polygon fill="white" stroke="#bfbfbf" points="0,-0.5 0,-19.5 52,-19.5 52,-0.5 0,-0.5"/>
<text text-anchor="middle" x="26" y="-7.5" font-family="Helvetica,sans-Serif" font-size="10.00">cassert</text>
</a>
</g>
</g>
<!-- Node1&#45;&gt;Node3 -->
<g id="edge27" class="edge">
<title>Node1&#45;&gt;Node3</title>
<path fill="none" stroke="midnightblue" d="M1136.3,-120.84C1050.43,-119.91 668.79,-113.72 359,-76 228.49,-60.11 194.21,-49.76 62.41,-20.22"/>
<polygon fill="midnightblue" stroke="midnightblue" points="62.85,-16.73 52.33,-17.97 61.32,-23.57 62.85,-16.73"/>
</g>
<!-- Node4 -->
<g id="node4" class="node">
<title>Node4</title>
<g id="a_node4"><a xlink:title=" ">
<polygon fill="white" stroke="#bfbfbf" points="70,-0.5 70,-19.5 134,-19.5 134,-0.5 70,-0.5"/>
<text text-anchor="middle" x="102" y="-7.5" font-family="Helvetica,sans-Serif" font-size="10.00">algorithm</text>
</a>
</g>
</g>
<!-- Node1&#45;&gt;Node4 -->
<g id="edge25" class="edge">
<title>Node1&#45;&gt;Node4</title>
<path fill="none" stroke="midnightblue" d="M1136.4,-120.18C1062.57,-116.66 770.7,-101.78 532,-76 361.56,-57.59 316.52,-51.42 144.1,-20.1"/>
<polygon fill="midnightblue" stroke="midnightblue" points="144.65,-16.64 134.18,-18.3 143.4,-23.53 144.65,-16.64"/>
</g>
<!-- Node6 -->
<g id="node6" class="node">
<title>Node6</title>
<g id="a_node6"><a xlink:title=" ">
<polygon fill="white" stroke="#bfbfbf" points="152,-0.5 152,-19.5 202,-19.5 202,-0.5 152,-0.5"/>
<text text-anchor="middle" x="177" y="-7.5" font-family="Helvetica,sans-Serif" font-size="10.00">chrono</text>
</a>
</g>
</g>
<!-- Node1&#45;&gt;Node6 -->
<g id="edge28" class="edge">
<title>Node1&#45;&gt;Node6</title>
<path fill="none" stroke="midnightblue" d="M1136.4,-119.28C1018.6,-107.73 345.43,-41.42 212.38,-19.88"/>
<polygon fill="midnightblue" stroke="midnightblue" points="212.6,-16.37 202.15,-18.11 211.41,-23.27 212.6,-16.37"/>
</g>
<!-- Node14 -->
<g id="node14" class="node">
<title>Node14</title>
<g id="a_node14"><a xlink:title=" ">
<polygon fill="white" stroke="#bfbfbf" points="932,-0.5 932,-19.5 986,-19.5 986,-0.5 932,-0.5"/>
<text text-anchor="middle" x="959" y="-7.5" font-family="Helvetica,sans-Serif" font-size="10.00">istream</text>
</a>
</g>
</g>
<!-- Node1&#45;&gt;Node14 -->
<g id="edge29" class="edge">
<title>Node1&#45;&gt;Node14</title>
<path fill="none" stroke="midnightblue" d="M1138.7,-112.37C1104.88,-93.29 1023.57,-47.42 982.94,-24.51"/>
<polygon fill="midnightblue" stroke="midnightblue" points="984.66,-21.46 974.23,-19.59 981.22,-27.55 984.66,-21.46"/>
</g>
<!-- Node17 -->
<g id="node17" class="node">
<title>Node17</title>
<g id="a_node17"><a xlink:title=" ">
<polygon fill="white" stroke="#bfbfbf" points="1004,-0.5 1004,-19.5 1050,-19.5 1050,-0.5 1004,-0.5"/>
<text text-anchor="middle" x="1027" y="-7.5" font-family="Helvetica,sans-Serif" font-size="10.00">locale</text>
</a>
</g>
</g>
<!-- Node1&#45;&gt;Node17 -->
<g id="edge30" class="edge">
<title>Node1&#45;&gt;Node17</title>
<path fill="none" stroke="midnightblue" d="M1144.03,-112.37C1122.61,-93.81 1071.93,-49.91 1044.82,-26.44"/>
<polygon fill="midnightblue" stroke="midnightblue" points="1046.77,-23.49 1036.92,-19.59 1042.19,-28.78 1046.77,-23.49"/>
</g>
<!-- Node18 -->
<g id="node18" class="node">
<title>Node18</title>
<g id="a_node18"><a xlink:title=" ">
<polygon fill="white" stroke="#bfbfbf" points="1068,-0.5 1068,-19.5 1126,-19.5 1126,-0.5 1068,-0.5"/>
<text text-anchor="middle" x="1097" y="-7.5" font-family="Helvetica,sans-Serif" font-size="10.00">memory</text>
</a>
</g>
</g>
<!-- Node1&#45;&gt;Node18 -->
<g id="edge31" class="edge">
<title>Node1&#45;&gt;Node18</title>
<path fill="none" stroke="midnightblue" d="M1149.53,-112.37C1140.2,-94.38 1118.53,-52.55 1106.13,-28.63"/>
<polygon fill="midnightblue" stroke="midnightblue" points="1109.16,-26.86 1101.45,-19.59 1102.95,-30.08 1109.16,-26.86"/>
</g>
<!-- Node19 -->
<g id="node19" class="node">
<title>Node19</title>
<g id="a_node19"><a xlink:title=" ">
<polygon fill="white" stroke="#bfbfbf" points="1144.5,-0.5 1144.5,-19.5 1201.5,-19.5 1201.5,-0.5 1144.5,-0.5"/>
<text text-anchor="middle" x="1173" y="-7.5" font-family="Helvetica,sans-Serif" font-size="10.00">ostream</text>
</a>
</g>
</g>
<!-- Node1&#45;&gt;Node19 -->
<g id="edge33" class="edge">
<title>Node1&#45;&gt;Node19</title>
<path fill="none" stroke="midnightblue" d="M1154.05,-112.09C1154.27,-99.48 1155.21,-75.79 1159,-56 1160.71,-47.06 1163.58,-37.39 1166.28,-29.32"/>
<polygon fill="midnightblue" stroke="midnightblue" points="1169.6,-30.41 1169.61,-19.81 1163,-28.09 1169.6,-30.41"/>
</g>
<!-- Node21 -->
<g id="node21" class="node">
<title>Node21</title>
<g id="a_node21"><a xlink:title=" ">
<polygon fill="white" stroke="#bfbfbf" points="1220,-0.5 1220,-19.5 1276,-19.5 1276,-0.5 1220,-0.5"/>
<text text-anchor="middle" x="1248" y="-7.5" font-family="Helvetica,sans-Serif" font-size="10.00">sstream</text>
</a>
</g>
</g>
<!-- Node1&#45;&gt;Node21 -->
<g id="edge34" class="edge">
<title>Node1&#45;&gt;Node21</title>
<path fill="none" stroke="midnightblue" d="M1158.89,-112.07C1166.25,-99.04 1181.01,-74.37 1197,-56 1206.57,-45 1218.77,-34.15 1228.83,-25.86"/>
<polygon fill="midnightblue" stroke="midnightblue" points="1231.08,-28.54 1236.69,-19.55 1226.7,-23.08 1231.08,-28.54"/>
</g>
<!-- Node22 -->
<g id="node22" class="node">
<title>Node22</title>
<g id="a_node22"><a xlink:title=" ">
<polygon fill="white" stroke="#bfbfbf" points="1294.5,-0.5 1294.5,-19.5 1359.5,-19.5 1359.5,-0.5 1294.5,-0.5"/>
<text text-anchor="middle" x="1327" y="-7.5" font-family="Helvetica,sans-Serif" font-size="10.00">stdexcept</text>
</a>
</g>
</g>
<!-- Node1&#45;&gt;Node22 -->
<g id="edge35" class="edge">
<title>Node1&#45;&gt;Node22</title>
<path fill="none" stroke="midnightblue" d="M1163.45,-112.25C1178.04,-99.02 1207.29,-73.59 1235,-56 1254.72,-43.48 1278.43,-31.96 1296.85,-23.71"/>
<polygon fill="midnightblue" stroke="midnightblue" points="1298.46,-26.82 1306.2,-19.59 1295.64,-20.41 1298.46,-26.82"/>
</g>
<!-- Node23 -->
<g id="node23" class="node">
<title>Node23</title>
<g id="a_node23"><a xlink:title=" ">
<polygon fill="white" stroke="#bfbfbf" points="1378,-0.5 1378,-19.5 1422,-19.5 1422,-0.5 1378,-0.5"/>
<text text-anchor="middle" x="1400" y="-7.5" font-family="Helvetica,sans-Serif" font-size="10.00">string</text>
</a>
</g>
</g>
<!-- Node1&#45;&gt;Node23 -->
<g id="edge36" class="edge">
<title>Node1&#45;&gt;Node23</title>
<path fill="none" stroke="midnightblue" d="M1169.27,-112.48C1198.96,-95.95 1262.52,-60.68 1273,-56 1304.49,-41.93 1341.83,-29.14 1367.84,-20.82"/>
<polygon fill="midnightblue" stroke="midnightblue" points="1369.07,-24.1 1377.56,-17.76 1366.97,-17.43 1369.07,-24.1"/>
</g>
<!-- Node24 -->
<g id="node24" class="node">
<title>Node24</title>
<g id="a_node24"><a xlink:title=" ">
<polygon fill="white" stroke="#bfbfbf" points="1440.5,-0.5 1440.5,-19.5 1485.5,-19.5 1485.5,-0.5 1440.5,-0.5"/>
<text text-anchor="middle" x="1463" y="-7.5" font-family="Helvetica,sans-Serif" font-size="10.00">utility</text>
</a>
</g>
</g>
<!-- Node1&#45;&gt;Node24 -->
<g id="edge38" class="edge">
<title>Node1&#45;&gt;Node24</title>
<path fill="none" stroke="midnightblue" d="M1171.88,-114.59C1194.82,-106.25 1235.76,-90.96 1270,-76 1288.58,-67.88 1292.1,-63.35 1311,-56 1322.23,-51.63 1389.25,-32.18 1430.46,-20.32"/>
<polygon fill="midnightblue" stroke="midnightblue" points="1431.69,-23.61 1440.33,-17.49 1429.75,-16.88 1431.69,-23.61"/>
</g>
<!-- Node25 -->
<g id="node25" class="node">
<title>Node25</title>
<g id="a_node25"><a xlink:title=" ">
<polygon fill="white" stroke="#bfbfbf" points="1503.5,-0.5 1503.5,-19.5 1572.5,-19.5 1572.5,-0.5 1503.5,-0.5"/>
<text text-anchor="middle" x="1538" y="-7.5" font-family="Helvetica,sans-Serif" font-size="10.00">type_traits</text>
</a>
</g>
</g>
<!-- Node1&#45;&gt;Node25 -->
<g id="edge37" class="edge">
<title>Node1&#45;&gt;Node25</title>
<path fill="none" stroke="midnightblue" d="M1171.89,-116.7C1200.35,-109.62 1257.5,-94.44 1304,-76 1322.48,-68.67 1325.3,-62.74 1344,-56 1357.98,-50.96 1440.68,-32.4 1493.49,-20.74"/>
<polygon fill="midnightblue" stroke="midnightblue" points="1494.29,-24.15 1503.3,-18.58 1492.78,-17.32 1494.29,-24.15"/>
</g>
<!-- Node26 -->
<g id="node26" class="node">
<title>Node26</title>
<g id="a_node26"><a xlink:title=" ">
<polygon fill="white" stroke="#bfbfbf" points="1353,-56.5 1353,-75.5 1403,-75.5 1403,-56.5 1353,-56.5"/>
<text text-anchor="middle" x="1378" y="-63.5" font-family="Helvetica,sans-Serif" font-size="10.00">atomic</text>
</a>
</g>
</g>
<!-- Node1&#45;&gt;Node26 -->
<g id="edge26" class="edge">
<title>Node1&#45;&gt;Node26</title>
<path fill="none" stroke="midnightblue" d="M1171.58,-116.76C1208.46,-107.87 1294.5,-87.13 1343.05,-75.42"/>
<polygon fill="midnightblue" stroke="midnightblue" points="1343.91,-78.82 1352.81,-73.07 1342.27,-72.01 1343.91,-78.82"/>
</g>
<!-- Node27 -->
<g id="node27" class="node">
<title>Node27</title>
<g id="a_node27"><a xlink:title=" ">
<polygon fill="white" stroke="#bfbfbf" points="1421,-56.5 1421,-75.5 1469,-75.5 1469,-56.5 1421,-56.5"/>
<text text-anchor="middle" x="1445" y="-63.5" font-family="Helvetica,sans-Serif" font-size="10.00">mutex</text>
</a>
</g>
</g>
<!-- Node1&#45;&gt;Node27 -->
<g id="edge32" class="edge">
<title>Node1&#45;&gt;Node27</title>
<path fill="none" stroke="midnightblue" d="M1171.63,-118.51C1212.15,-112.65 1315.21,-97.08 1411.07,-76.04"/>
<polygon fill="midnightblue" stroke="midnightblue" points="1411.91,-79.43 1420.91,-73.85 1410.39,-72.6 1411.91,-79.43"/>
</g>
<!-- Node28 -->
<g id="node28" class="node">
<title>Node28</title>
<g id="a_node28"><a xlink:title=" ">
<polygon fill="white" stroke="#bfbfbf" points="1487.5,-56.5 1487.5,-75.5 1534.5,-75.5 1534.5,-56.5 1487.5,-56.5"/>
<text text-anchor="middle" x="1511" y="-63.5" font-family="Helvetica,sans-Serif" font-size="10.00">vector</text>
</a>
</g>
</g>
<!-- Node1&#45;&gt;Node28 -->
<g id="edge39" class="edge">
<title>Node1&#45;&gt;Node28</title>
<path fill="none" stroke="midnightblue" d="M1171.7,-119.35C1219.42,-114.72 1354.88,-100.49 1477.37,-75.88"/>
<polygon fill="midnightblue" stroke="midnightblue" points="1478.2,-79.28 1487.29,-73.86 1476.8,-72.42 1478.2,-79.28"/>
</g>
<!-- Node2&#45;&gt;Node3 -->
<g id="edge2" class="edge">
<title>Node2&#45;&gt;Node3</title>
<path fill="none" stroke="midnightblue" d="M765.25,-65.16C674.79,-65.44 343.13,-63.38 62.23,-19.89"/>
<polygon fill="midnightblue" stroke="midnightblue" points="62.68,-16.42 52.26,-18.32 61.6,-23.33 62.68,-16.42"/>
</g>
<!-- Node2&#45;&gt;Node4 -->
<g id="edge3" class="edge">
<title>Node2&#45;&gt;Node4</title>
<path fill="none" stroke="midnightblue" d="M765.4,-64.6C681.86,-62.94 392.25,-54.94 144.07,-19.94"/>
<polygon fill="midnightblue" stroke="midnightblue" points="144.54,-16.47 134.15,-18.52 143.55,-23.4 144.54,-16.47"/>
</g>
<!-- Node5 -->
<g id="node5" class="node">
<title>Node5</title>
<g id="a_node5"><a xlink:title=" ">
<polygon fill="white" stroke="#bfbfbf" points="730.5,-0.5 730.5,-19.5 779.5,-19.5 779.5,-0.5 730.5,-0.5"/>
<text text-anchor="middle" x="755" y="-7.5" font-family="Helvetica,sans-Serif" font-size="10.00">cctype</text>
</a>
</g>
</g>
<!-- Node2&#45;&gt;Node5 -->
<g id="edge4" class="edge">
<title>Node2&#45;&gt;Node5</title>
<path fill="none" stroke="midnightblue" d="M783.39,-56.08C778.63,-48.53 771.68,-37.49 765.85,-28.23"/>
<polygon fill="midnightblue" stroke="midnightblue" points="768.8,-26.35 760.51,-19.75 762.88,-30.08 768.8,-26.35"/>
</g>
<!-- Node2&#45;&gt;Node6 -->
<g id="edge5" class="edge">
<title>Node2&#45;&gt;Node6</title>
<path fill="none" stroke="midnightblue" d="M765.19,-63.09C742.33,-61.26 706.8,-58.42 676,-56 472.58,-40.02 417.09,-54.21 212.02,-19.87"/>
<polygon fill="midnightblue" stroke="midnightblue" points="212.58,-16.42 202.14,-18.2 211.42,-23.32 212.58,-16.42"/>
</g>
<!-- Node7 -->
<g id="node7" class="node">
<title>Node7</title>
<g id="a_node7"><a xlink:title=" ">
<polygon fill="white" stroke="#bfbfbf" points="798,-0.5 798,-19.5 848,-19.5 848,-0.5 798,-0.5"/>
<text text-anchor="middle" x="823" y="-7.5" font-family="Helvetica,sans-Serif" font-size="10.00">climits</text>
</a>
</g>
</g>
<!-- Node2&#45;&gt;Node7 -->
<g id="edge6" class="edge">
<title>Node2&#45;&gt;Node7</title>
<path fill="none" stroke="midnightblue" d="M794.61,-56.08C799.37,-48.53 806.32,-37.49 812.15,-28.23"/>
<polygon fill="midnightblue" stroke="midnightblue" points="815.12,-30.08 817.49,-19.75 809.2,-26.35 815.12,-30.08"/>
</g>
<!-- Node8 -->
<g id="node8" class="node">
<title>Node8</title>
<g id="a_node8"><a xlink:title=" ">
<polygon fill="white" stroke="#bfbfbf" points="866.5,-0.5 866.5,-19.5 913.5,-19.5 913.5,-0.5 866.5,-0.5"/>
<text text-anchor="middle" x="890" y="-7.5" font-family="Helvetica,sans-Serif" font-size="10.00">cmath</text>
</a>
</g>
</g>
<!-- Node2&#45;&gt;Node8 -->
<g id="edge7" class="edge">
<title>Node2&#45;&gt;Node8</title>
<path fill="none" stroke="midnightblue" d="M805.23,-56.32C821.35,-47.7 846.3,-34.36 864.96,-24.39"/>
<polygon fill="midnightblue" stroke="midnightblue" points="866.64,-27.46 873.81,-19.65 863.34,-21.28 866.64,-27.46"/>
</g>
<!-- Node9 -->
<g id="node9" class="node">
<title>Node9</title>
<g id="a_node9"><a xlink:title=" ">
<polygon fill="white" stroke="#bfbfbf" points="220.5,-0.5 220.5,-19.5 273.5,-19.5 273.5,-0.5 220.5,-0.5"/>
<text text-anchor="middle" x="247" y="-7.5" font-family="Helvetica,sans-Serif" font-size="10.00">cstddef</text>
</a>
</g>
</g>
<!-- Node2&#45;&gt;Node9 -->
<g id="edge8" class="edge">
<title>Node2&#45;&gt;Node9</title>
<path fill="none" stroke="midnightblue" d="M765.27,-63.11C676.26,-55.99 363.63,-30.72 284,-19.73"/>
<polygon fill="midnightblue" stroke="midnightblue" points="284.05,-16.2 273.64,-18.15 283,-23.12 284.05,-16.2"/>
</g>
<!-- Node10 -->
<g id="node10" class="node">
<title>Node10</title>
<g id="a_node10"><a xlink:title=" ">
<polygon fill="white" stroke="#bfbfbf" points="292,-0.5 292,-19.5 342,-19.5 342,-0.5 292,-0.5"/>
<text text-anchor="middle" x="317" y="-7.5" font-family="Helvetica,sans-Serif" font-size="10.00">cstdint</text>
</a>
</g>
</g>
<!-- Node2&#45;&gt;Node10 -->
<g id="edge9" class="edge">
<title>Node2&#45;&gt;Node10</title>
<path fill="none" stroke="midnightblue" d="M765.39,-63.07C689.2,-56.75 449.61,-36.29 352.22,-19.9"/>
<polygon fill="midnightblue" stroke="midnightblue" points="352.61,-16.42 342.15,-18.13 351.39,-23.31 352.61,-16.42"/>
</g>
<!-- Node11 -->
<g id="node11" class="node">
<title>Node11</title>
<g id="a_node11"><a xlink:title=" ">
<polygon fill="white" stroke="#bfbfbf" points="360.5,-0.5 360.5,-19.5 409.5,-19.5 409.5,-0.5 360.5,-0.5"/>
<text text-anchor="middle" x="385" y="-7.5" font-family="Helvetica,sans-Serif" font-size="10.00">cstdlib</text>
</a>
</g>
</g>
<!-- Node2&#45;&gt;Node11 -->
<g id="edge10" class="edge">
<title>Node2&#45;&gt;Node11</title>
<path fill="none" stroke="midnightblue" d="M765.45,-63.27C708.05,-58.81 556.29,-45.59 419.99,-19.93"/>
<polygon fill="midnightblue" stroke="midnightblue" points="420.27,-16.42 409.79,-17.98 418.96,-23.3 420.27,-16.42"/>
</g>
<!-- Node12 -->
<g id="node12" class="node">
<title>Node12</title>
<g id="a_node12"><a xlink:title=" ">
<polygon fill="white" stroke="#bfbfbf" points="428,-0.5 428,-19.5 472,-19.5 472,-0.5 428,-0.5"/>
<text text-anchor="middle" x="450" y="-7.5" font-family="Helvetica,sans-Serif" font-size="10.00">ctime</text>
</a>
</g>
</g>
<!-- Node2&#45;&gt;Node12 -->
<g id="edge11" class="edge">
<title>Node2&#45;&gt;Node12</title>
<path fill="none" stroke="midnightblue" d="M765.23,-62.65C714.79,-57.44 593.23,-43.6 482.27,-20.02"/>
<polygon fill="midnightblue" stroke="midnightblue" points="482.77,-16.55 472.26,-17.86 481.29,-23.39 482.77,-16.55"/>
</g>
<!-- Node13 -->
<g id="node13" class="node">
<title>Node13</title>
<g id="a_node13"><a xlink:title=" ">
<polygon fill="white" stroke="#bfbfbf" points="490.5,-0.5 490.5,-19.5 521.5,-19.5 521.5,-0.5 490.5,-0.5"/>
<text text-anchor="middle" x="506" y="-7.5" font-family="Helvetica,sans-Serif" font-size="10.00">ios</text>
</a>
</g>
</g>
<!-- Node2&#45;&gt;Node13 -->
<g id="edge12" class="edge">
<title>Node2&#45;&gt;Node13</title>
<path fill="none" stroke="midnightblue" d="M765.46,-62.41C721.2,-57.21 622.49,-44.13 531.52,-20.01"/>
<polygon fill="midnightblue" stroke="midnightblue" points="532.18,-16.57 521.61,-17.33 530.35,-23.32 532.18,-16.57"/>
</g>
<!-- Node2&#45;&gt;Node14 -->
<g id="edge13" class="edge">
<title>Node2&#45;&gt;Node14</title>
<path fill="none" stroke="midnightblue" d="M812.64,-57.49C841.08,-48.46 889.15,-33.19 922.4,-22.63"/>
<polygon fill="midnightblue" stroke="midnightblue" points="923.73,-25.88 932.2,-19.51 921.61,-19.2 923.73,-25.88"/>
</g>
<!-- Node15 -->
<g id="node15" class="node">
<title>Node15</title>
<g id="a_node15"><a xlink:title=" ">
<polygon fill="white" stroke="#bfbfbf" points="539.5,-0.5 539.5,-19.5 592.5,-19.5 592.5,-0.5 539.5,-0.5"/>
<text text-anchor="middle" x="566" y="-7.5" font-family="Helvetica,sans-Serif" font-size="10.00">iterator</text>
</a>
</g>
</g>
<!-- Node2&#45;&gt;Node15 -->
<g id="edge14" class="edge">
<title>Node2&#45;&gt;Node15</title>
<path fill="none" stroke="midnightblue" d="M765.37,-59.38C731.61,-51.35 667.37,-36 602.69,-20.15"/>
<polygon fill="midnightblue" stroke="midnightblue" points="603.28,-16.69 592.73,-17.71 601.61,-23.49 603.28,-16.69"/>
</g>
<!-- Node16 -->
<g id="node16" class="node">
<title>Node16</title>
<g id="a_node16"><a xlink:title=" ">
<polygon fill="white" stroke="#bfbfbf" points="611,-0.5 611,-19.5 655,-19.5 655,-0.5 611,-0.5"/>
<text text-anchor="middle" x="633" y="-7.5" font-family="Helvetica,sans-Serif" font-size="10.00">limits</text>
</a>
</g>
</g>
<!-- Node2&#45;&gt;Node16 -->
<g id="edge15" class="edge">
<title>Node2&#45;&gt;Node16</title>
<path fill="none" stroke="midnightblue" d="M765.31,-56.8C738.43,-47.49 694.47,-32.28 664.66,-21.96"/>
<polygon fill="midnightblue" stroke="midnightblue" points="665.74,-18.63 655.15,-18.67 663.45,-25.24 665.74,-18.63"/>
</g>
<!-- Node2&#45;&gt;Node17 -->
<g id="edge16" class="edge">
<title>Node2&#45;&gt;Node17</title>
<path fill="none" stroke="midnightblue" d="M812.58,-60.32C849.25,-52.95 922.34,-37.84 993.89,-20.16"/>
<polygon fill="midnightblue" stroke="midnightblue" points="995.11,-23.47 1003.97,-17.65 993.42,-16.67 995.11,-23.47"/>
</g>
<!-- Node2&#45;&gt;Node18 -->
<g id="edge17" class="edge">
<title>Node2&#45;&gt;Node18</title>
<path fill="none" stroke="midnightblue" d="M812.57,-61.62C858.05,-54.98 961.24,-39.34 1058.05,-20.08"/>
<polygon fill="midnightblue" stroke="midnightblue" points="1058.88,-23.48 1068,-18.08 1057.5,-16.62 1058.88,-23.48"/>
</g>
<!-- Node2&#45;&gt;Node19 -->
<g id="edge18" class="edge">
<title>Node2&#45;&gt;Node19</title>
<path fill="none" stroke="midnightblue" d="M812.62,-62.78C867.37,-57.45 1007.29,-42.79 1134.52,-19.91"/>
<polygon fill="midnightblue" stroke="midnightblue" points="1135.22,-23.33 1144.43,-18.1 1133.97,-16.45 1135.22,-23.33"/>
</g>
<!-- Node20 -->
<g id="node20" class="node">
<title>Node20</title>
<g id="a_node20"><a xlink:title=" ">
<polygon fill="white" stroke="#bfbfbf" points="673.5,-0.5 673.5,-19.5 712.5,-19.5 712.5,-0.5 673.5,-0.5"/>
<text text-anchor="middle" x="693" y="-7.5" font-family="Helvetica,sans-Serif" font-size="10.00">ratio</text>
</a>
</g>
</g>
<!-- Node2&#45;&gt;Node20 -->
<g id="edge19" class="edge">
<title>Node2&#45;&gt;Node20</title>
<path fill="none" stroke="midnightblue" d="M773.58,-56.32C758.46,-47.82 735.18,-34.73 717.53,-24.8"/>
<polygon fill="midnightblue" stroke="midnightblue" points="718.82,-21.51 708.39,-19.65 715.39,-27.61 718.82,-21.51"/>
</g>
<!-- Node2&#45;&gt;Node21 -->
<g id="edge20" class="edge">
<title>Node2&#45;&gt;Node21</title>
<path fill="none" stroke="midnightblue" d="M812.88,-63.51C877.33,-59.25 1060.02,-45.67 1210,-20 1210.1,-19.98 1210.2,-19.97 1210.3,-19.95"/>
<polygon fill="midnightblue" stroke="midnightblue" points="1210.72,-23.43 1219.86,-18.08 1209.37,-16.56 1210.72,-23.43"/>
</g>
<!-- Node2&#45;&gt;Node22 -->
<g id="edge21" class="edge">
<title>Node2&#45;&gt;Node22</title>
<path fill="none" stroke="midnightblue" d="M812.62,-63.87C882.86,-60.3 1096.72,-47.88 1284.03,-19.97"/>
<polygon fill="midnightblue" stroke="midnightblue" points="1284.69,-23.41 1294.05,-18.45 1283.64,-16.48 1284.69,-23.41"/>
</g>
<!-- Node2&#45;&gt;Node23 -->
<g id="edge22" class="edge">
<title>Node2&#45;&gt;Node23</title>
<path fill="none" stroke="midnightblue" d="M812.7,-64.9C890.89,-64.19 1147.68,-58.99 1367.66,-19.87"/>
<polygon fill="midnightblue" stroke="midnightblue" points="1368.56,-23.27 1377.78,-18.04 1367.32,-16.38 1368.56,-23.27"/>
</g>
<!-- Node2&#45;&gt;Node24 -->
<g id="edge23" class="edge">
<title>Node2&#45;&gt;Node24</title>
<path fill="none" stroke="midnightblue" d="M812.53,-65.08C895.77,-64.98 1184.09,-61.61 1430.2,-19.73"/>
<polygon fill="midnightblue" stroke="midnightblue" points="1431.15,-23.12 1440.41,-17.97 1429.96,-16.22 1431.15,-23.12"/>
</g>
<!-- Node2&#45;&gt;Node25 -->
<g id="edge24" class="edge">
<title>Node2&#45;&gt;Node25</title>
<path fill="none" stroke="midnightblue" d="M812.58,-64.72C900.94,-63.4 1220.84,-56.33 1493.26,-20.06"/>
<polygon fill="midnightblue" stroke="midnightblue" points="1493.9,-23.5 1503.34,-18.7 1492.96,-16.56 1493.9,-23.5"/>
</g>
</g>
</svg>
